<svg width="202" height="32" viewBox="0 0 202 32" fill="none" xmlns="http://www.w3.org/2000/svg">
<g clip-path="url(#clip0)">
<mask id="path-1-outside-1" maskUnits="userSpaceOnUse" x="3.21739" y="-0.695652" width="198" height="33" fill="black">
<rect fill="white" x="3.21739" y="-0.695652" width="198" height="33"/>
<path d="M173.377 14.6328V18.719L172.088 20.8832L173.23 22.7909L173.084 26.0525H164.558C164.216 22.9812 164.079 19.8895 164.148 16.799C163.35 17.4063 162.797 18.2944 162.597 19.2934C162.401 21.5454 162.401 23.8108 162.597 26.0628L154.891 26.7684C154.113 21.3514 153.746 15.8804 153.794 10.405C153.814 8.2607 153.902 6.11706 154.058 3.97412L154.072 3.65822L156.385 3.45308L161.185 3.18231H161.215L162.593 3.15153C162.837 6.12732 162.954 8.8419 162.945 11.2953C163.697 10.9247 164.17 10.1582 164.366 8.99576C164.562 7.83335 164.629 5.90989 164.566 3.22539L173.092 3.66027C173.268 7.12564 173.365 10.7872 173.385 14.6451L173.377 14.6328ZM188.314 2.3105L189.15 3.24179C190.263 4.60934 191.318 6.0316 192.313 7.50855L192.547 7.85317C193.621 9.46133 194.585 11.1433 195.433 12.8871C196.253 14.5897 197.015 16.3374 197.719 18.1303L198.261 19.437L197.967 19.9929C195.834 23.6853 193.509 26.2296 190.994 27.6259L189.69 25.7633C189.776 24.1149 189.668 22.4619 189.368 20.8401C188.67 20.648 187.952 20.5419 187.23 20.5242L186.18 18.2349L185.096 20.5796C184.184 20.7632 183.295 21.0508 182.445 21.437C182.318 22.7971 182.386 24.1688 182.645 25.5089C182.134 26.2835 181.494 26.9598 180.755 27.5069C178.156 25.9028 175.971 23.6818 174.383 21.0309C176.429 16.4664 179.078 12.2124 182.255 8.38857C184.094 6.18207 186.122 4.14802 188.314 2.3105ZM183.596 22.0032C185.55 21.4822 187.112 21.2968 188.284 21.4473C188.641 22.8208 188.719 24.2549 188.514 25.6607C187.161 26.3444 185.685 26.7334 184.178 26.8033C183.621 24.752 183.43 23.154 183.606 22.0094L183.596 22.0032ZM38.0217 2.31666L39.6615 4.11976C41.1539 5.88251 42.4828 7.78411 43.6311 9.79988C44.7443 11.7552 45.6711 13.8161 46.3988 15.9538V15.9785L46.4128 16.0092L46.4428 16.0851L46.8088 17.2564C47.0233 18.4669 47.0429 19.7052 46.8668 20.9221C45.4216 23.9307 43.2218 26.0546 40.2675 27.2935L39.4036 26.2125C39.347 24.2778 39.1262 22.3519 38.7436 20.4565L37.0298 20.2308L35.8699 18.2349L34.7121 20.6698C33.9224 20.7791 33.1495 20.9914 32.4123 21.3016C32.3209 22.5468 32.3109 23.7968 32.3823 25.0433C31.9294 26.0086 31.2623 26.8516 30.4345 27.5048C27.8375 25.9033 25.6565 23.6815 24.0772 21.0288C25.274 18.3851 26.6645 15.8383 28.2367 13.4102C29.0866 12.0911 30.001 10.8169 30.9765 9.59269L31.2264 9.27679C32.5451 7.61435 33.9694 6.04304 35.49 4.57311C36.3006 3.79224 37.1405 3.03599 38.0097 2.30435L38.0217 2.31666ZM49.4085 6.36186C49.5058 6.08835 50.3991 5.46748 52.0882 4.49925C53.7774 3.53103 56.4631 3.17069 60.1454 3.41821C61.695 3.92664 63.1091 4.7958 64.277 5.95775L64.3949 6.09313C65.3414 7.13782 66.0671 8.37185 66.5267 9.71782C66.8023 10.515 67.013 11.3342 67.1567 12.1671V12.1815L67.3326 13.6174C66.746 16.3921 65.5202 18.1802 63.655 18.9816L62.6731 19.4329L63.1131 20.3642C63.673 21.5192 64.0915 22.7408 64.3589 24.0012C63.0258 27.0563 60.5893 28.644 57.0497 28.7644C54.2953 28.4744 51.9909 27.5725 50.1364 26.0587C49.8663 25.8425 49.6116 25.6067 49.3745 25.353L48.6126 24.5325C48.1247 21.1861 48.1147 17.1942 48.5826 12.5569C48.7679 10.6532 49.0346 8.63951 49.3825 6.51571L49.4125 6.36596L49.4085 6.36186ZM56.6338 15.082V18.5385L57.0337 18.5693C57.5509 18.5803 58.0523 18.3863 58.4336 18.0277C58.6238 17.8883 58.7779 17.7033 58.8825 17.4887C58.9871 17.2742 59.0389 17.0367 59.0335 16.7969C59.0326 16.5583 58.978 16.323 58.8739 16.1095C58.7699 15.8961 58.6192 15.7101 58.4336 15.5661C58.0404 15.2332 57.5434 15.057 57.0337 15.0697L56.6338 15.0841V15.082ZM69.1144 11.8389C68.9944 11.0965 68.8233 10.3637 68.6025 9.64603C68.1533 8.12794 67.4279 6.71082 66.4647 5.46954C68.5352 3.88728 71.1349 2.94093 74.2639 2.6305L74.7618 2.58538L74.7918 2.6305C75.8381 4.60739 76.9974 6.51914 78.2635 8.35575C79.7065 6.54721 80.9219 4.55959 81.8811 2.43973C84.0302 2.93068 85.788 3.6719 87.1545 4.66337L87.1845 4.69413L87.2865 4.73927C88.0678 5.33005 88.8097 5.93587 89.5123 6.55674L88.7364 8.7496L87.4345 11.8758L87.4045 11.9353C84.604 18.3857 80.8815 24.3716 76.3597 29.6957C73.264 27.9425 70.7309 25.874 68.7605 23.4904L74.0479 17.4657L73.096 16.8195C71.0749 15.4875 69.747 13.8348 69.1124 11.8615V11.8307L69.1144 11.8389ZM14.7522 2.80487C19.0397 3.03462 21.9061 5.24321 23.3513 9.43064L23.8192 11.084L23.9372 11.6091L24.1132 12.4953L23.9372 14.0871C23.8207 14.8736 23.623 15.6452 23.3473 16.3887C22.8222 17.8536 21.8776 19.1214 20.6375 20.0257C21.1948 21.5683 21.1902 23.1813 20.6235 24.8648C19.229 27.2183 17.0899 28.3855 14.2062 28.3664C10.2413 27.926 7.47293 26.4532 5.9011 23.9478C5.03093 18.4875 4.99113 12.9219 5.78311 7.44906L6.14907 6.90752C7.87156 4.47602 10.7179 3.11393 14.6882 2.82127H14.7462L14.7522 2.80487ZM13.5463 15.082V18.5385L13.9263 18.5693C14.4449 18.5803 14.9479 18.3873 15.3321 18.0298C15.519 17.8881 15.6699 17.7022 15.7719 17.4879C15.8739 17.2737 15.924 17.0373 15.918 16.799C15.9179 16.5617 15.865 16.3275 15.7635 16.1143C15.662 15.901 15.5145 15.7143 15.3321 15.5682C14.9381 15.2369 14.4416 15.0609 13.9323 15.0718L13.5523 15.0861L13.5463 15.082ZM15.2361 21.3816C14.9087 21.0993 14.4918 20.9497 14.0642 20.9611L13.7123 20.9919V23.9376L14.0642 23.9519C14.497 23.962 14.9168 23.8003 15.2361 23.5007C15.4016 23.3832 15.5363 23.2257 15.6283 23.0422C15.7204 22.8587 15.767 22.6547 15.7641 22.4483C15.7639 22.2405 15.716 22.0356 15.6243 21.8503C15.5326 21.665 15.3996 21.5044 15.2361 21.3816ZM56.8097 20.9919V23.9376L57.1457 23.9519C57.5823 23.9601 58.0058 23.7989 58.3316 23.5007C58.4934 23.3807 58.6246 23.2223 58.7137 23.0391C58.8029 22.8558 58.8474 22.6531 58.8435 22.4483C58.8442 22.2421 58.7983 22.0385 58.7095 21.8534C58.6206 21.6684 58.4913 21.5069 58.3316 21.3816C57.9983 21.1001 57.5774 20.9508 57.1457 20.9611L56.8097 20.9919ZM37.8117 21.517C38.1916 22.8628 38.3272 24.2687 38.2117 25.6648C36.8528 26.3474 35.3717 26.7364 33.8602 26.8074C33.3029 24.7561 33.1176 23.1581 33.3042 22.0134C35.296 21.6634 36.7998 21.4979 37.8157 21.517H37.8117ZM127.714 9.9168C128.32 12.7011 127.636 15.4157 125.663 18.0606C126.256 19.9976 127.2 21.8022 128.446 23.3796C126.719 25.3535 124.623 26.9522 122.283 28.0813C121.166 26.64 120.175 25.1011 119.321 23.4822C119.104 24.6081 118.719 25.6929 118.179 26.6987C115.867 26.8519 113.545 26.7142 111.266 26.2884C110.963 26.0778 110.758 25.4815 110.65 24.4996V11.5763L110.664 11.5456L110.738 3.5659C113.658 3.09547 116.797 3.2206 120.157 3.9413C123.517 4.662 125.978 6.45006 127.54 9.3055L127.702 9.90655L127.714 9.9168ZM129.226 10.0276C130.603 7.53316 132.254 5.68697 134.178 4.489C136.043 3.32559 138.195 2.73607 140.377 2.79051C143.014 2.92727 145.236 3.55838 147.042 4.68388C149.103 5.96664 150.632 7.89967 151.628 10.483L151.964 11.4594L152.11 11.9394C152.716 13.8035 152.716 15.819 152.11 17.6831C150.41 23.6839 146.426 26.8894 140.157 27.2997C134.991 27.3599 131.207 23.9841 128.804 17.1723C128.199 14.4878 128.321 12.1391 129.17 10.126L129.228 10.0358L129.226 10.0276ZM90.0123 4.3249C93.0034 3.67806 96.108 3.85427 99.0113 4.83567L99.2893 12.4092L101.559 8.36806C102.408 6.77486 103.131 5.31227 103.727 3.98028C105.577 5.15816 107.271 6.5772 108.766 8.2019L109.044 8.48702L109.484 9.01216L108.82 10.8502L108.732 11.1066C107.637 13.5517 106.379 15.9163 104.967 18.1836C106.051 19.9614 107.09 21.3488 108.086 22.3458C105.889 25.1 103.711 27.1082 101.553 28.3705C100.586 27.8235 99.8832 27.2423 99.4433 26.6269C99.3135 25.8068 99.1223 24.9983 98.8713 24.2084L97.9234 25.7222C95.3714 26.2432 92.7458 26.2585 90.1882 25.7674C89.3733 21.4175 89.0731 16.9826 89.2943 12.5589L90.0123 4.3249ZM119.009 17.4267C118.956 18.485 119.092 19.5444 119.409 20.5529L119.643 20.2226C120.101 19.7354 120.606 19.2976 121.151 18.916C120.478 17.8219 119.77 17.2161 119.027 17.0985L119.013 17.4287L119.009 17.4267ZM143.719 21.7693C144.003 21.7738 144.286 21.7173 144.548 21.6036C144.811 21.4899 145.047 21.3214 145.242 21.1088C145.447 20.9059 145.609 20.663 145.72 20.3945C145.831 20.1259 145.888 19.8373 145.888 19.5457C145.888 19.2541 145.831 18.9655 145.72 18.697C145.609 18.4284 145.447 18.1855 145.242 17.9826C144.991 17.726 144.681 17.537 144.342 17.4322C144.002 17.3275 143.642 17.3102 143.294 17.382C142.946 17.4538 142.621 17.6123 142.347 17.8437C142.073 18.0751 141.859 18.3722 141.724 18.7086C141.588 19.0451 141.536 19.4105 141.571 19.7727C141.606 20.1349 141.727 20.4827 141.924 20.7853C142.122 21.0879 142.389 21.336 142.702 21.5076C143.014 21.6792 143.364 21.7691 143.719 21.7693Z"/>
</mask>
<path d="M173.377 14.6328V18.719L172.088 20.8832L173.23 22.7909L173.084 26.0525H164.558C164.216 22.9812 164.079 19.8895 164.148 16.799C163.35 17.4063 162.797 18.2944 162.597 19.2934C162.401 21.5454 162.401 23.8108 162.597 26.0628L154.891 26.7684C154.113 21.3514 153.746 15.8804 153.794 10.405C153.814 8.2607 153.902 6.11706 154.058 3.97412L154.072 3.65822L156.385 3.45308L161.185 3.18231H161.215L162.593 3.15153C162.837 6.12732 162.954 8.8419 162.945 11.2953C163.697 10.9247 164.17 10.1582 164.366 8.99576C164.562 7.83335 164.629 5.90989 164.566 3.22539L173.092 3.66027C173.268 7.12564 173.365 10.7872 173.385 14.6451L173.377 14.6328ZM188.314 2.3105L189.15 3.24179C190.263 4.60934 191.318 6.0316 192.313 7.50855L192.547 7.85317C193.621 9.46133 194.585 11.1433 195.433 12.8871C196.253 14.5897 197.015 16.3374 197.719 18.1303L198.261 19.437L197.967 19.9929C195.834 23.6853 193.509 26.2296 190.994 27.6259L189.69 25.7633C189.776 24.1149 189.668 22.4619 189.368 20.8401C188.67 20.648 187.952 20.5419 187.23 20.5242L186.18 18.2349L185.096 20.5796C184.184 20.7632 183.295 21.0508 182.445 21.437C182.318 22.7971 182.386 24.1688 182.645 25.5089C182.134 26.2835 181.494 26.9598 180.755 27.5069C178.156 25.9028 175.971 23.6818 174.383 21.0309C176.429 16.4664 179.078 12.2124 182.255 8.38857C184.094 6.18207 186.122 4.14802 188.314 2.3105ZM183.596 22.0032C185.55 21.4822 187.112 21.2968 188.284 21.4473C188.641 22.8208 188.719 24.2549 188.514 25.6607C187.161 26.3444 185.685 26.7334 184.178 26.8033C183.621 24.752 183.43 23.154 183.606 22.0094L183.596 22.0032ZM38.0217 2.31666L39.6615 4.11976C41.1539 5.88251 42.4828 7.78411 43.6311 9.79988C44.7443 11.7552 45.6711 13.8161 46.3988 15.9538V15.9785L46.4128 16.0092L46.4428 16.0851L46.8088 17.2564C47.0233 18.4669 47.0429 19.7052 46.8668 20.9221C45.4216 23.9307 43.2218 26.0546 40.2675 27.2935L39.4036 26.2125C39.347 24.2778 39.1262 22.3519 38.7436 20.4565L37.0298 20.2308L35.8699 18.2349L34.7121 20.6698C33.9224 20.7791 33.1495 20.9914 32.4123 21.3016C32.3209 22.5468 32.3109 23.7968 32.3823 25.0433C31.9294 26.0086 31.2623 26.8516 30.4345 27.5048C27.8375 25.9033 25.6565 23.6815 24.0772 21.0288C25.274 18.3851 26.6645 15.8383 28.2367 13.4102C29.0866 12.0911 30.001 10.8169 30.9765 9.59269L31.2264 9.27679C32.5451 7.61435 33.9694 6.04304 35.49 4.57311C36.3006 3.79224 37.1405 3.03599 38.0097 2.30435L38.0217 2.31666ZM49.4085 6.36186C49.5058 6.08835 50.3991 5.46748 52.0882 4.49925C53.7774 3.53103 56.4631 3.17069 60.1454 3.41821C61.695 3.92664 63.1091 4.7958 64.277 5.95775L64.3949 6.09313C65.3414 7.13782 66.0671 8.37185 66.5267 9.71782C66.8023 10.515 67.013 11.3342 67.1567 12.1671V12.1815L67.3326 13.6174C66.746 16.3921 65.5202 18.1802 63.655 18.9816L62.6731 19.4329L63.1131 20.3642C63.673 21.5192 64.0915 22.7408 64.3589 24.0012C63.0258 27.0563 60.5893 28.644 57.0497 28.7644C54.2953 28.4744 51.9909 27.5725 50.1364 26.0587C49.8663 25.8425 49.6116 25.6067 49.3745 25.353L48.6126 24.5325C48.1247 21.1861 48.1147 17.1942 48.5826 12.5569C48.7679 10.6532 49.0346 8.63951 49.3825 6.51571L49.4125 6.36596L49.4085 6.36186ZM56.6338 15.082V18.5385L57.0337 18.5693C57.5509 18.5803 58.0523 18.3863 58.4336 18.0277C58.6238 17.8883 58.7779 17.7033 58.8825 17.4887C58.9871 17.2742 59.0389 17.0367 59.0335 16.7969C59.0326 16.5583 58.978 16.323 58.8739 16.1095C58.7699 15.8961 58.6192 15.7101 58.4336 15.5661C58.0404 15.2332 57.5434 15.057 57.0337 15.0697L56.6338 15.0841V15.082ZM69.1144 11.8389C68.9944 11.0965 68.8233 10.3637 68.6025 9.64603C68.1533 8.12794 67.4279 6.71082 66.4647 5.46954C68.5352 3.88728 71.1349 2.94093 74.2639 2.6305L74.7618 2.58538L74.7918 2.6305C75.8381 4.60739 76.9974 6.51914 78.2635 8.35575C79.7065 6.54721 80.9219 4.55959 81.8811 2.43973C84.0302 2.93068 85.788 3.6719 87.1545 4.66337L87.1845 4.69413L87.2865 4.73927C88.0678 5.33005 88.8097 5.93587 89.5123 6.55674L88.7364 8.7496L87.4345 11.8758L87.4045 11.9353C84.604 18.3857 80.8815 24.3716 76.3597 29.6957C73.264 27.9425 70.7309 25.874 68.7605 23.4904L74.0479 17.4657L73.096 16.8195C71.0749 15.4875 69.747 13.8348 69.1124 11.8615V11.8307L69.1144 11.8389ZM14.7522 2.80487C19.0397 3.03462 21.9061 5.24321 23.3513 9.43064L23.8192 11.084L23.9372 11.6091L24.1132 12.4953L23.9372 14.0871C23.8207 14.8736 23.623 15.6452 23.3473 16.3887C22.8222 17.8536 21.8776 19.1214 20.6375 20.0257C21.1948 21.5683 21.1902 23.1813 20.6235 24.8648C19.229 27.2183 17.0899 28.3855 14.2062 28.3664C10.2413 27.926 7.47293 26.4532 5.9011 23.9478C5.03093 18.4875 4.99113 12.9219 5.78311 7.44906L6.14907 6.90752C7.87156 4.47602 10.7179 3.11393 14.6882 2.82127H14.7462L14.7522 2.80487ZM13.5463 15.082V18.5385L13.9263 18.5693C14.4449 18.5803 14.9479 18.3873 15.3321 18.0298C15.519 17.8881 15.6699 17.7022 15.7719 17.4879C15.8739 17.2737 15.924 17.0373 15.918 16.799C15.9179 16.5617 15.865 16.3275 15.7635 16.1143C15.662 15.901 15.5145 15.7143 15.3321 15.5682C14.9381 15.2369 14.4416 15.0609 13.9323 15.0718L13.5523 15.0861L13.5463 15.082ZM15.2361 21.3816C14.9087 21.0993 14.4918 20.9497 14.0642 20.9611L13.7123 20.9919V23.9376L14.0642 23.9519C14.497 23.962 14.9168 23.8003 15.2361 23.5007C15.4016 23.3832 15.5363 23.2257 15.6283 23.0422C15.7204 22.8587 15.767 22.6547 15.7641 22.4483C15.7639 22.2405 15.716 22.0356 15.6243 21.8503C15.5326 21.665 15.3996 21.5044 15.2361 21.3816ZM56.8097 20.9919V23.9376L57.1457 23.9519C57.5823 23.9601 58.0058 23.7989 58.3316 23.5007C58.4934 23.3807 58.6246 23.2223 58.7137 23.0391C58.8029 22.8558 58.8474 22.6531 58.8435 22.4483C58.8442 22.2421 58.7983 22.0385 58.7095 21.8534C58.6206 21.6684 58.4913 21.5069 58.3316 21.3816C57.9983 21.1001 57.5774 20.9508 57.1457 20.9611L56.8097 20.9919ZM37.8117 21.517C38.1916 22.8628 38.3272 24.2687 38.2117 25.6648C36.8528 26.3474 35.3717 26.7364 33.8602 26.8074C33.3029 24.7561 33.1176 23.1581 33.3042 22.0134C35.296 21.6634 36.7998 21.4979 37.8157 21.517H37.8117ZM127.714 9.9168C128.32 12.7011 127.636 15.4157 125.663 18.0606C126.256 19.9976 127.2 21.8022 128.446 23.3796C126.719 25.3535 124.623 26.9522 122.283 28.0813C121.166 26.64 120.175 25.1011 119.321 23.4822C119.104 24.6081 118.719 25.6929 118.179 26.6987C115.867 26.8519 113.545 26.7142 111.266 26.2884C110.963 26.0778 110.758 25.4815 110.65 24.4996V11.5763L110.664 11.5456L110.738 3.5659C113.658 3.09547 116.797 3.2206 120.157 3.9413C123.517 4.662 125.978 6.45006 127.54 9.3055L127.702 9.90655L127.714 9.9168ZM129.226 10.0276C130.603 7.53316 132.254 5.68697 134.178 4.489C136.043 3.32559 138.195 2.73607 140.377 2.79051C143.014 2.92727 145.236 3.55838 147.042 4.68388C149.103 5.96664 150.632 7.89967 151.628 10.483L151.964 11.4594L152.11 11.9394C152.716 13.8035 152.716 15.819 152.11 17.6831C150.41 23.6839 146.426 26.8894 140.157 27.2997C134.991 27.3599 131.207 23.9841 128.804 17.1723C128.199 14.4878 128.321 12.1391 129.17 10.126L129.228 10.0358L129.226 10.0276ZM90.0123 4.3249C93.0034 3.67806 96.108 3.85427 99.0113 4.83567L99.2893 12.4092L101.559 8.36806C102.408 6.77486 103.131 5.31227 103.727 3.98028C105.577 5.15816 107.271 6.5772 108.766 8.2019L109.044 8.48702L109.484 9.01216L108.82 10.8502L108.732 11.1066C107.637 13.5517 106.379 15.9163 104.967 18.1836C106.051 19.9614 107.09 21.3488 108.086 22.3458C105.889 25.1 103.711 27.1082 101.553 28.3705C100.586 27.8235 99.8832 27.2423 99.4433 26.6269C99.3135 25.8068 99.1223 24.9983 98.8713 24.2084L97.9234 25.7222C95.3714 26.2432 92.7458 26.2585 90.1882 25.7674C89.3733 21.4175 89.0731 16.9826 89.2943 12.5589L90.0123 4.3249ZM119.009 17.4267C118.956 18.485 119.092 19.5444 119.409 20.5529L119.643 20.2226C120.101 19.7354 120.606 19.2976 121.151 18.916C120.478 17.8219 119.77 17.2161 119.027 17.0985L119.013 17.4287L119.009 17.4267ZM143.719 21.7693C144.003 21.7738 144.286 21.7173 144.548 21.6036C144.811 21.4899 145.047 21.3214 145.242 21.1088C145.447 20.9059 145.609 20.663 145.72 20.3945C145.831 20.1259 145.888 19.8373 145.888 19.5457C145.888 19.2541 145.831 18.9655 145.72 18.697C145.609 18.4284 145.447 18.1855 145.242 17.9826C144.991 17.726 144.681 17.537 144.342 17.4322C144.002 17.3275 143.642 17.3102 143.294 17.382C142.946 17.4538 142.621 17.6123 142.347 17.8437C142.073 18.0751 141.859 18.3722 141.724 18.7086C141.588 19.0451 141.536 19.4105 141.571 19.7727C141.606 20.1349 141.727 20.4827 141.924 20.7853C142.122 21.0879 142.389 21.336 142.702 21.5076C143.014 21.6792 143.364 21.7691 143.719 21.7693Z" fill="#FCEE23"/>
<path d="M173.377 14.6328V18.719L172.088 20.8832L173.23 22.7909L173.084 26.0525H164.558C164.216 22.9812 164.079 19.8895 164.148 16.799C163.35 17.4063 162.797 18.2944 162.597 19.2934C162.401 21.5454 162.401 23.8108 162.597 26.0628L154.891 26.7684C154.113 21.3514 153.746 15.8804 153.794 10.405C153.814 8.2607 153.902 6.11706 154.058 3.97412L154.072 3.65822L156.385 3.45308L161.185 3.18231H161.215L162.593 3.15153C162.837 6.12732 162.954 8.8419 162.945 11.2953C163.697 10.9247 164.17 10.1582 164.366 8.99576C164.562 7.83335 164.629 5.90989 164.566 3.22539L173.092 3.66027C173.268 7.12564 173.365 10.7872 173.385 14.6451L173.377 14.6328ZM188.314 2.3105L189.15 3.24179C190.263 4.60934 191.318 6.0316 192.313 7.50855L192.547 7.85317C193.621 9.46133 194.585 11.1433 195.433 12.8871C196.253 14.5897 197.015 16.3374 197.719 18.1303L198.261 19.437L197.967 19.9929C195.834 23.6853 193.509 26.2296 190.994 27.6259L189.69 25.7633C189.776 24.1149 189.668 22.4619 189.368 20.8401C188.67 20.648 187.952 20.5419 187.23 20.5242L186.18 18.2349L185.096 20.5796C184.184 20.7632 183.295 21.0508 182.445 21.437C182.318 22.7971 182.386 24.1688 182.645 25.5089C182.134 26.2835 181.494 26.9598 180.755 27.5069C178.156 25.9028 175.971 23.6818 174.383 21.0309C176.429 16.4664 179.078 12.2124 182.255 8.38857C184.094 6.18207 186.122 4.14802 188.314 2.3105ZM183.596 22.0032C185.55 21.4822 187.112 21.2968 188.284 21.4473C188.641 22.8208 188.719 24.2549 188.514 25.6607C187.161 26.3444 185.685 26.7334 184.178 26.8033C183.621 24.752 183.43 23.154 183.606 22.0094L183.596 22.0032ZM38.0217 2.31666L39.6615 4.11976C41.1539 5.88251 42.4828 7.78411 43.6311 9.79988C44.7443 11.7552 45.6711 13.8161 46.3988 15.9538V15.9785L46.4128 16.0092L46.4428 16.0851L46.8088 17.2564C47.0233 18.4669 47.0429 19.7052 46.8668 20.9221C45.4216 23.9307 43.2218 26.0546 40.2675 27.2935L39.4036 26.2125C39.347 24.2778 39.1262 22.3519 38.7436 20.4565L37.0298 20.2308L35.8699 18.2349L34.7121 20.6698C33.9224 20.7791 33.1495 20.9914 32.4123 21.3016C32.3209 22.5468 32.3109 23.7968 32.3823 25.0433C31.9294 26.0086 31.2623 26.8516 30.4345 27.5048C27.8375 25.9033 25.6565 23.6815 24.0772 21.0288C25.274 18.3851 26.6645 15.8383 28.2367 13.4102C29.0866 12.0911 30.001 10.8169 30.9765 9.59269L31.2264 9.27679C32.5451 7.61435 33.9694 6.04304 35.49 4.57311C36.3006 3.79224 37.1405 3.03599 38.0097 2.30435L38.0217 2.31666ZM49.4085 6.36186C49.5058 6.08835 50.3991 5.46748 52.0882 4.49925C53.7774 3.53103 56.4631 3.17069 60.1454 3.41821C61.695 3.92664 63.1091 4.7958 64.277 5.95775L64.3949 6.09313C65.3414 7.13782 66.0671 8.37185 66.5267 9.71782C66.8023 10.515 67.013 11.3342 67.1567 12.1671V12.1815L67.3326 13.6174C66.746 16.3921 65.5202 18.1802 63.655 18.9816L62.6731 19.4329L63.1131 20.3642C63.673 21.5192 64.0915 22.7408 64.3589 24.0012C63.0258 27.0563 60.5893 28.644 57.0497 28.7644C54.2953 28.4744 51.9909 27.5725 50.1364 26.0587C49.8663 25.8425 49.6116 25.6067 49.3745 25.353L48.6126 24.5325C48.1247 21.1861 48.1147 17.1942 48.5826 12.5569C48.7679 10.6532 49.0346 8.63951 49.3825 6.51571L49.4125 6.36596L49.4085 6.36186ZM56.6338 15.082V18.5385L57.0337 18.5693C57.5509 18.5803 58.0523 18.3863 58.4336 18.0277C58.6238 17.8883 58.7779 17.7033 58.8825 17.4887C58.9871 17.2742 59.0389 17.0367 59.0335 16.7969C59.0326 16.5583 58.978 16.323 58.8739 16.1095C58.7699 15.8961 58.6192 15.7101 58.4336 15.5661C58.0404 15.2332 57.5434 15.057 57.0337 15.0697L56.6338 15.0841V15.082ZM69.1144 11.8389C68.9944 11.0965 68.8233 10.3637 68.6025 9.64603C68.1533 8.12794 67.4279 6.71082 66.4647 5.46954C68.5352 3.88728 71.1349 2.94093 74.2639 2.6305L74.7618 2.58538L74.7918 2.6305C75.8381 4.60739 76.9974 6.51914 78.2635 8.35575C79.7065 6.54721 80.9219 4.55959 81.8811 2.43973C84.0302 2.93068 85.788 3.6719 87.1545 4.66337L87.1845 4.69413L87.2865 4.73927C88.0678 5.33005 88.8097 5.93587 89.5123 6.55674L88.7364 8.7496L87.4345 11.8758L87.4045 11.9353C84.604 18.3857 80.8815 24.3716 76.3597 29.6957C73.264 27.9425 70.7309 25.874 68.7605 23.4904L74.0479 17.4657L73.096 16.8195C71.0749 15.4875 69.747 13.8348 69.1124 11.8615V11.8307L69.1144 11.8389ZM14.7522 2.80487C19.0397 3.03462 21.9061 5.24321 23.3513 9.43064L23.8192 11.084L23.9372 11.6091L24.1132 12.4953L23.9372 14.0871C23.8207 14.8736 23.623 15.6452 23.3473 16.3887C22.8222 17.8536 21.8776 19.1214 20.6375 20.0257C21.1948 21.5683 21.1902 23.1813 20.6235 24.8648C19.229 27.2183 17.0899 28.3855 14.2062 28.3664C10.2413 27.926 7.47293 26.4532 5.9011 23.9478C5.03093 18.4875 4.99113 12.9219 5.78311 7.44906L6.14907 6.90752C7.87156 4.47602 10.7179 3.11393 14.6882 2.82127H14.7462L14.7522 2.80487ZM13.5463 15.082V18.5385L13.9263 18.5693C14.4449 18.5803 14.9479 18.3873 15.3321 18.0298C15.519 17.8881 15.6699 17.7022 15.7719 17.4879C15.8739 17.2737 15.924 17.0373 15.918 16.799C15.9179 16.5617 15.865 16.3275 15.7635 16.1143C15.662 15.901 15.5145 15.7143 15.3321 15.5682C14.9381 15.2369 14.4416 15.0609 13.9323 15.0718L13.5523 15.0861L13.5463 15.082ZM15.2361 21.3816C14.9087 21.0993 14.4918 20.9497 14.0642 20.9611L13.7123 20.9919V23.9376L14.0642 23.9519C14.497 23.962 14.9168 23.8003 15.2361 23.5007C15.4016 23.3832 15.5363 23.2257 15.6283 23.0422C15.7204 22.8587 15.767 22.6547 15.7641 22.4483C15.7639 22.2405 15.716 22.0356 15.6243 21.8503C15.5326 21.665 15.3996 21.5044 15.2361 21.3816ZM56.8097 20.9919V23.9376L57.1457 23.9519C57.5823 23.9601 58.0058 23.7989 58.3316 23.5007C58.4934 23.3807 58.6246 23.2223 58.7137 23.0391C58.8029 22.8558 58.8474 22.6531 58.8435 22.4483C58.8442 22.2421 58.7983 22.0385 58.7095 21.8534C58.6206 21.6684 58.4913 21.5069 58.3316 21.3816C57.9983 21.1001 57.5774 20.9508 57.1457 20.9611L56.8097 20.9919ZM37.8117 21.517C38.1916 22.8628 38.3272 24.2687 38.2117 25.6648C36.8528 26.3474 35.3717 26.7364 33.8602 26.8074C33.3029 24.7561 33.1176 23.1581 33.3042 22.0134C35.296 21.6634 36.7998 21.4979 37.8157 21.517H37.8117ZM127.714 9.9168C128.32 12.7011 127.636 15.4157 125.663 18.0606C126.256 19.9976 127.2 21.8022 128.446 23.3796C126.719 25.3535 124.623 26.9522 122.283 28.0813C121.166 26.64 120.175 25.1011 119.321 23.4822C119.104 24.6081 118.719 25.6929 118.179 26.6987C115.867 26.8519 113.545 26.7142 111.266 26.2884C110.963 26.0778 110.758 25.4815 110.65 24.4996V11.5763L110.664 11.5456L110.738 3.5659C113.658 3.09547 116.797 3.2206 120.157 3.9413C123.517 4.662 125.978 6.45006 127.54 9.3055L127.702 9.90655L127.714 9.9168ZM129.226 10.0276C130.603 7.53316 132.254 5.68697 134.178 4.489C136.043 3.32559 138.195 2.73607 140.377 2.79051C143.014 2.92727 145.236 3.55838 147.042 4.68388C149.103 5.96664 150.632 7.89967 151.628 10.483L151.964 11.4594L152.11 11.9394C152.716 13.8035 152.716 15.819 152.11 17.6831C150.41 23.6839 146.426 26.8894 140.157 27.2997C134.991 27.3599 131.207 23.9841 128.804 17.1723C128.199 14.4878 128.321 12.1391 129.17 10.126L129.228 10.0358L129.226 10.0276ZM90.0123 4.3249C93.0034 3.67806 96.108 3.85427 99.0113 4.83567L99.2893 12.4092L101.559 8.36806C102.408 6.77486 103.131 5.31227 103.727 3.98028C105.577 5.15816 107.271 6.5772 108.766 8.2019L109.044 8.48702L109.484 9.01216L108.82 10.8502L108.732 11.1066C107.637 13.5517 106.379 15.9163 104.967 18.1836C106.051 19.9614 107.09 21.3488 108.086 22.3458C105.889 25.1 103.711 27.1082 101.553 28.3705C100.586 27.8235 99.8832 27.2423 99.4433 26.6269C99.3135 25.8068 99.1223 24.9983 98.8713 24.2084L97.9234 25.7222C95.3714 26.2432 92.7458 26.2585 90.1882 25.7674C89.3733 21.4175 89.0731 16.9826 89.2943 12.5589L90.0123 4.3249ZM119.009 17.4267C118.956 18.485 119.092 19.5444 119.409 20.5529L119.643 20.2226C120.101 19.7354 120.606 19.2976 121.151 18.916C120.478 17.8219 119.77 17.2161 119.027 17.0985L119.013 17.4287L119.009 17.4267ZM143.719 21.7693C144.003 21.7738 144.286 21.7173 144.548 21.6036C144.811 21.4899 145.047 21.3214 145.242 21.1088C145.447 20.9059 145.609 20.663 145.72 20.3945C145.831 20.1259 145.888 19.8373 145.888 19.5457C145.888 19.2541 145.831 18.9655 145.72 18.697C145.609 18.4284 145.447 18.1855 145.242 17.9826C144.991 17.726 144.681 17.537 144.342 17.4322C144.002 17.3275 143.642 17.3102 143.294 17.382C142.946 17.4538 142.621 17.6123 142.347 17.8437C142.073 18.0751 141.859 18.3722 141.724 18.7086C141.588 19.0451 141.536 19.4105 141.571 19.7727C141.606 20.1349 141.727 20.4827 141.924 20.7853C142.122 21.0879 142.389 21.336 142.702 21.5076C143.014 21.6792 143.364 21.7691 143.719 21.7693Z" stroke="black" stroke-width="4" mask="url(#path-1-outside-1)"/>
</g>
<defs>
<clipPath id="clip0">
<rect width="202" height="32" fill="white"/>
</clipPath>
</defs>
</svg>
