<svg width="30" height="30" viewBox="0 0 30 30" fill="none" xmlns="http://www.w3.org/2000/svg">
<path d="M20.2734 0H15H9.72656C8.27033 0 7.08984 1.23908 7.08984 2.69531C7.08984 4.15154 8.27033 5.33203 9.72656 5.33203L11.4844 6.21094H15H18.0994L20.2734 5.33203C21.7297 5.33203 22.9102 4.15154 22.9102 2.69531C22.9102 1.23908 21.7297 0 20.2734 0Z" fill="#ADF2F5"/>
<path d="M20.2734 5.33203C21.7297 5.33203 22.9102 4.15154 22.9102 2.69531C22.9102 1.23908 21.7297 0 20.2734 0H15V6.21094H18.0994L20.2734 5.33203Z" fill="#83B3F1"/>
<path d="M23.3424 5.55422L19.3018 8.36186L17.9723 5.33203H15H12.028L10.0733 8.45455L6.6576 5.55422C4.87734 6.11602 3.57422 7.7632 3.57422 9.72656C3.57422 13.5683 4.1424 16.0652 5.27455 21.0399C5.62646 22.5865 6.03586 24.3847 6.50367 26.5519L15 26.5464L23.5702 26.5408C24.0423 23.8345 24.5453 21.6802 24.989 19.7799C25.7915 16.3407 26.4258 13.625 26.4258 9.72656C26.4258 7.7632 25.1227 6.11602 23.3424 5.55422Z" fill="#83B3F1"/>
<path d="M24.989 19.7799C25.7915 16.3407 26.4258 13.625 26.4258 9.72656C26.4258 7.7632 25.1227 6.11602 23.3424 5.55422L19.3018 8.36186L17.9723 5.33203H15V26.5464L23.5702 26.5408C24.0422 23.8345 24.5452 21.6802 24.989 19.7799Z" fill="#554FB2"/>
<path d="M17.1046 15.4858L12.028 5.33203H7.96878C7.50917 5.33203 7.07428 5.42268 6.65762 5.55422L12.456 17.1509L17.1046 15.4858Z" fill="#E64552"/>
<path d="M22.0312 5.33203H17.9723L15 11.2767L12.4559 16.3647L12.849 17.544L15 17.3639L17.544 17.1509L23.3424 5.55422C22.9257 5.42268 22.4908 5.33203 22.0312 5.33203Z" fill="#FF7733"/>
<path d="M23.3424 5.55422C22.9257 5.42268 22.4909 5.33203 22.0312 5.33203H17.9723L15 11.2767V17.3639L17.544 17.1509L23.3424 5.55422Z" fill="#E64552"/>
<path d="M24.668 22.9102C24.0328 22.9102 23.3221 23.129 22.3394 23.432C20.646 23.953 18.3277 24.6671 15.0086 24.668C15.006 24.668 15.0035 24.668 15.0009 24.668C15.0006 24.668 15.0004 24.668 15 24.668C11.6771 24.6677 9.35654 23.9538 7.66148 23.432C6.67787 23.129 5.96719 22.9102 5.33203 22.9102C3.39311 22.9102 1.81641 24.4869 1.81641 26.4258C1.81641 28.3647 3.39311 30 5.33203 30H12.3633L14.1211 28.2422H15H15.8789L17.6367 30H24.668C26.6069 30 28.1836 28.3647 28.1836 26.4258C28.1836 24.4869 26.6069 22.9102 24.668 22.9102Z" fill="#ADF2F5"/>
<path d="M17.6367 30H24.668C26.6069 30 28.1836 28.3647 28.1836 26.4258C28.1836 24.4869 26.6069 22.9102 24.668 22.9102C24.0328 22.9102 23.3221 23.129 22.3394 23.432C20.646 23.953 18.3277 24.6671 15.0086 24.668C15.006 24.668 15.0035 24.668 15.0009 24.668C15.0006 24.668 15.0004 24.668 15 24.668V28.2422H15.8789L17.6367 30Z" fill="#83B3F1"/>
<path d="M15 20.2734H12.3633V30H15H17.6367V20.2734H15Z" fill="#FF7733"/>
<path d="M15 20.2734H17.6367V30H15V20.2734Z" fill="#E64552"/>
<path d="M16.7578 15.8789H15H13.2422C12.7568 15.8789 12.3633 16.2724 12.3633 16.7578V20.2734C12.3633 20.7588 12.7568 21.1523 13.2422 21.1523H15H16.7578C17.2432 21.1523 17.6367 20.7588 17.6367 20.2734V16.7578C17.6367 16.2724 17.2432 15.8789 16.7578 15.8789Z" fill="#FFF2F2"/>
<path d="M17.6367 20.2734V16.7578C17.6367 16.2724 17.2432 15.8789 16.7578 15.8789H15V21.1523H16.7578C17.2432 21.1523 17.6367 20.7588 17.6367 20.2734Z" fill="#E6CFCF"/>
</svg>
