<svg width="30" height="30" viewBox="0 0 30 30" fill="none" xmlns="http://www.w3.org/2000/svg">
<g clip-path="url(#clip0)">
<path d="M23.9062 29.9775H6.37031C5.7733 29.9775 5.34873 29.3936 5.53535 28.825C6.78767 24.9987 10.5327 22.1251 15 22.0685C19.6107 22.0097 23.4688 24.9373 24.7412 28.825C24.9275 29.3927 24.5045 29.9775 23.9062 29.9775Z" fill="#928BFF"/>
<path d="M23.9062 29.9775H15V22.0685C19.5795 22.0101 23.4591 24.9078 24.7412 28.825C24.9275 29.3927 24.5045 29.9775 23.9062 29.9775Z" fill="#736DD9"/>
<path d="M24.8438 10.8174C23.5224 10.8174 22.2714 11.2244 21.321 11.9636C19.2316 13.5887 19.2068 16.347 21.321 17.9915C22.2714 18.7306 23.5224 19.1377 24.8438 19.1377C27.6869 19.1377 30 17.2714 30 14.9775C30 12.6836 27.6869 10.8174 24.8438 10.8174Z" fill="#FFBA84"/>
<path d="M8.67896 11.9636C7.72863 11.2244 6.4776 10.8174 5.15625 10.8174C2.31311 10.8174 0 12.6836 0 14.9775C0 17.2714 2.31311 19.1377 5.15625 19.1377C6.4776 19.1377 7.72863 18.7306 8.67896 17.9915C10.7684 16.3664 10.7932 13.608 8.67896 11.9636Z" fill="#FCD0A2"/>
<path d="M15 26.1689C21.1808 26.1689 26.1914 21.1584 26.1914 14.9775C26.1914 8.79667 21.1808 3.7861 15 3.7861C8.81916 3.7861 3.80859 8.79667 3.80859 14.9775C3.80859 21.1584 8.81916 26.1689 15 26.1689Z" fill="#FFE3C0"/>
<path d="M26.1914 14.9775C26.1914 21.1486 21.1711 26.1689 15 26.1689V3.7861C21.1711 3.7861 26.1914 8.80642 26.1914 14.9775Z" fill="#FCD0A2"/>
<path d="M11.5993 13.9418C11.0268 13.3693 10.1003 13.3692 9.5277 13.9418C9.18451 14.285 8.62799 14.285 8.28475 13.9418C7.9415 13.5985 7.9415 13.0421 8.28475 12.6988C9.54416 11.4394 11.5827 11.4392 12.8423 12.6988C13.1855 13.0421 13.1855 13.5985 12.8423 13.9418C12.499 14.2849 11.9426 14.285 11.5993 13.9418Z" fill="#554FB2"/>
<path d="M20.5055 13.9418C19.9331 13.3693 19.0065 13.3692 18.4339 13.9418C18.0908 14.285 17.5342 14.285 17.191 13.9418C16.8478 13.5985 16.8478 13.0421 17.191 12.6988C18.4504 11.4394 20.4889 11.4392 21.7485 12.6988C22.0917 13.0421 22.0917 13.5985 21.7485 13.9418C21.4053 14.2849 20.8488 14.285 20.5055 13.9418Z" fill="#2B4478"/>
<path d="M17.9414 19.8179C16.3196 21.4398 13.6805 21.4399 12.0586 19.8179C11.7152 19.4746 11.7152 18.9179 12.058 18.5746C12.4014 18.2318 12.958 18.2318 13.3014 18.5746C14.2384 19.5116 15.7622 19.511 16.6986 18.5746C17.042 18.2318 17.5986 18.2318 17.942 18.5746C18.2848 18.9179 18.2848 19.4746 17.9414 19.8179Z" fill="#FF6888"/>
<path d="M17.9414 19.8179C17.1305 20.6289 16.0652 21.0343 15 21.0343V19.2771C15.6152 19.2771 16.2305 19.0427 16.6986 18.5746C17.042 18.2318 17.5986 18.2318 17.942 18.5746C18.2848 18.9179 18.2848 19.4746 17.9414 19.8179Z" fill="#FF515E"/>
<path d="M22.1954 0.0621848L14.9576 2.32396L7.71979 0.0621848C7.1543 -0.114534 6.57874 0.30863 6.57874 0.901072V7.93232C6.57874 8.41994 6.97459 8.81123 7.4577 8.81123C7.6493 8.81123 7.03594 8.98496 14.9576 6.50943C22.807 8.96234 22.2647 8.81123 22.4576 8.81123C22.9402 8.81123 23.3365 8.42041 23.3365 7.93232V0.901072C23.3365 0.307283 22.7596 -0.1143 22.1954 0.0621848Z" fill="#FF6888"/>
<path d="M22.1954 8.77121C22.7616 8.94804 23.3365 8.52423 23.3365 7.93232V0.901071C23.3365 0.307282 22.7596 -0.1143 22.1954 0.0621848L14.9577 2.32396V6.50937L22.1954 8.77121Z" fill="#FF515E"/>
<path d="M14.9576 1.42932C13.1807 1.42932 11.735 2.87501 11.735 4.65198C11.735 6.42896 13.1807 7.87464 14.9576 7.87464C16.7346 7.87464 18.1803 6.42896 18.1803 4.65198C18.1803 2.87501 16.7346 1.42932 14.9576 1.42932Z" fill="#FEF77D"/>
<path d="M18.1803 4.65198C18.1803 2.87501 16.7346 1.42932 14.9577 1.42932V7.87464C16.7346 7.87464 18.1803 6.42896 18.1803 4.65198Z" fill="#F4DE48"/>
</g>
<defs>
<clipPath id="clip0">
<rect width="30" height="30" fill="white"/>
</clipPath>
</defs>
</svg>
