<svg width="30" height="30" viewBox="0 0 30 30" fill="none" xmlns="http://www.w3.org/2000/svg">
<g opacity="0.3" clip-path="url(#clip0)">
<path d="M25.4012 19.1356C27.983 18.9105 29.9998 17.1417 29.9998 14.9999C29.9998 12.858 27.983 11.0892 25.4012 10.8641C24.4002 8.34925 22.507 6.26872 20.0946 5.03352C20.0302 2.28063 17.7865 0 14.9999 0C12.2154 0 9.96965 2.27811 9.90526 5.03357C7.49273 6.26878 5.59953 8.34937 4.59864 10.8642C2.01678 11.0892 0 12.858 0 14.9999C0 17.1419 2.01707 18.9108 4.59916 19.1356C5.4316 21.2221 6.89585 23.0293 8.75648 24.2867C7.24606 25.4744 6.12259 27.0543 5.53507 28.8472C5.3839 29.3084 5.63533 29.8049 6.09657 29.9561C6.55782 30.1072 7.05428 29.8557 7.20545 29.3946C7.76021 27.7017 8.90665 26.2374 10.4561 25.2292C13.4488 26.563 16.837 26.4834 19.7048 25.1553C21.3135 26.1648 22.501 27.6552 23.0708 29.3945C23.222 29.8558 23.7183 30.1071 24.1797 29.9561C24.641 29.8049 24.8924 29.3085 24.7413 28.8472C24.1357 26.9991 22.9673 25.3841 21.3922 24.1871C23.1308 22.977 24.5663 21.2386 25.4012 19.1356ZM28.242 14.9999C28.242 16.0266 27.2742 16.9272 25.9619 17.2626C26.2674 15.7765 26.268 14.2264 25.9619 12.7372C27.2742 13.0725 28.242 13.9732 28.242 14.9999ZM14.9999 1.7578C16.6916 1.7578 18.0936 3.04421 18.3105 4.70627C16.2087 4.88691 14.4674 6.33944 13.8717 8.30191C12.5691 7.83867 11.6601 6.59889 11.6601 5.15615C11.6601 3.28234 13.1583 1.7578 14.9999 1.7578ZM1.7578 14.9999C1.7578 13.9732 2.72558 13.0725 4.0379 12.7372C3.73239 14.2232 3.73175 15.7734 4.0379 17.2625C2.72558 16.9272 1.7578 16.0266 1.7578 14.9999ZM19.3402 23.378C14.2837 26.0043 7.99113 23.6035 6.05099 17.9919C4.64159 13.7755 6.37337 9.14407 10.1999 6.87803C10.8414 8.67573 12.4616 10.0148 14.4612 10.2252C14.9453 10.2761 15.3782 9.92389 15.4276 9.44049C15.6107 7.64848 17.1764 6.31811 19.0025 6.45598C23.2983 8.4713 25.4774 13.4184 23.9487 17.9919C23.0991 20.4553 21.3934 22.3122 19.3402 23.378Z" fill="#18192E"/>
<path d="M12.8423 13.9641C13.1856 13.6209 13.1856 13.0644 12.8423 12.7212C11.5829 11.4618 9.54437 11.4616 8.28478 12.7212C7.94153 13.0644 7.94153 13.6209 8.28478 13.9641C8.62796 14.3074 9.18448 14.3074 9.52772 13.9641C10.1002 13.3917 11.0268 13.3916 11.5993 13.9641C11.9425 14.3073 12.499 14.3074 12.8423 13.9641Z" fill="#18192E"/>
<path d="M21.7483 12.7211C20.4889 11.4617 18.4504 11.4615 17.1908 12.7211C16.8475 13.0644 16.8475 13.6208 17.1908 13.9641C17.534 14.3073 18.0905 14.3073 18.4337 13.9641C19.0063 13.3916 19.9328 13.3915 20.5053 13.9641C20.8485 14.3073 21.405 14.3074 21.7483 13.9641C22.0916 13.6209 22.0916 13.0644 21.7483 12.7211Z" fill="#18192E"/>
<path d="M16.6986 18.5971C15.7619 19.5338 14.2378 19.5338 13.3011 18.5971C12.9579 18.2539 12.4014 18.2539 12.0582 18.5971C11.715 18.9404 11.715 19.4968 12.0582 19.8401C13.6802 21.4621 16.3195 21.4621 17.9415 19.8401C18.2847 19.4968 18.2847 18.9404 17.9415 18.5971C17.5982 18.2539 17.0418 18.2539 16.6986 18.5971Z" fill="#18192E"/>
</g>
<defs>
<clipPath id="clip0">
<rect width="30" height="30" fill="white"/>
</clipPath>
</defs>
</svg>
