<svg width="30" height="30" viewBox="0 0 30 30" fill="none" xmlns="http://www.w3.org/2000/svg">
<g opacity="0.3" clip-path="url(#clip0)">
<path d="M25.3986 19.136C27.9815 18.9118 29.9994 17.1427 29.9994 15.0002C29.9994 12.8588 27.9835 11.0903 25.4024 10.8647C24.9283 9.67211 24.2469 8.5622 23.3785 7.58266V0.879496C23.3785 0.283381 22.7968 -0.139595 22.2301 0.0429776L16.5605 1.86988C15.6037 1.33786 14.4226 1.3231 13.4392 1.86988L7.76961 0.0429776C7.20098 -0.140181 6.62115 0.285256 6.62115 0.879496V7.58272C5.76588 8.54926 5.07578 9.66918 4.59884 10.8645C2.01698 11.0895 0.000244141 12.8583 0.000244141 15.0002C0.000244141 17.142 2.01681 18.9107 4.59849 19.1358C5.4486 21.2781 6.91534 23.055 8.75279 24.2898C7.24428 25.4774 6.12218 27.0561 5.5352 28.8472C5.34847 29.4171 5.77531 30 6.37055 30C6.74015 30 7.0842 29.7649 7.20555 29.3946C7.76 27.7025 8.90606 26.2386 10.4549 25.2301C13.3797 26.5278 16.7619 26.5211 19.7021 25.154C21.3121 26.1634 22.5004 27.6545 23.0706 29.3946C23.1919 29.765 23.5359 30 23.9056 30C24.5016 30 24.9274 29.4163 24.7409 28.8473C24.1348 26.9975 22.9648 25.3812 21.3874 24.1838C23.1733 22.9379 24.5806 21.1855 25.3986 19.136ZM28.2417 15.0002C28.2417 16.0271 27.2736 16.9278 25.961 17.2629C26.2568 15.828 26.2783 14.2827 25.9612 12.7374C27.2737 13.0726 28.2417 13.9734 28.2417 15.0002ZM17.9005 3.28488L21.6208 2.08608V6.77368L18.0709 5.6643C18.3134 4.90325 18.271 4.04774 17.9005 3.28488ZM16.4647 4.68798C16.4647 5.03836 16.3393 5.36911 16.1268 5.62258C15.5394 6.32955 14.4602 6.32932 13.873 5.6227C13.6651 5.37503 13.5351 5.0451 13.5351 4.68798C13.5351 3.88029 14.1922 3.22318 14.9999 3.22318C15.8076 3.22318 16.4647 3.88029 16.4647 4.68798ZM8.37897 2.08608L12.0993 3.28488C11.7429 4.01862 11.6765 4.87237 11.9289 5.66436L8.37897 6.77374V2.08608ZM1.75806 15.0002C1.75806 13.9735 2.72583 13.0729 4.03812 12.7375C3.73262 14.2235 3.73197 15.7737 4.03812 17.2628C2.72583 16.9275 1.75806 16.0269 1.75806 15.0002ZM14.9999 24.4335C13.5082 24.4335 12.0796 24.0844 10.8049 23.4524C10.7935 23.4465 10.782 23.4407 10.7703 23.4353C5.25589 20.6735 3.82619 13.4028 7.93062 8.75538L12.9628 7.18283C14.1494 8.15352 15.8504 8.15352 17.037 7.18283L22.0693 8.75544C23.5957 10.4809 24.4332 12.6861 24.4332 15.0002C24.4332 20.2017 20.2014 24.4335 14.9999 24.4335Z" fill="#18192E"/>
<path d="M12.8422 13.9644C13.1854 13.6212 13.1854 13.0647 12.8422 12.7215C11.5828 11.4621 9.54432 11.462 8.28477 12.7215C7.94154 13.0647 7.94154 13.6212 8.28477 13.9644C8.62794 14.3077 9.18445 14.3077 9.52768 13.9644C10.1002 13.392 11.0267 13.3919 11.5992 13.9644C11.9424 14.3075 12.4989 14.3077 12.8422 13.9644Z" fill="#18192E"/>
<path d="M21.7484 12.7215C20.4891 11.4621 18.4506 11.4619 17.191 12.7215C16.8478 13.0647 16.8478 13.6211 17.191 13.9644C17.5342 14.3076 18.0907 14.3076 18.4339 13.9644C19.0064 13.3919 19.933 13.3919 20.5055 13.9644C20.8486 14.3075 21.4051 14.3077 21.7484 13.9644C22.0916 13.6212 22.0916 13.0647 21.7484 12.7215Z" fill="#18192E"/>
<path d="M16.6987 18.5973C15.762 19.534 14.238 19.534 13.3013 18.5973C12.9581 18.2541 12.4016 18.2541 12.0584 18.5973C11.7152 18.9405 11.7152 19.497 12.0584 19.8402C13.6804 21.4622 16.3196 21.4622 17.9416 19.8402C18.2848 19.497 18.2848 18.9405 17.9416 18.5973C17.5984 18.2541 17.0419 18.2541 16.6987 18.5973Z" fill="#18192E"/>
</g>
<defs>
<clipPath id="clip0">
<rect width="30" height="30" fill="white"/>
</clipPath>
</defs>
</svg>
