<svg width="30" height="30" viewBox="0 0 30 30" fill="none" xmlns="http://www.w3.org/2000/svg">
<g opacity="0.3" clip-path="url(#clip0)">
<path d="M5.33203 30H24.668C26.6065 30 28.1836 28.4229 28.1836 26.4844C28.1836 24.5459 26.6065 22.9688 24.668 22.9688C24.54 22.9688 24.4087 22.978 24.273 22.9947C24.5089 21.8927 24.7414 20.8862 24.9684 19.9042C25.7827 16.3813 26.4258 13.5988 26.4258 9.66797C26.4258 7.37807 24.665 5.4927 22.4265 5.29207C22.7333 4.77035 22.9102 4.16344 22.9102 3.51562C22.9102 1.57711 21.333 0 19.3945 0H10.6055C8.66695 0 7.08984 1.57711 7.08984 3.51562C7.08984 4.16344 7.26668 4.77035 7.57354 5.29207C5.33496 5.4927 3.57422 7.37807 3.57422 9.66797C3.57422 13.5783 4.16379 16.1827 5.3383 21.3711C5.45232 21.8749 5.57525 22.4179 5.70434 22.9917C5.5766 22.9768 5.45291 22.9688 5.33203 22.9688C3.39352 22.9688 1.81641 24.5459 1.81641 26.4844C1.81641 28.4229 3.39352 30 5.33203 30ZM13.2422 14.7339L9.39088 7.03125H10.9412L14.0174 13.1836L13.2422 14.7339ZM12.9065 7.03125H17.0936L15 11.2183L12.9065 7.03125ZM15.8789 28.2422H14.1211V21.0938H15.8789V28.2422ZM15.8789 19.3359H14.1211V17.5781H15.8789V19.3359ZM14.6643 15.8203L19.0588 7.03125H20.6092L16.2146 15.8203H14.6643ZM24.668 24.7266C25.6372 24.7266 26.4258 25.5151 26.4258 26.4844C26.4258 27.4536 25.6372 28.2422 24.668 28.2422H17.6367V26.3383C19.8775 26.087 21.5784 25.5637 22.8564 25.1702C23.4277 24.9943 24.2673 24.7266 24.668 24.7266ZM22.5488 7.08258C23.7557 7.32375 24.668 8.39121 24.668 9.66797C24.668 13.3983 24.0448 16.0946 23.2557 19.5084C22.9832 20.6875 22.6781 22.0082 22.3752 23.4792C22.3631 23.4829 22.3513 23.4865 22.3391 23.4903C21.1696 23.8504 19.625 24.3257 17.6367 24.5684C17.6367 23.0007 17.6367 18.4893 17.6367 16.9068L22.5488 7.08258ZM10.6055 1.75781H19.3945C20.3638 1.75781 21.1523 2.54637 21.1523 3.51562C21.1523 4.48488 20.3638 5.27344 19.3945 5.27344H10.6055C9.63621 5.27344 8.84766 4.48488 8.84766 3.51562C8.84766 2.54637 9.63621 1.75781 10.6055 1.75781ZM5.33203 9.66797C5.33203 8.39121 6.24434 7.32375 7.45119 7.08258L12.3633 16.9067V24.5683C10.3751 24.3256 8.83043 23.8503 7.6609 23.4902C7.64508 23.4854 7.62996 23.4807 7.61426 23.4759C7.41264 22.5732 7.22303 21.7353 7.0527 20.983C5.87127 15.7639 5.33203 13.3819 5.33203 9.66797ZM5.33203 24.7266C5.7027 24.7266 6.37049 24.9322 7.14363 25.1702C8.4215 25.5637 10.1225 26.087 12.3633 26.3383V28.2422H5.33203C4.36277 28.2422 3.57422 27.4536 3.57422 26.4844C3.57422 25.5151 4.36277 24.7266 5.33203 24.7266Z" fill="#18192E"/>
</g>
<defs>
<clipPath id="clip0">
<rect width="30" height="30" fill="white"/>
</clipPath>
</defs>
</svg>
