<svg width="30" height="30" viewBox="0 0 30 30" fill="none" xmlns="http://www.w3.org/2000/svg">
<path d="M23.9062 30H6.37031C5.7733 30 5.34873 29.4161 5.53535 28.8475C6.78767 25.0212 10.5327 22.1476 15 22.091C19.6107 22.0322 23.4688 24.9598 24.7412 28.8475C24.9275 29.4152 24.5045 30 23.9062 30Z" fill="#FF6888"/>
<path d="M23.9062 30H15V22.091C19.5795 22.0326 23.4591 24.9303 24.7412 28.8475C24.9275 29.4152 24.5045 30 23.9062 30Z" fill="#FF515E"/>
<path d="M24.8438 10.8398C23.5224 10.8398 22.2714 11.2469 21.321 11.9861C19.2316 13.6112 19.2068 16.3695 21.321 18.0139C22.2714 18.7531 23.5224 19.1602 24.8438 19.1602C27.6869 19.1602 30 17.2939 30 15C30 12.7061 27.6869 10.8398 24.8438 10.8398Z" fill="#FFBA84"/>
<path d="M8.67896 11.9861C7.72863 11.2469 6.4776 10.8398 5.15625 10.8398C2.31311 10.8398 0 12.7061 0 15C0 17.2939 2.31311 19.1602 5.15625 19.1602C6.4776 19.1602 7.72863 18.7531 8.67896 18.0139C10.7684 16.3888 10.7932 13.6305 8.67896 11.9861Z" fill="#FCD0A2"/>
<path d="M15 26.1914C21.1808 26.1914 26.1914 21.1808 26.1914 15C26.1914 8.81916 21.1808 3.80859 15 3.80859C8.81916 3.80859 3.80859 8.81916 3.80859 15C3.80859 21.1808 8.81916 26.1914 15 26.1914Z" fill="#FFE3C0"/>
<path d="M26.1914 15C26.1914 21.1711 21.1711 26.1914 15 26.1914V3.80859C21.1711 3.80859 26.1914 8.82891 26.1914 15Z" fill="#FCD0A2"/>
<path d="M11.5993 13.9642C11.0268 13.3917 10.1003 13.3917 9.5277 13.9642C9.18451 14.3074 8.62799 14.3074 8.28475 13.9642C7.9415 13.6209 7.9415 13.0645 8.28475 12.7212C9.54416 11.4618 11.5827 11.4616 12.8423 12.7212C13.1855 13.0645 13.1855 13.6209 12.8423 13.9642C12.499 14.3074 11.9426 14.3075 11.5993 13.9642Z" fill="#554FB2"/>
<path d="M20.5055 13.9642C19.9331 13.3917 19.0065 13.3917 18.4339 13.9642C18.0908 14.3074 17.5342 14.3074 17.191 13.9642C16.8478 13.6209 16.8478 13.0645 17.191 12.7212C18.4504 11.4618 20.4889 11.4616 21.7485 12.7212C22.0917 13.0645 22.0917 13.6209 21.7485 13.9642C21.4053 14.3074 20.8488 14.3075 20.5055 13.9642Z" fill="#2B4478"/>
<path d="M17.9414 19.8404C16.3196 21.4623 13.6805 21.4624 12.0586 19.8404C11.7152 19.4971 11.7152 18.9404 12.058 18.5971C12.4014 18.2543 12.958 18.2543 13.3014 18.5971C14.2384 19.5341 15.7622 19.5335 16.6986 18.5971C17.042 18.2543 17.5986 18.2543 17.942 18.5971C18.2848 18.9404 18.2848 19.4971 17.9414 19.8404Z" fill="#FF6888"/>
<path d="M17.9414 19.8404C17.1305 20.6514 16.0652 21.0568 15 21.0568V19.2996C15.6152 19.2996 16.2305 19.0652 16.6986 18.5971C17.042 18.2543 17.5986 18.2543 17.942 18.5971C18.2848 18.9404 18.2848 19.4971 17.9414 19.8404Z" fill="#FF515E"/>
<path d="M20.0713 5.67949C20.0214 6.16125 19.5908 6.51551 19.1045 6.46406C17.226 6.26971 15.6136 7.62299 15.4277 9.44062C15.3765 9.93686 14.9273 10.2789 14.4615 10.2252C11.8623 9.95156 9.90234 7.77246 9.90234 5.15625C9.90234 2.33297 12.1864 0 15 0C18.0112 0 20.3774 2.6584 20.0713 5.67949Z" fill="#F7BE48"/>
<path d="M20.0713 5.67949C20.0214 6.16125 19.5908 6.51551 19.1045 6.46406C17.226 6.26971 15.6136 7.62299 15.4277 9.44062C15.3977 9.73178 15.2269 9.97682 15 10.108V0C18.0112 0 20.3774 2.6584 20.0713 5.67949Z" fill="#F99E49"/>
</svg>
