<svg width="25" height="16" viewBox="0 0 25 16" fill="none" xmlns="http://www.w3.org/2000/svg">
<path d="M0 1C0 0.447715 0.447715 0 1 0H24C24.5523 0 25 0.447715 25 1C25 1.55228 24.5523 2 24 2H1C0.447716 2 0 1.55228 0 1Z" fill="#18192E"/>
<path d="M0 8C0 7.44772 0.447715 7 1 7H24C24.5523 7 25 7.44772 25 8C25 8.55228 24.5523 9 24 9H1C0.447716 9 0 8.55228 0 8Z" fill="#18192E"/>
<path d="M0 15C0 14.4477 0.447715 14 1 14H24C24.5523 14 25 14.4477 25 15C25 15.5523 24.5523 16 24 16H1C0.447716 16 0 15.5523 0 15Z" fill="#18192E"/>
</svg>
