<svg width="21" height="20" viewBox="0 0 21 20" fill="none" xmlns="http://www.w3.org/2000/svg">
<path d="M1.66112 1.16117C2.05164 0.770642 2.68481 0.770642 3.07533 1.16117L19.3388 17.4246C19.7293 17.8151 19.7293 18.4483 19.3388 18.8388C18.9483 19.2294 18.3151 19.2294 17.9246 18.8388L1.66112 2.57538C1.27059 2.18486 1.27059 1.55169 1.66112 1.16117Z" fill="#18192E"/>
<path d="M1.66115 18.8388C1.27062 18.4483 1.27062 17.8151 1.66115 17.4246L17.9246 1.16117C18.3151 0.770643 18.9483 0.770642 19.3388 1.16117C19.7293 1.55169 19.7293 2.18486 19.3388 2.57538L3.07536 18.8388C2.68484 19.2294 2.05167 19.2294 1.66115 18.8388Z" fill="#18192E"/>
</svg>
