<svg width="30" height="30" viewBox="0 0 30 30" fill="none" xmlns="http://www.w3.org/2000/svg">
<g opacity="0.3" clip-path="url(#clip0)">
<path d="M29.7982 20.7686C29.4894 20.3951 28.9358 20.3426 28.5615 20.6506C28.5538 20.6569 28.0613 21.0581 27.1293 21.6021C27.1293 16.5538 27.1293 9.49607 27.1293 4.45277C27.1293 3.96737 26.7358 3.57385 26.2504 3.57385C25.765 3.57385 25.3715 3.96737 25.3715 4.45277V5.44888H4.62898V4.45277C4.62898 3.96737 4.23546 3.57385 3.75006 3.57385C3.26466 3.57385 2.87114 3.96737 2.87114 4.45277V21.6021C1.93937 21.0582 1.44718 20.6574 1.44038 20.6518C1.06707 20.3418 0.512828 20.3931 0.202746 20.7666C-0.107337 21.14 -0.056008 21.6942 0.317474 22.0043C0.373197 22.0505 1.7112 23.1503 4.19585 24.2421C10.8102 27.1484 19.1649 27.1595 25.8045 24.2421C28.2892 23.1503 29.6272 22.0505 29.6829 22.0043C30.0559 21.6946 30.107 21.1422 29.7982 20.7686ZM15.8791 17.6366V15.1756H19.7464V17.6366H15.8791ZM10.2541 17.6366V15.1756H14.1213V17.6366H10.2541ZM4.62898 17.6366V15.1756H8.49622V17.6366H4.62898ZM14.1213 13.4177H10.2541V7.20672H14.1213V13.4177ZM15.8791 7.20672H19.7464V13.4177H15.8791V7.20672ZM21.5042 15.1756H25.3715V17.6366H21.5042V15.1756ZM25.3715 13.4177H21.5042V7.20672H25.3715V13.4177ZM8.49622 7.20672V13.4177H4.62898V7.20672H8.49622ZM4.62898 22.5097V19.3944H25.3715V22.5097C19.0669 25.3873 10.9332 25.3871 4.62898 22.5097Z" fill="#18192E"/>
</g>
<defs>
<clipPath id="clip0">
<rect width="30" height="30" fill="white"/>
</clipPath>
</defs>
</svg>
