<svg width="30" height="30" viewBox="0 0 30 30" fill="none" xmlns="http://www.w3.org/2000/svg">
<path d="M26.2503 14.1674V17.7658C26.2503 18.1796 25.8851 18.5155 25.4351 18.5155H4.56534C4.11534 18.5155 3.75012 18.1796 3.75012 17.7658V14.1674C3.75012 13.7536 4.11534 13.4178 4.56534 13.4178H25.4351C25.8851 13.4178 26.2503 13.7536 26.2503 14.1674Z" fill="#D6F9FA"/>
<path d="M26.2503 14.1674V17.7658C26.2503 18.1796 25.8851 18.5155 25.4351 18.5155H15.0002V13.4178H25.4351C25.8851 13.4178 26.2503 13.7536 26.2503 14.1674Z" fill="#ADF2F5"/>
<path d="M29.7982 20.7684C29.4894 20.3952 28.9357 20.3424 28.5613 20.6506C28.5537 20.6571 28.0609 21.0579 27.1293 21.6022V4.45283C27.1293 3.96767 26.7355 3.57391 26.2503 3.57391C25.7652 3.57391 25.3714 3.96767 25.3714 4.45283V5.44893H4.62898V4.45283C4.62898 3.96767 4.23522 3.57391 3.75006 3.57391C3.2649 3.57391 2.87115 3.96767 2.87115 4.45283V21.6022C1.9395 21.0585 1.44731 20.6571 1.44027 20.6518C1.06703 20.3419 0.512726 20.3928 0.202762 20.7667C-0.107202 21.1399 -0.0562245 21.6942 0.317607 22.0042C0.373272 22.0505 1.71098 23.1503 4.19597 24.2419C10.8254 27.1548 19.1782 27.1533 25.8044 24.2419C28.2894 23.1503 29.6271 22.0505 29.6827 22.0042C30.056 21.6948 30.107 21.1423 29.7982 20.7684ZM15.8791 7.20676H19.7463V17.6366H15.8791V7.20676ZM10.254 7.20676H14.1213V17.6366H10.254V7.20676ZM4.62898 7.20676H8.4962V17.6366H4.62898V7.20676ZM25.3714 22.5098C19.1099 25.3775 10.9313 25.396 4.62898 22.5098V19.3944H25.3714V22.5098ZM25.3714 17.6366H21.5041V7.20676H25.3714V17.6366Z" fill="#FEF77D"/>
<path d="M29.7982 20.7684C29.4894 20.3952 28.9357 20.3425 28.5613 20.6507C28.5537 20.6571 28.0609 21.0579 27.1292 21.6022V4.45286C27.1292 3.9677 26.7355 3.57394 26.2503 3.57394C25.7652 3.57394 25.3714 3.9677 25.3714 4.45286V5.44896H15.0002V19.3944H25.3714V22.5099C22.4469 23.8492 18.853 24.6679 15.0002 24.6679V26.4257C19.8225 26.4257 23.5374 25.238 25.8044 24.2419C28.2894 23.1503 29.6271 22.0505 29.6827 22.0042C30.056 21.6948 30.107 21.1423 29.7982 20.7684ZM19.7463 17.6366H15.8791V7.20679H19.7463V17.6366ZM25.3714 17.6366H21.5041V7.20679H25.3714V17.6366Z" fill="#F4DE48"/>
</svg>
