<svg width="30" height="30" viewBox="0 0 30 30" fill="none" xmlns="http://www.w3.org/2000/svg">
<g opacity="0.3" clip-path="url(#clip0)">
<path d="M26.6601 20.7849V13.226C27.9205 13.8289 28.5997 14.3085 28.6079 14.3143C29.0043 14.5993 29.5529 14.5056 29.8346 14.1138C30.118 13.7197 30.0283 13.1705 29.6342 12.8871C29.5772 12.8462 28.2109 11.8731 25.7182 10.9062C23.5857 10.0791 20.1959 9.10308 15.8789 8.9839C15.8789 6.36529 15.8864 6.51699 15.8612 6.39307C17.2212 6.01537 18.2227 4.76692 18.2227 3.2882C18.2227 1.50373 16.7789 0.00695801 15 0.00695801C13.2226 0.00695801 11.7774 1.50244 11.7774 3.2882C11.7774 4.76692 12.7788 6.01532 14.1389 6.39307C14.1136 6.51711 14.1211 6.36529 14.1211 8.9839C9.80412 9.10308 6.41431 10.0791 4.2818 10.9062C1.78912 11.8731 0.422837 12.8462 0.365825 12.8871C-0.0282743 13.1705 -0.117981 13.7197 0.165436 14.1138C0.448852 14.5079 0.998049 14.5977 1.39215 14.3143C1.4102 14.3013 2.08349 13.8267 3.33991 13.227V19.0162C1.44289 19.5947 0.0586784 21.3607 0.0586784 23.4444C0.0586784 25.9968 2.13517 28.0733 4.68756 28.0733C5.95295 28.0733 7.13425 27.5727 8.01391 26.6636C8.44657 26.2164 8.28966 25.4718 7.71245 25.2379C6.97833 24.9403 6.50396 24.2363 6.50396 23.4444C6.50396 22.6525 6.97833 21.9485 7.71245 21.651C8.28907 21.4173 8.44692 20.6728 8.01397 20.2253C7.23017 19.4152 6.20666 18.9306 5.09772 18.8344V12.4785C7.2614 11.6591 10.3181 10.8523 14.1233 10.7427C14.1197 10.812 14.114 10.3474 14.2124 16.5274C12.3549 15.8585 10.3711 17.2278 10.3711 19.2258C10.3711 19.9918 10.6694 20.7119 11.2111 21.2534L14.4923 24.5347C14.8355 24.8779 15.392 24.878 15.7352 24.5347L19.0165 21.2534C19.5581 20.7118 19.8564 19.9917 19.8564 19.2258C19.8564 17.2165 17.8433 15.8337 15.9707 16.5436C15.8698 10.2072 15.8803 10.8122 15.8767 10.7428C19.8129 10.8575 22.9152 11.7241 24.9024 12.4764V20.785L21.8221 24.519C21.5557 24.8419 21.554 25.3079 21.8181 25.6327L25.0994 29.6688C25.451 30.1014 26.1121 30.1008 26.4632 29.6688L29.7445 25.6327C30.0086 25.3079 30.0069 24.8419 29.7406 24.519L26.6601 20.7849ZM5.84361 26.0749C3.95263 26.9061 1.81654 25.5135 1.81654 23.4445C1.81654 21.3715 3.95708 19.9848 5.84361 20.8141C4.37965 22.254 4.38077 24.6361 5.84361 26.0749ZM13.5352 3.28825C13.5352 2.4625 14.206 1.76482 15 1.76482C15.7941 1.76482 16.4649 2.4625 16.4649 3.28825C16.4649 4.09597 15.8077 4.75309 15 4.75309C14.1923 4.75309 13.5352 4.09603 13.5352 3.28825ZM16.9887 18.1159C17.975 18.1159 18.468 19.3159 17.7735 20.0105L15.1137 22.6702L12.454 20.0105C11.7592 19.3156 12.2527 18.1159 13.2388 18.1159C13.5352 18.1159 13.8138 18.2314 14.0236 18.441L14.4923 18.9097C14.8355 19.2529 15.392 19.2529 15.7352 18.9097L16.204 18.441C16.4136 18.2314 16.6923 18.1159 16.9887 18.1159ZM25.7812 27.7209L23.636 25.0822L25.7812 22.4819L27.9264 25.0822L25.7812 27.7209Z" fill="#18192E"/>
</g>
<defs>
<clipPath id="clip0">
<rect width="30" height="30" fill="white"/>
</clipPath>
</defs>
</svg>
