<svg width="30" height="30" viewBox="0 0 30 30" fill="none" xmlns="http://www.w3.org/2000/svg">
<g clip-path="url(#clip0)">
<path d="M4.21887 11.316C3.73348 11.316 3.33997 11.7096 3.33997 12.1949V19.7237C3.33997 20.209 3.73348 20.6026 4.21887 20.6026C4.70426 20.6026 5.09778 20.209 5.09778 19.7237V12.1949C5.09778 11.7096 4.70426 11.316 4.21887 11.316Z" fill="#F7BE48"/>
<path d="M25.7812 11.316C25.2959 11.316 24.9023 11.7095 24.9023 12.1949V21.1012C24.9023 21.5865 25.2959 21.9801 25.7812 21.9801C26.2666 21.9801 26.6602 21.5865 26.6602 21.1012V12.1949C26.6602 11.7095 26.2666 11.316 25.7812 11.316Z" fill="#F7BE48"/>
<path d="M15.8789 10.7747C15.8712 10.2891 15.4703 9.90112 14.9861 9.90991C14.5008 9.91764 14.1136 10.3174 14.1213 10.8027L14.2351 17.9477C14.2428 18.4332 14.6437 18.8213 15.1279 18.8125C15.6132 18.8047 16.0004 18.405 15.9926 17.9197L15.8789 10.7747Z" fill="#F7BE48"/>
<path d="M29.7446 25.6327L26.4633 29.6693C26.1115 30.1013 25.4507 30.1009 25.0992 29.6693L21.818 25.6327C21.5537 25.3081 21.5555 24.8423 21.8221 24.5195L25.1034 20.5415C25.4544 20.1167 26.1071 20.1153 26.4592 20.5415L29.7405 24.5195C30.0071 24.8423 30.0088 25.3081 29.7446 25.6327Z" fill="#928BFF"/>
<path d="M29.7445 25.6327L26.4633 29.6693C26.2963 29.8743 26.0461 29.9933 25.7812 29.9933V20.2222C26.0438 20.2222 26.2922 20.3394 26.4592 20.5415L29.7404 24.5195C30.007 24.8423 30.0088 25.3081 29.7445 25.6327Z" fill="#736DD9"/>
<path d="M19.8563 19.2261C19.8563 19.9919 19.558 20.7121 19.0166 21.2541L15.7354 24.5353C15.3899 24.8808 14.832 24.8753 14.492 24.5353L11.2108 21.2541C10.0904 20.1325 10.0904 18.3198 11.2108 17.1982C12.2886 16.1215 14.0016 16.0854 15.1137 17.0564C15.6346 16.6046 16.2926 16.3586 16.9887 16.3586C18.5673 16.3586 19.8563 17.635 19.8563 19.2261Z" fill="#FF6888"/>
<path d="M19.0166 21.254L15.7353 24.5353C15.5337 24.7369 15.254 24.8206 15 24.7849V16.9632C15.0387 16.9931 15.0768 17.0242 15.1137 17.0564C16.2332 16.0854 17.9388 16.1215 19.0166 17.1982C20.137 18.3198 20.137 20.1325 19.0166 21.254Z" fill="#FF515E"/>
<path d="M8.01393 26.664C7.13443 27.5734 5.95319 28.0738 4.68756 28.0738C2.1378 28.0738 0.0586548 26.0002 0.0586548 23.4449C0.0586548 20.9048 2.12256 18.8159 4.68756 18.8159C5.95319 18.8159 7.13443 19.3163 8.01393 20.2257C8.44799 20.6735 8.28803 21.4187 7.71217 21.6513C6.97858 21.949 6.50397 22.6527 6.50397 23.4449C6.50397 24.237 6.97858 24.9408 7.71217 25.2384C8.28809 25.471 8.44799 26.2162 8.01393 26.664Z" fill="#FEF77D"/>
<path d="M8.01393 26.664C6.98936 27.7233 5.59992 28.1868 4.21881 28.0503V18.8394C5.60051 18.7028 6.98971 19.1667 8.01393 20.2257C8.44799 20.6735 8.28803 21.4187 7.71217 21.6513C6.97858 21.9489 6.50397 22.6527 6.50397 23.4448C6.50397 24.237 6.97858 24.9407 7.71217 25.2384C8.28809 25.471 8.44799 26.2161 8.01393 26.664Z" fill="#F4DE48"/>
<path d="M15.879 6.56995V9.8512C15.879 10.3364 15.4853 10.7301 15.0001 10.7301C14.515 10.7301 14.1212 10.3364 14.1212 9.8512V6.56995C14.1212 6.08479 14.515 5.69104 15.0001 5.69104C15.4853 5.69104 15.879 6.08479 15.879 6.56995Z" fill="#F7BE48"/>
<path d="M17.2894 0.991221C16.0208 -0.320986 13.9804 -0.321924 12.7109 0.991221C12.1091 1.61407 11.7775 2.4297 11.7775 3.28868C11.7775 5.06583 13.223 6.51134 15.0001 6.51134C16.7773 6.51134 18.2228 5.06583 18.2228 3.28868C18.2228 2.4297 17.8911 1.61407 17.2894 0.991221ZM15.0001 4.75353C14.1921 4.75353 13.5353 4.09669 13.5353 3.28868C13.5353 2.4631 14.2062 1.76524 15.0001 1.76524C15.7941 1.76524 16.465 2.4631 16.465 3.28868C16.465 4.09669 15.8081 4.75353 15.0001 4.75353Z" fill="#D6F9FA"/>
<path d="M18.2227 3.28867C18.2227 5.06581 16.7771 6.51132 15 6.51132V4.75351C15.808 4.75351 16.4648 4.09667 16.4648 3.28867C16.4648 2.46308 15.7939 1.76523 15 1.76523V0.00741577C16.7771 0.00741577 18.2227 1.50273 18.2227 3.28867Z" fill="#ADF2F5"/>
<path d="M29.6343 12.8876C29.5772 12.8467 28.211 11.8737 25.7183 10.9067C19.0694 8.32776 10.9318 8.32735 4.28181 10.9067C1.78912 11.8736 0.422838 12.8467 0.365826 12.8876C-0.0282743 13.171 -0.117981 13.7202 0.165436 14.1143C0.448853 14.5084 0.998051 14.5983 1.39215 14.3148C1.44201 14.2789 6.47567 10.7301 15 10.7301C19.4314 10.7301 22.8932 11.7036 25.0169 12.5203C27.3234 13.4073 28.5967 14.3068 28.6079 14.3148C29.0044 14.5998 29.553 14.5061 29.8346 14.1143C30.1181 13.7202 30.0283 13.171 29.6343 12.8876Z" fill="#ADF2F5"/>
</g>
<defs>
<clipPath id="clip0">
<rect width="30" height="30" fill="white"/>
</clipPath>
</defs>
</svg>
