<svg width="30" height="30" viewBox="0 0 30 30" fill="none" xmlns="http://www.w3.org/2000/svg">
<g opacity="0.3">
<path d="M29.1211 2.87109H0.878906C0.393516 2.87109 0 3.26461 0 3.75V12.1875C0 20.4262 6.72896 27.1289 15 27.1289C23.271 27.1289 30 20.4262 30 12.1875C30 11.3125 30 4.69037 30 3.75C30 3.26461 29.6065 2.87109 29.1211 2.87109ZM19.6289 9.31641H28.2422V11.3086H20.625C20.0757 11.3086 19.6289 10.8618 19.6289 10.3125V9.31641ZM28.2422 4.62891V7.55859C27.244 7.55859 2.70234 7.55859 1.75781 7.55859V4.62891H28.2422ZM1.75781 9.31641H10.3711V10.3125C10.3711 10.8618 9.92426 11.3086 9.375 11.3086H1.75781V9.31641ZM2.79299 17.2971C6.90158 17.5121 10.2463 20.6597 10.7687 24.6809C7.17018 23.4697 4.26006 20.7579 2.79299 17.2971ZM12.5776 25.1493C12.25 19.7885 7.78547 15.5273 2.34375 15.5273C2.29207 15.5273 2.2418 15.5327 2.19252 15.5412C1.98152 14.7431 1.84436 13.9156 1.78793 13.0664H9.375C10.8935 13.0664 12.1289 11.831 12.1289 10.3125V9.31641H17.8711V10.3125C17.8711 11.831 19.1065 13.0664 20.625 13.0664H28.2121C28.1556 13.9156 28.0185 14.7431 27.8075 15.5412C27.7582 15.5327 27.7079 15.5273 27.6562 15.5273C22.2145 15.5273 17.75 19.7885 17.4224 25.1493C15.8232 25.4448 14.1798 25.4453 12.5776 25.1493ZM19.2313 24.6809C19.7536 20.6597 23.0984 17.5121 27.207 17.2971C25.7399 20.7579 22.8298 23.4697 19.2313 24.6809Z" fill="#18192E"/>
</g>
</svg>
