<svg width="30" height="30" viewBox="0 0 30 30" fill="none" xmlns="http://www.w3.org/2000/svg">
<g clip-path="url(#clip0)">
<path d="M28.9128 9.31641C28.8232 9.6276 28.7657 9.97969 28.7657 10.3711C28.7657 12.1283 29.8954 13.0945 29.9312 13.1244C29.9563 13.9266 29.5948 15.4775 29.5849 15.5191C29.5843 15.5221 29.5836 15.5244 29.5831 15.5273C25.2724 15.5273 17.371 23.5559 17.371 26.9355C17.3617 26.9379 16.0853 27.1472 14.961 27.1289C14.1607 27.1295 13.3567 27.0663 12.5581 26.9368C12.5558 26.9362 12.5534 26.9362 12.5511 26.9355C12.5511 23.5559 4.64972 15.5273 0.338976 15.5273C0.159093 14.748 0.0413197 13.946 -0.00965691 13.125C-0.00965691 13.125 1.15636 12.1565 1.15636 10.3711C1.15636 9.97969 1.09894 9.6276 1.00929 9.31641C0.689952 8.20781 -0.0389538 7.61719 -0.0389538 7.61719V3.75C-0.0389538 3.2649 0.354796 2.87109 0.839952 2.87109H29.0821C29.5673 2.87109 29.961 3.2649 29.961 3.75V7.61719C29.961 7.61719 29.2321 8.20781 28.9128 9.31641Z" fill="#3AC7CF"/>
<path d="M28.9115 9.31641C28.8219 9.6276 28.7644 9.97969 28.7644 10.3711C28.7644 12.1283 29.8941 13.0945 29.9299 13.1244C29.8719 14.3701 29.5824 15.5244 29.5818 15.5273C25.2711 15.5273 17.3697 23.5559 17.3697 26.9355C17.3604 26.9379 16.2965 27.1289 14.9598 27.1289V2.87109H29.0808C29.566 2.87109 29.9598 3.2649 29.9598 3.75V7.61719C29.9598 7.61719 29.2308 8.20781 28.9115 9.31641Z" fill="#01B1BC"/>
<path d="M12.5577 25.8656C12.5577 25.8779 12.5577 26.4064 12.5571 26.9367C12.195 26.8781 11.8341 26.8061 11.4749 26.7205C11.3952 26.7018 11.3161 26.6818 11.2364 26.6619C11.2124 26.6555 11.1878 26.649 11.1632 26.6426C6.2782 25.3665 2.31082 21.6609 0.717652 16.8791C0.6948 16.8105 0.672534 16.7414 0.650269 16.6717C0.646753 16.6605 0.643238 16.6494 0.640308 16.6383C0.525464 16.2738 0.424683 15.9035 0.337964 15.5273H2.30378C7.84037 15.5273 12.5577 19.9764 12.5577 25.8656Z" fill="white"/>
<path d="M29.5821 15.5273C29.5803 15.5356 29.578 15.5438 29.5762 15.552C29.5604 15.6223 27.001 24.7559 17.3706 26.9355H17.3699C17.3646 26.5337 17.3623 25.9055 17.3623 25.8656C17.3623 19.9764 22.0797 15.5273 27.6162 15.5273H29.5821Z" fill="#D6F9FA"/>
<path d="M29.96 3.75V7.61719C29.96 7.61719 29.2311 8.20781 28.9118 9.31641H1.00829C0.688952 8.20781 -0.0399542 7.61719 -0.0399542 7.61719V3.75C-0.0399542 3.2649 0.353796 2.87109 0.838952 2.87109H29.0811C29.5664 2.87109 29.96 3.26484 29.96 3.75Z" fill="#74DCE2"/>
<path d="M29.96 3.75V7.61719C29.96 7.61719 29.2311 8.20781 28.9118 9.31641H14.96V2.87109H29.0811C29.5664 2.87109 29.96 3.26484 29.96 3.75Z" fill="#3AC7CF"/>
<path d="M12.089 8.49609V10.3711C12.089 11.8898 10.8538 13.125 9.33505 13.125H-0.0106573C-0.0288214 12.8373 -0.0387823 12.5479 -0.0399542 12.2561V7.61719H11.21C11.6952 7.61719 12.089 8.01094 12.089 8.49609Z" fill="#FEF77D"/>
<path d="M29.96 7.55859C29.96 7.55859 29.9707 12.6855 29.9343 13.0664H20.585C19.0663 13.0664 17.8311 11.8313 17.8311 10.3125V8.4375C17.8311 7.9524 18.2249 7.55859 18.71 7.55859H29.96Z" fill="#F4DE48"/>
</g>
<defs>
<clipPath id="clip0">
<rect width="30" height="30" fill="white"/>
</clipPath>
</defs>
</svg>
