<svg width="30" height="30" viewBox="0 0 30 30" fill="none" xmlns="http://www.w3.org/2000/svg">
<g clip-path="url(#clip0)">
<path d="M20.813 9.78545H9.18698L10.1977 5.74077C10.4133 4.87946 11.1838 4.27771 12.0721 4.27771C12.1682 4.27771 12.2461 4.19978 12.2461 4.10369V2.81288C12.2461 2.08047 12.528 1.38321 13.0395 0.849433C14.1217 -0.278716 15.8698 -0.287564 16.9605 0.849433C17.472 1.38321 17.7539 2.08047 17.7539 2.81288V4.10369C17.7539 4.19978 17.8318 4.27771 17.9279 4.27771C18.8162 4.27771 19.5867 4.87946 19.8023 5.74077L20.813 9.78545Z" fill="#FEF77D"/>
<path d="M20.813 9.78545H15V0.000427246C16.5232 0.000427246 17.7538 1.28982 17.7538 2.81289V4.10369C17.7538 4.19978 17.8318 4.27771 17.9279 4.27771C18.8161 4.27771 19.5866 4.87946 19.8022 5.74078L20.813 9.78545Z" fill="#F4DE48"/>
<path d="M22.221 10.693C22.4007 9.27703 21.2965 8.02765 19.8731 8.02765H10.1268C8.69948 8.02765 7.59976 9.28124 7.77899 10.693C7.9028 11.6658 8.00756 12.4867 8.09662 13.1838H8.31043C8.79558 13.1838 9.18932 13.5776 9.18932 14.0627C9.18932 14.5444 8.80114 14.9355 8.3208 14.9411C8.59279 17.0797 8.60521 17.2329 8.64265 17.8713H8.96491C9.45006 17.8713 9.8438 18.265 9.8438 18.7502C9.8438 19.2353 9.45006 19.6291 8.96491 19.6291C8.8837 19.6291 8.78544 19.6291 8.67464 19.6291C8.65736 20.4201 8.59689 21.2182 8.48914 22.0267C8.46511 22.2069 8.44121 22.3865 8.4173 22.5658C8.852 22.6187 9.18938 22.9887 9.18938 23.4376C9.18938 23.9227 8.79564 24.3165 8.31049 24.3165C8.2741 24.3165 8.23133 24.3165 8.18393 24.3165C8.06621 25.199 7.94914 26.0764 7.83178 26.9561C7.62015 28.5451 8.85862 30 10.4456 30H19.5545C21.1388 30 22.3803 28.548 22.1683 26.9561L21.5109 22.0267C21.2624 20.1617 21.2566 18.2703 21.4939 16.4053L22.221 10.693Z" fill="#D6F9FA"/>
<path d="M21.4938 16.4053C21.2565 18.2703 21.2624 20.1617 21.5108 22.0267L22.1682 26.9561C22.3802 28.548 21.1387 30 19.5544 30H15V8.02765H19.8731C21.2965 8.02765 22.4007 9.27703 22.221 10.693L21.4938 16.4053Z" fill="#ADF2F5"/>
<path d="M13.0664 14.0627C13.0664 14.5479 12.6727 14.9416 12.1875 14.9416H8.31982L8.09599 13.1838H12.1875C12.6727 13.1838 13.0664 13.5776 13.0664 14.0627Z" fill="#928BFF"/>
<path d="M14.4727 18.7502C14.4727 19.2353 14.0789 19.6291 13.5938 19.6291C12.6631 19.6291 9.60727 19.6291 8.67488 19.6291C8.68777 19.0431 8.67664 18.4566 8.64265 17.8713H13.5938C14.0789 17.8713 14.4727 18.265 14.4727 18.7502Z" fill="#928BFF"/>
<path d="M13.0664 23.4376C13.0664 23.9228 12.6727 24.3165 12.1875 24.3165C11.5561 24.3165 9.17017 24.3165 8.18387 24.3165L8.41824 22.5587H12.1875C12.6727 22.5587 13.0664 22.9525 13.0664 23.4376Z" fill="#928BFF"/>
</g>
<defs>
<clipPath id="clip0">
<rect width="30" height="30" fill="white"/>
</clipPath>
</defs>
</svg>
