<svg width="30" height="30" viewBox="0 0 30 30" fill="none" xmlns="http://www.w3.org/2000/svg">
<g opacity="0.3" clip-path="url(#clip0)">
<path d="M22.2211 10.6929C22.3749 9.48404 21.5845 8.35113 20.3879 8.08436L19.802 5.74061C19.5867 4.8791 18.816 4.27734 17.9279 4.27734C17.8319 4.27734 17.7539 4.1993 17.7539 4.10332V2.8125C17.7539 1.29287 16.5257 0 15 0C13.4743 0 12.2461 1.29281 12.2461 2.8125V4.10332C12.2461 4.1993 12.168 4.27734 12.0721 4.27734C11.184 4.27734 10.4133 4.8791 10.1979 5.74066L9.612 8.08436C8.41329 8.35166 7.62532 9.48633 7.77884 10.6929L8.50581 16.4048C8.74323 18.2702 8.73755 20.1615 8.48894 22.0262L7.83157 26.9562C7.61946 28.5475 8.86118 30 10.4452 30H19.5547C21.1409 30 22.3802 28.5451 22.1683 26.9562L21.5109 22.0263C21.2623 20.1615 21.2566 18.2702 21.4941 16.4049L22.2211 10.6929ZM11.9032 6.16699C11.9226 6.08941 11.9921 6.03516 12.0721 6.03516C13.1373 6.03516 14.0039 5.16855 14.0039 4.10332V2.8125C14.0039 2.25064 14.4694 1.75781 15 1.75781C15.5306 1.75781 15.9961 2.25064 15.9961 2.8125V4.10332C15.9961 5.16855 16.8627 6.03516 17.9279 6.03516C18.0079 6.03516 18.0774 6.08936 18.0968 6.16693L18.5618 8.02734H11.4382L11.9032 6.16699ZM20.4773 10.471L19.7504 16.1829C19.4937 18.199 19.4999 20.2431 19.7686 22.2585L20.426 27.1884C20.4975 27.7249 20.077 28.2421 19.5548 28.2421H10.4452C9.92308 28.2421 9.50249 27.725 9.57397 27.1885L9.95694 24.3164H12.1875C12.6729 24.3164 13.0664 23.9229 13.0664 23.4375C13.0664 22.9521 12.6729 22.5586 12.1875 22.5586H10.1914C10.3213 21.5841 10.4094 20.7664 10.4325 19.6289H13.5937C14.0791 19.6289 14.4726 19.2354 14.4726 18.75C14.4726 18.2646 14.0791 17.8711 13.5937 17.8711H10.402C10.3442 16.809 10.2477 16.1679 10.0916 14.9414H12.1875C12.6729 14.9414 13.0664 14.5479 13.0664 14.0625C13.0664 13.5771 12.6729 13.1836 12.1875 13.1836H9.86788L9.52265 10.4711C9.47636 10.1073 9.75942 9.78516 10.1267 9.78516H19.8732C20.2399 9.78516 20.5237 10.1066 20.4773 10.471Z" fill="#18192E"/>
</g>
<defs>
<clipPath id="clip0">
<rect width="30" height="30" fill="white"/>
</clipPath>
</defs>
</svg>
