<svg width="30" height="24" viewBox="0 0 30 24" fill="none" xmlns="http://www.w3.org/2000/svg">
<rect width="30" height="24" rx="12" fill="#E65D40"/>
<path d="M14.9079 17.224C14.5066 17.224 14.0959 17.14 13.6759 16.972C13.2559 16.804 12.8732 16.5427 12.5279 16.188C12.1919 15.824 11.9492 15.3713 11.7999 14.83L12.8779 14.382C13.0272 14.9233 13.2792 15.3433 13.6339 15.642C13.9979 15.9407 14.4226 16.09 14.9079 16.09C15.2626 16.09 15.5939 16.0153 15.9019 15.866C16.2099 15.7073 16.4526 15.4927 16.6299 15.222C16.8166 14.942 16.9099 14.634 16.9099 14.298C16.9099 13.9713 16.8166 13.6727 16.6299 13.402C16.4526 13.1313 16.2052 12.9213 15.8879 12.772C15.5799 12.6133 15.2392 12.534 14.8659 12.534H14.0399V11.428H14.7819C15.2952 11.428 15.7246 11.2833 16.0699 10.994C16.4152 10.6953 16.5879 10.3033 16.5879 9.818C16.5879 9.37 16.4199 9.01067 16.0839 8.74C15.7479 8.46933 15.3326 8.334 14.8379 8.334C14.3526 8.334 13.9699 8.46 13.6899 8.712C13.4192 8.964 13.2232 9.272 13.1019 9.636L12.0099 9.174C12.1779 8.67 12.4999 8.21733 12.9759 7.816C13.4612 7.40533 14.0819 7.2 14.8379 7.2C15.3979 7.2 15.9019 7.312 16.3499 7.536C16.7979 7.76 17.1479 8.07267 17.3999 8.474C17.6612 8.87533 17.7919 9.32333 17.7919 9.818C17.7919 10.3127 17.6659 10.7327 17.4139 11.078C17.1619 11.4233 16.8492 11.694 16.4759 11.89V11.946C16.9519 12.142 17.3439 12.4453 17.6519 12.856C17.9599 13.2573 18.1139 13.7333 18.1139 14.284C18.1139 14.844 17.9692 15.348 17.6799 15.796C17.3999 16.244 17.0126 16.594 16.5179 16.846C16.0326 17.098 15.4959 17.224 14.9079 17.224Z" fill="white"/>
</svg>
