<svg width="105" height="74" viewBox="0 0 105 74" fill="none" xmlns="http://www.w3.org/2000/svg">
<path d="M8.11815 40.1938C7.28461 41.077 6.93954 41.9652 7.08295 42.8585C7.24522 43.7936 7.92323 44.7462 9.11699 45.7163L9.34624 45.9184L9.29171 46.2044L9.01801 47.3817L9.00286 47.4827C8.71671 48.7627 8.80794 49.6486 9.27656 50.1404C9.81519 50.5898 10.7719 50.644 12.1468 50.3031L12.4942 50.2293L12.6791 50.5254C12.8953 50.878 13.143 51.2101 13.4194 51.5178L13.4345 51.5329L13.4567 51.5703C14.1226 52.3302 14.739 52.6856 15.3059 52.6364C15.9025 52.5131 16.4771 51.9604 17.0299 50.9781L17.2814 50.5416C17.8436 51.0206 17.9224 51.5363 17.5177 52.0887L17.3157 52.3626C16.7286 53.1326 16.1072 53.552 15.4514 53.6207C14.7781 53.744 14.0802 53.4947 13.3577 52.8729C12.9383 53.5782 12.228 54.0835 11.2268 54.3887C11.9519 53.6186 12.3613 52.7897 12.4549 51.9018L12.0327 51.3611C10.4 51.698 9.25333 51.5353 8.59282 50.873C7.9909 50.3597 7.53709 49.5577 7.23142 48.467C5.80537 49.3818 4.81125 50.7127 4.24905 52.4596C3.84507 54.0535 4.03258 55.2948 4.81159 56.1834C5.15198 56.5352 5.55604 56.8191 6.00231 57.0201C6.82576 57.4102 7.90101 57.652 9.22808 57.7457L9.87141 57.679C10.8921 57.526 12.0216 57.1855 13.2598 56.6573C13.3487 56.0355 13.7085 55.3766 14.3394 54.6807L14.3839 54.6211L16.7582 53.3923L21.4929 50.9195L19.5477 50.6083L19.1255 50.5709C18.4983 50.4921 17.8793 50.3568 17.2763 50.1667L16.9138 50.0404C13.688 48.8412 11.2688 45.9322 9.6563 41.3134L9.50076 40.8547C9.44623 40.6721 9.44623 40.5609 9.50076 40.5212C9.82125 40.5461 10.1885 40.7014 10.6026 40.987C13.0844 48.0877 17.8123 50.8262 24.7863 49.2026H24.7934C25.9652 48.9168 27.1167 48.5532 28.2403 48.1143C35.2534 44.7041 40.3899 39.3129 43.6501 31.9408L43.7389 31.6821L43.7541 31.6447C45.37 32.0738 46.8297 31.7138 48.1332 30.5644L50.0864 27.7218L50.1016 27.6925L50.139 27.6329C54.7059 18.9579 63.8745 16.6707 77.6448 20.7714L78.9577 19.9872C84.4418 20.9398 88.1557 24.093 90.0995 29.4468V29.4539L90.1065 29.4832C91.1421 33.2781 90.7623 37.3023 88.9673 41.556C88.5277 41.5789 88.1029 41.7222 87.7392 41.9703C87.5568 42.4985 87.4706 42.9279 87.4807 43.2587C87.4836 43.5687 87.5261 43.877 87.6069 44.1763C88.092 44.5012 88.6042 44.7836 89.138 45.0201C89.2053 45.1548 89.2151 45.3448 89.1673 45.59C89.8628 45.3926 90.2597 45.2077 90.358 45.0352C90.3122 42.0265 90.9495 40.1365 92.2698 39.3651C94.312 38.5459 96.3268 39.4514 98.3144 42.0814C100.267 44.6475 100.891 48.5286 100.186 53.7248C102.138 53.4236 103.593 54.0505 104.551 55.6054C105.31 56.849 105.108 57.9915 103.945 59.0331C102.779 60.0829 101.43 60.9085 99.9646 61.4684L100.579 62.3345C101.069 63.0601 101.508 63.8196 101.892 64.6071C102.372 65.5853 102.777 66.5988 103.104 67.6387L102.934 67.9722C101.725 70.1731 100.162 71.7917 98.2437 72.8278L97.874 72.9976L96.9307 71.6465C96.1094 71.9542 95.2515 72.1533 94.3786 72.2386L94.2524 71.9274C93.9717 72.2026 93.6675 72.4528 93.3434 72.6752L93.098 72.8591L92.8243 72.6964C91.775 72.1239 90.8376 71.3667 90.0571 70.4611L89.9561 72.1043L78.983 72.4549L78.5689 69.3091C77.3307 71.2979 75.3381 72.3835 72.5911 72.5661H72.5688C70.5072 72.6334 68.828 71.8092 67.5312 70.0933C66.3819 71.4157 65.0626 72.3879 63.5732 73.0097L63.248 73.1431L63.0117 72.8985C62.6119 72.4829 62.2821 72.0051 62.0351 71.4838L61.821 71.9284L61.5917 71.98C60.2301 72.286 58.8176 72.286 57.456 71.98L56.6349 71.5576V70.0175C55.8013 71.3182 54.6437 72.3794 53.2758 73.0966L53.0537 73.2077L52.8396 73.1067C52.1936 72.8121 51.6315 72.3605 51.2044 71.793C49.7371 72.0647 48.2303 72.0396 46.7728 71.7192L46.4547 71.6525L46.388 71.3342C46.0511 69.7118 45.8655 68.0616 45.8336 66.4049C44.4583 69.0344 42.7665 71.4857 40.7959 73.7039L40.5374 74L40.196 73.8151C38.1984 72.7641 36.5461 71.5552 35.2392 70.1883C34.401 72.177 32.8278 73.2084 30.5198 73.2825H30.4602C29.1533 73.1478 28.0238 72.7827 27.0718 72.1871C26.9387 72.1083 26.8102 72.022 26.687 71.9284C26.2157 71.5828 25.7572 71.087 25.3115 70.4409C24.53 71.4671 23.5086 72.2857 22.3372 72.8248L21.9595 72.9945L21.0202 71.6465C20.1708 71.9605 19.2833 72.1593 18.3812 72.2376L18.3438 71.9264C18.061 72.1992 17.7571 72.4493 17.4349 72.6742L17.1885 72.8591L16.9148 72.6964C15.6422 71.9857 14.6165 71.1123 13.8375 70.0761L13.5416 69.6537L13.379 69.395C13.4039 69.6766 13.32 70.0788 13.1275 70.6016L13.0679 70.7714C12.1663 72.3262 10.7656 73.0963 8.86551 73.0814H8.814C6.39754 72.812 4.73786 71.9025 3.83497 70.353L3.79053 70.2792L3.77538 70.1903C3.28638 67.33 3.26149 64.4095 3.70166 61.5412L3.71681 61.4401L3.76124 61.3664L3.84305 61.2259C1.80565 60.4889 1.02631 59.158 1.50503 57.2333C1.97633 56.567 2.70619 56.2834 3.69459 56.3824C2.97483 55.3214 2.83681 53.9174 3.28051 52.1706L3.29566 52.1332L3.31788 52.0958C4.29416 49.9198 5.94138 47.9829 8.25954 46.2852C6.98028 45.1945 6.26019 44.1065 6.09927 43.0212C5.89189 41.9157 6.25682 40.8203 7.19405 39.735C7.60341 39.355 8.02759 39.3847 8.46658 39.8239L8.11916 40.1938H8.11815ZM4.95904 9.71926L4.70756 10.1558C-1.41742 20.5582 0.110627 30.0255 9.29171 38.5577C9.60748 39.0711 9.64956 39.5548 9.41795 40.0089L9.16647 39.7724L9.05538 39.6713C-0.92019 30.6682 -2.65292 20.6596 3.85719 9.6455L4.95904 7.92052C5.22028 8.66562 5.23509 9.24533 5.00348 9.65964L4.95904 9.71926ZM8.7322 17.4175L8.95438 17.8621L8.07977 18.3209L7.85253 17.8864C6.1363 14.7133 5.9168 11.1603 7.19405 7.2273L7.20112 7.20507L7.23041 7.09391L7.25263 7.07875L7.23748 7.0636L7.41523 6.55328C7.73613 5.66018 8.11187 4.78778 8.54031 3.94106C8.88032 3.25997 9.26242 2.57651 9.68659 1.8907C10.0471 1.22497 10.4655 0.592292 10.9369 0C11.2062 0.596886 11.1567 1.25575 10.7884 1.97659L10.537 2.39899C9.06783 4.83639 8.11411 7.14814 7.67579 9.33425C7.08868 12.2702 7.44115 14.9649 8.73321 17.4185L8.7322 17.4175ZM11.0783 13.0217L11.1227 13.5178L10.131 13.6189L10.0795 13.1227C9.79803 10.1174 10.2565 7.65509 11.455 5.73576C12.0173 4.8177 12.7507 4.0163 13.6153 3.37517C14.1704 2.94658 14.7796 2.59321 15.4271 2.32422C15.4615 2.83756 15.1878 3.35327 14.606 3.87134L14.2142 4.16742C13.1623 4.96331 12.3319 6.01577 11.8024 7.22427C11.1022 8.82293 10.8605 10.7551 11.0773 13.0207L11.0783 13.0217ZM42.9845 29.757C42.2203 29.53 41.8109 29.1932 41.7564 28.7465H42.9916L43.243 28.7172H43.3026C45.1327 28.4558 46.1783 27.3308 46.4395 25.342L46.4325 25.3572C46.5705 24.0004 46.1389 23.1812 45.1377 22.8996C44.0874 22.8996 43.2366 23.3634 42.5856 24.2911L41.6382 25.5937C41.4349 25.0617 41.4509 24.4707 41.6827 23.9505L41.7837 23.7211C42.5681 22.6008 43.578 21.9989 44.8135 21.9153C45.3858 20.252 45.44 18.3495 44.9761 16.2079C43.136 9.44945 39.9028 5.05736 35.2766 3.03159C31.0005 1.16817 25.3778 1.57238 18.4085 4.24422C17.9372 4.41668 17.3649 4.38704 16.6916 4.15529C16.8262 3.9478 17.105 3.73559 17.5278 3.51866C25.0546 0.551075 31.1779 0.111158 35.8977 2.19891C40.662 4.25702 44.0082 8.85863 45.9366 16.0037L45.9436 16.0482C46.5496 18.1946 46.5001 20.1981 45.7952 22.0588C47.063 22.5129 47.6057 23.6454 47.4232 25.4562V25.4714C47.127 27.7316 46.0197 29.1009 44.1015 29.5792L43.9833 29.6085V29.6156L42.9845 29.756V29.757ZM89.0956 46.9451C88.563 50.8781 87.5026 54.4486 85.9143 57.6567L85.5426 58.3813C85.9547 58.6322 86.4082 58.8077 86.8818 58.8997L88.628 58.9148L89.4491 58.7299C90.115 58.4604 90.793 57.846 91.4831 56.8867L92.1901 55.7691C92.4174 55.4275 92.709 55.1333 93.0485 54.903C92.9796 55.1958 93.0274 55.5039 93.1818 55.762C93.4087 55.8967 93.6333 56.0176 93.8555 56.1248C94.8964 56.6186 95.8555 56.7668 96.7328 56.5694C97.734 56.2932 98.5281 55.4848 99.1153 54.1441L99.1445 53.9521C99.8744 48.9332 99.2405 45.2865 97.2428 43.0121C95.2155 40.7027 93.7804 40.0365 92.9374 41.0133C92.0944 41.9902 91.8282 43.066 92.1385 44.2409C94.654 45.6274 95.5394 48.1096 94.7947 51.6875V51.6946C94.6466 52.3683 94.5119 52.8247 94.3907 53.0639C94.2695 53.303 93.9908 53.5917 93.5545 53.9299C93.5 53.593 93.5171 53.0676 93.606 52.3535L93.8282 51.4874C94.4342 48.6007 93.7289 46.6022 91.7124 45.492C91.3373 46.1778 90.4644 46.6615 89.0936 46.9431L89.0956 46.9451ZM89.1602 59.9122L84.8548 59.698C84.8844 61.0252 84.8508 61.9727 84.7538 62.5406C84.6569 63.1085 84.4175 63.4861 84.0358 63.6734C84.0405 62.4641 83.9812 61.1269 83.858 59.6616L83.1622 59.6768H83.147L80.7231 59.8102L79.5546 59.9112L79.5476 60.0668C79.4688 61.1232 79.4243 62.1792 79.4142 63.2348C79.39 65.9322 79.5754 68.6273 79.9687 71.2958L83.86 70.9482C83.7611 69.8388 83.7611 68.7228 83.86 67.6135C83.9645 67.123 84.2456 66.6881 84.6498 66.3917C84.6149 67.9145 84.6841 69.4379 84.8568 70.9512H89.1622L89.236 69.3445L88.6593 68.4047L89.3107 67.3386V65.3246C89.3006 63.4248 89.2511 61.621 89.1622 59.9132L89.1602 59.9122ZM93.7939 62.2486C92.1906 64.1315 90.8537 66.226 89.8207 68.4734C90.6224 69.7794 91.726 70.8735 93.0384 71.6637C93.4118 71.3941 93.7349 71.061 93.9928 70.6794C93.8621 70.0192 93.828 69.3435 93.8918 68.6735C94.3211 68.4832 94.7703 68.3416 95.231 68.2511L95.7764 67.0991L96.3086 68.2238C96.6734 68.2326 97.0358 68.2848 97.3882 68.3794C97.5399 69.1784 97.5945 69.9927 97.5508 70.8047L98.2093 71.7223C99.4819 71.0365 100.656 69.7831 101.731 67.9621L101.879 67.6882L101.606 67.0445C101.251 66.1613 100.866 65.3004 100.451 64.4616C100.023 63.6026 99.5361 62.774 98.9941 61.9818L98.8739 61.8161C98.3709 61.0905 97.8383 60.3899 97.2761 59.7142L96.854 59.2544C95.7471 60.1596 94.7231 61.1616 93.7939 62.2486ZM94.7634 71.316C95.5247 71.2831 96.2708 71.0929 96.955 70.7572C97.0598 70.066 97.022 69.3606 96.8439 68.6846C96.2521 68.6105 95.463 68.7018 94.4766 68.9585C94.3877 69.521 94.484 70.3082 94.7654 71.3201L94.7634 71.316ZM89.1552 29.7419C86.9804 24.9587 83.8216 22.1211 79.6789 21.2292C79.25 21.1207 78.8776 21.1207 78.5619 21.2292C85.1561 25.5967 88.2782 31.5999 87.9281 39.2388C89.7137 36.441 90.123 33.2747 89.1562 29.7399L89.1552 29.7419ZM50.0127 32.251C54.5453 41.9575 54.6713 50.1913 50.3904 56.9524C51.1398 57.5493 51.8919 57.4506 52.6467 56.6563C55.2409 52.1756 56.5356 48.1416 56.5309 44.5542C56.5262 40.9668 56.0057 37.9245 54.9695 35.4271C53.9239 32.9203 52.8803 31.1118 51.8387 30.0016C51.1533 29.5724 50.5443 29.5724 50.0117 30.0016C49.706 30.6578 49.706 31.4079 50.0117 32.252L50.0127 32.251ZM44.1823 32.9847C41.44 39.9822 36.2589 45.3266 28.6392 49.0177L28.617 49.0329L28.6019 49.048C27.4464 49.4894 26.2661 49.8626 25.0671 50.1657L15.006 55.4133C14.5286 55.9334 14.2327 56.5943 14.1627 57.297V57.3192C14.1481 57.5414 14.1555 57.7644 14.1849 57.9851L14.2586 58.3894C14.5596 59.4996 15.583 60.1659 17.3289 60.3882L18.2095 60.4175C18.9745 59.6217 19.7928 58.8789 20.6586 58.1943L21.0061 57.9134L21.3171 58.2246C21.8784 58.7655 22.4072 59.3392 22.9007 59.9425C24.7582 59.5434 26.5717 58.9619 28.315 58.2065L29.1361 57.8437H29.1513V57.8285C29.6448 57.5968 30.5423 56.9874 31.8438 56.0005L32.2356 55.7044L32.2649 55.7418C32.8911 56.7685 33.5543 57.5803 34.2545 58.1771C34.7609 58.6227 35.3488 58.9659 35.9856 59.1877C36.9819 58.6426 38.0617 58.267 39.181 58.0761H39.7355L40.4606 59.3898L42.1917 59.3079L43.1612 57.7315L43.5238 57.9094C44.1796 58.2401 44.8061 58.5928 45.4033 58.9674L47.9332 58.545L48.3372 57.9528C53.4543 50.3402 53.558 41.6378 48.6483 31.8458C47.0108 32.8476 45.5215 33.2252 44.1803 32.9786L44.1823 32.9847ZM56.1794 35.2735C57.4028 37.973 58.0071 41.1164 57.9923 44.7038C57.9775 48.2911 56.3545 52.6799 53.1233 57.8699L53.1385 57.8993C53.2375 58.1067 53.4496 58.3607 53.7748 58.6612L54.1787 58.9199L54.4898 59.1119C55.2012 59.3489 55.9395 59.4956 56.6874 59.5484V59.0381L57.0914 58.9643C58.6286 58.6686 60.205 58.6385 61.7523 58.8754L62.4926 58.639L63.6763 57.8689C64.5664 57.2111 65.3738 56.448 66.0809 55.5963C66.2291 56.0948 66.118 56.8571 65.7477 57.8831L65.1629 59.2675C65.4592 59.6178 66.4307 59.9041 68.0776 60.1265C69.365 59.0061 70.8987 58.4631 72.6789 58.4975H72.686C74.718 58.6012 76.3282 59.2008 77.5166 60.2962L78.5669 60.1851V58.8471L81.3412 58.8694L82.1694 57.4708C84.3441 53.5823 85.6571 49.2495 86.1082 44.4724V44.4633C86.1923 43.5504 86.2465 42.6325 86.2708 41.7096C86.2607 41.6453 86.2659 41.5795 86.2859 41.5176C87.1296 34.6925 85.6106 29.2272 81.729 25.1217C81.6042 25.1798 81.4757 25.2294 81.3443 25.2703C80.5996 25.5222 79.9438 25.5273 79.3769 25.2854C79.3277 25.0537 79.5496 24.5653 80.0424 23.8202L80.1687 23.6504C79.362 22.9681 78.5037 22.3495 77.6014 21.8001C64.4081 17.818 55.6553 19.7548 51.3428 27.6107C53.287 29.942 54.9141 32.5207 56.1815 35.2796L56.1794 35.2735ZM79.6253 35.5383C78.0471 39.4456 74.9722 43.6279 70.4005 48.085C69.7272 48.5983 69.0566 48.9093 68.3887 49.0177C68.7563 48.4197 69.1974 47.87 69.7016 47.3817C74.1602 43.0344 77.291 38.2512 79.0941 33.0322C79.6906 33.7732 79.868 34.6096 79.6263 35.5413L79.6253 35.5383ZM19.6739 60.372C18.906 61.0961 18.1867 61.8702 17.5207 62.6892L17.3945 62.8448C16.9019 63.4479 16.4401 64.0755 16.0109 64.7254C15.2169 65.9215 14.5146 67.1761 13.9102 68.4785C14.7078 69.7853 15.8093 70.8798 17.1208 71.6687C17.5389 71.3469 17.8758 70.9316 18.1045 70.4561C18.0684 69.842 18.0735 69.2262 18.1196 68.6129C18.492 68.4601 18.8823 68.3555 19.2811 68.3016L19.8658 67.0991L20.4506 68.0763L21.3161 68.1874C21.5093 69.1211 21.6208 70.0699 21.6494 71.023L22.0857 71.5555C23.575 70.9438 24.686 69.8976 25.4185 68.4168C25.5075 67.8173 25.4976 67.2073 25.3892 66.611L25.2044 66.034L25.1893 65.9966L25.1822 65.9815V65.9663C24.8147 64.9132 24.3466 63.898 23.7844 62.9347C23.2045 61.9417 22.5334 61.0049 21.7797 60.1366L20.9515 59.2483C20.5125 59.6087 20.0884 59.9813 19.679 60.366L19.6739 60.372ZM26.6921 61.3209C26.5197 62.3671 26.385 63.3591 26.2881 64.2969C26.0511 66.5821 26.0561 68.5485 26.3032 70.1964L26.688 70.6006C26.8078 70.7256 26.9364 70.8417 27.0728 70.9482C28.01 71.6933 29.1738 72.1376 30.5642 72.2811C32.3498 72.2218 33.5802 71.4397 34.2555 69.9346C34.1213 69.3171 33.9117 68.7184 33.6314 68.1521L33.4092 67.6933L33.9051 67.471C34.8477 67.0762 35.4668 66.1954 35.7624 64.8284L35.6735 64.1211V64.114C35.5989 63.7021 35.4901 63.2972 35.3483 62.9034C35.1151 62.2408 34.7475 61.6336 34.2687 61.1198L34.2091 61.0531C33.6193 60.4807 32.9051 60.0525 32.1225 59.8021C30.2582 59.6673 28.9018 59.8449 28.0535 60.3346C27.2051 60.8244 26.754 61.1302 26.7001 61.2522L26.685 61.326L26.6921 61.3209ZM26.1447 65.7228L26.1517 65.6561V65.649L26.1447 65.7228ZM30.546 65.5378C30.8034 65.5316 31.0544 65.6184 31.253 65.7824C31.3467 65.8533 31.4228 65.9449 31.4754 66.0501C31.5279 66.1552 31.5555 66.2711 31.556 66.3887C31.5587 66.5068 31.5325 66.6238 31.4797 66.7295C31.4269 66.8352 31.3491 66.9263 31.253 66.995C31.0604 67.1717 30.8072 67.2672 30.546 67.2618L30.344 67.2466V65.5459L30.546 65.5388V65.5378ZM36.6521 63.9665C36.9726 64.9386 37.6432 65.7527 38.664 66.4089L39.1447 66.7272L36.4744 69.6952C37.4709 70.8694 38.7501 71.8883 40.3122 72.752C42.5958 70.1293 44.4758 67.1804 45.8901 64.0028L45.9053 63.9735L46.5637 62.4264L46.9576 61.3391C46.6028 61.0332 46.2281 60.7348 45.8336 60.4438L45.782 60.4215L45.7669 60.4064C45.0761 59.92 44.188 59.5572 43.1027 59.318C42.6184 60.363 42.0046 61.3429 41.2757 62.2344C40.6362 61.3297 40.0508 60.3879 39.5224 59.414L39.5073 59.3918L39.2558 59.414C37.6729 59.567 36.3599 60.0331 35.317 60.8126C35.8034 61.4241 36.1698 62.1222 36.3966 62.87C36.5081 63.2236 36.5945 63.5846 36.6552 63.9503V63.9665H36.6521ZM9.16849 59.506C7.16341 59.6502 5.72592 60.3215 4.85603 61.52L4.67121 61.7868C4.27123 64.4828 4.29133 67.2246 4.73079 69.9144C5.52461 71.1479 6.92271 71.8735 8.9251 72.0911C10.3801 72.1012 11.4601 71.5262 12.165 70.3661C12.4512 69.5368 12.4535 68.7422 12.1721 67.9823C12.7989 67.5367 13.2763 66.9118 13.5416 66.1896C13.6791 65.8261 13.778 65.4492 13.8365 65.0649L13.9253 64.2807L13.8365 63.8442L13.7769 63.5855L13.5405 62.771C12.8107 60.7082 11.3631 59.6202 9.19778 59.507H9.16849V59.506ZM8.78673 65.5388C9.04424 65.534 9.29498 65.6215 9.4937 65.7854C9.58578 65.8574 9.66029 65.9494 9.71156 66.0544C9.76283 66.1595 9.78952 66.2748 9.78961 66.3917C9.79263 66.5092 9.76731 66.6256 9.7158 66.7311C9.66428 66.8367 9.5881 66.9282 9.4937 66.998C9.30059 67.1738 9.04774 67.2692 8.78673 67.2648L8.59484 67.2497V65.5459L8.78673 65.5388ZM14.9474 64.5394L14.903 64.5172L14.8959 64.6183L14.9474 64.5445V64.5394ZM9.70881 69.1737C9.71031 69.2754 9.68676 69.3759 9.64026 69.4663C9.59376 69.5567 9.52574 69.6342 9.44219 69.6921C9.2809 69.8397 9.06889 69.9194 8.85036 69.9144L8.67261 69.9074V68.4552L8.85036 68.4401C9.06631 68.4344 9.27685 68.5081 9.44219 68.6472C9.52475 68.7077 9.59192 68.7868 9.63824 68.8781C9.68457 68.9694 9.70874 69.0703 9.70881 69.1727V69.1737ZM36.5602 66.0936C36.1835 66.9871 35.6002 67.7785 34.8585 68.4027C35.1003 68.6797 35.2681 69.0134 35.3463 69.3728L37.4359 66.897C37.1075 66.6711 36.8136 66.3988 36.5633 66.0886L36.5602 66.0936ZM30.6046 68.435C30.8226 68.43 31.0351 68.5035 31.2035 68.6422C31.2842 68.7039 31.3495 68.7834 31.3943 68.8746C31.4392 68.9657 31.4623 69.066 31.462 69.1676C31.464 69.2685 31.4415 69.3684 31.3965 69.4587C31.3514 69.549 31.2852 69.627 31.2035 69.6861C31.039 69.833 30.8251 69.9124 30.6046 69.9084L30.4349 69.9013V68.4552L30.6046 68.4401V68.435ZM18.564 68.9585C18.4704 69.521 18.564 70.3082 18.8448 71.3201C19.6081 71.2851 20.3562 71.0935 21.0424 70.7572C21.1008 70.0695 21.0323 69.3769 20.8404 68.7139C20.3274 68.7038 19.5679 68.7853 18.562 68.9585H18.564ZM72.3325 47.2705C75.4101 44.7934 77.8909 41.751 79.7748 38.1434L80.8696 35.8344C81.3483 36.6879 81.3483 37.6206 80.8696 38.6325C78.7931 42.3135 76.1915 45.299 73.0647 47.5888C72.5934 47.9048 72.1595 48.0749 71.7629 48.0991C71.8864 47.7827 72.0814 47.4991 72.3325 47.2705ZM66.1628 62.7043C65.3635 61.2977 64.1206 60.4168 62.434 60.0618C60.7474 59.7067 59.1618 59.6451 57.6772 59.8769L57.6398 63.8078L57.6328 63.823V70.1893C57.6873 70.673 57.791 70.9667 57.9438 71.0705C59.095 71.2802 60.2675 71.3481 61.4352 71.2726C61.7076 70.7758 61.9017 70.24 62.0109 69.684C62.4423 70.4815 62.9428 71.2396 63.5066 71.9496C64.6867 71.3926 65.7433 70.6047 66.6142 69.6325C65.9849 68.8554 65.5079 67.9664 65.2084 67.0122C66.2048 65.7093 66.5502 64.372 66.2446 63.0004L66.1628 62.7043ZM66.9838 63.1085C66.5549 64.1002 66.4933 65.2572 66.799 66.5797C68.0109 69.9353 69.9221 71.5983 72.5325 71.5687C75.697 71.3666 77.7091 69.7874 78.5689 66.8313C78.8751 65.913 78.8751 64.9201 78.5689 64.0018L78.4952 63.7654L78.3255 63.2844C77.8226 62.0111 77.0506 61.0588 76.0097 60.4276C75.0974 59.8698 73.9754 59.5589 72.6436 59.4949C71.5414 59.4681 70.4548 59.7585 69.5127 60.3316C68.5412 60.9238 67.7076 61.8332 67.0121 63.06L66.9828 63.1045L66.9838 63.1085ZM85.7678 55.3618C86.5084 53.8319 87.2952 50.9573 88.1281 46.738C87.9107 46.1404 87.538 45.6116 87.0484 45.206C86.6141 48.9962 85.5783 53.1363 83.9408 57.6264L83.4672 58.8845H83.7247L84.5165 57.6486C84.9703 56.9035 85.3871 56.1413 85.7668 55.3618H85.7678ZM46.8465 64.303C46.7348 66.4822 46.8864 68.6669 47.298 70.8098C48.5896 71.0517 49.9156 71.0442 51.2044 70.7875L51.6852 70.0397C51.8119 70.4289 51.9085 70.8272 51.974 71.2312C52.1962 71.537 52.5514 71.8233 53.0395 72.0901C54.1296 71.4683 55.2294 70.479 56.339 69.1222C55.8361 68.6338 55.3109 67.9503 54.7635 67.0718C55.4768 65.9549 56.1123 64.79 56.6652 63.5855L56.7097 63.4592L57.05 62.5558L56.8278 62.2971L56.6874 62.1566C55.9325 61.3562 55.077 60.6572 54.1424 60.0769C53.8414 60.7331 53.4765 61.4536 53.0476 62.2385L51.9013 64.2292L51.7609 60.4983C50.2947 60.0149 48.7268 59.9281 47.2162 60.2467L46.8536 64.303H46.8465ZM61.8644 66.5383C62.2394 66.5975 62.597 66.896 62.937 67.4336C62.6619 67.6216 62.4067 67.8373 62.1755 68.0773L62.0573 68.24C61.897 67.7432 61.8286 67.2213 61.8553 66.6999L61.8624 66.5372L61.8644 66.5383ZM73.5606 68.5138C73.4595 68.4123 73.3795 68.2917 73.325 68.1592C73.2704 68.0266 73.2425 67.8847 73.2429 67.7413C73.2432 67.598 73.2717 67.4561 73.3269 67.3238C73.382 67.1915 73.4626 67.0714 73.5641 66.9703C73.6657 66.8691 73.7861 66.789 73.9186 66.7345C74.051 66.6799 74.193 66.652 74.3362 66.6523C74.4795 66.6527 74.6213 66.6812 74.7535 66.7364C74.8857 66.7915 75.0058 66.8722 75.1068 66.9738C75.2099 67.0738 75.2919 67.1934 75.3479 67.3257C75.4039 67.458 75.4327 67.6002 75.4327 67.7438C75.4327 67.8875 75.4039 68.0297 75.3479 68.1619C75.2919 68.2942 75.2099 68.4139 75.1068 68.5138C75.0062 68.617 74.8859 68.6989 74.7532 68.7549C74.6204 68.8108 74.4778 68.8396 74.3337 68.8396C74.1897 68.8396 74.047 68.8108 73.9143 68.7549C73.7815 68.6989 73.6613 68.617 73.5606 68.5138Z" fill="#010101"/>
<path d="M17.2771 50.5345L17.0257 50.971C16.4736 51.9533 15.8989 52.506 15.3017 52.6293C14.7348 52.6785 14.1184 52.3231 13.4525 51.5632L13.4303 51.5258L13.4151 51.5107C13.1388 51.203 12.891 50.8709 12.6748 50.5183L12.49 50.2232L12.1426 50.297C10.7664 50.6372 9.80961 50.583 9.27232 50.1343C8.80101 49.6459 8.70978 48.76 8.99862 47.4766L9.01377 47.3756L9.29151 46.2044L9.35109 45.9154L9.12184 45.7133C7.92471 44.7452 7.24502 43.7936 7.08276 42.8585C6.93934 41.9652 7.28441 41.077 8.11795 40.1937L8.46537 39.8239L9.05013 39.6753L9.16122 39.7764L9.4127 40.0129C9.64431 39.5588 9.60223 39.0751 9.28646 38.5617C0.108745 30.0268 -1.41762 20.5582 4.70736 10.1558L4.95884 9.71924L5.00328 9.65962L7.19284 7.22424C5.91358 11.1572 6.13307 14.7102 7.85132 17.8833L8.07957 18.3209L8.95216 17.8621L8.72998 17.4174C7.43927 14.9679 7.08781 12.2735 7.67559 9.33423C8.69813 7.90768 9.98067 6.68714 11.4558 5.73675C10.2574 7.65608 9.79884 10.1184 10.0803 13.1237L10.1318 13.6199L11.1235 13.5188L11.0791 13.0227C10.8623 10.7577 11.104 8.8256 11.8043 7.22627C12.8977 5.7098 14.5271 4.68782 16.6924 4.16032C17.3657 4.39207 17.938 4.42171 18.4093 4.24925C25.3779 1.57472 30.9999 1.16747 35.2754 3.02752C39.9016 5.05599 43.1334 9.45044 44.9709 16.2109C45.4348 18.3525 45.3806 20.255 44.8083 21.9183C43.5755 22.0026 42.5655 22.6045 41.7784 23.7242L41.6774 23.9535C41.4456 24.4737 41.4296 25.0647 41.633 25.5967L42.5803 24.2941C43.2314 23.3664 44.0821 22.9026 45.1325 22.9026C46.1336 23.1842 46.5652 24.0034 46.4272 25.3602L46.4343 25.345C46.173 27.3338 45.1274 28.4588 43.2974 28.7202H43.2378L42.9863 28.7495H41.7562C41.8107 29.1935 42.2201 29.5303 42.9843 29.76L43.9831 29.6196L44.0124 29.6863V29.6933C44.0383 30.3548 43.9509 31.0158 43.7539 31.6477L43.7387 31.6851L43.6499 31.9438C40.3904 39.3139 35.2538 44.7041 28.2401 48.1143C27.1165 48.5532 25.965 48.9167 24.7932 49.2026H24.7861C17.8121 50.8262 13.0849 48.0873 10.6044 40.986C10.1904 40.6997 9.82307 40.5444 9.50258 40.5201C9.44805 40.5599 9.44805 40.6711 9.50258 40.8536L9.65812 41.3124C11.274 45.9312 13.6932 48.8402 16.9156 50.0393C17.0821 50.1659 17.2081 50.3383 17.2782 50.5355L17.2771 50.5345ZM16.7601 53.3923L14.3857 54.6211L14.3412 54.6807C13.7097 55.3766 13.3498 56.0355 13.2616 56.6573C12.0234 57.1854 10.894 57.526 9.87323 57.6789L9.2299 57.7456C7.9035 57.652 6.82825 57.4101 6.00413 57.0201C5.55731 56.8199 5.15255 56.5367 4.81139 56.1854C4.03238 55.2968 3.84487 54.0555 4.24885 52.4616C4.81105 50.7147 5.80484 49.3821 7.23021 48.4639C7.53588 49.5546 7.98969 50.3566 8.59161 50.87C9.25279 51.5315 10.3994 51.6942 12.0315 51.3581L12.4536 51.8987C12.3601 52.7873 11.9507 53.6163 11.2256 54.3856C12.2267 54.0798 12.9371 53.5745 13.3565 52.8698C14.0763 53.4916 14.7742 53.7409 15.4502 53.6176C16.1059 53.5502 16.7274 53.1309 17.3145 52.3595C17.2304 52.8432 17.0455 53.1888 16.7601 53.3963V53.3923ZM91.7142 45.494C93.7341 46.6042 94.4393 48.6027 93.83 51.4894L93.6078 52.3555C93.5189 53.0709 93.5018 53.5964 93.5563 53.9319C93.9906 53.5863 94.2693 53.2976 94.3925 53.0659C94.5158 52.8341 94.6504 52.3777 94.7965 51.6966V51.6895C95.5412 48.1116 94.6558 45.6294 92.1404 44.2429C91.8199 43.0586 92.0862 41.9827 92.9392 41.0153C93.7923 40.0479 95.2274 40.7142 97.2446 43.0141C99.2423 45.2892 99.8762 48.9358 99.1464 53.9541L99.1171 54.1461C98.53 55.4834 97.7358 56.2918 96.7346 56.5714C95.8593 56.7688 94.9002 56.6206 93.8573 56.1268C93.6351 56.0183 93.4105 55.8974 93.1836 55.764C93.0292 55.5059 92.9814 55.1978 93.0503 54.905C92.7108 55.1353 92.4192 55.4294 92.1919 55.771L91.4849 56.8887C90.7941 57.846 90.1161 58.4604 89.4509 58.7319L88.6298 58.9138L86.8836 58.8986C86.4094 58.8072 85.9552 58.632 85.5424 58.3812L85.912 57.6557C87.5003 54.4483 88.5608 50.8777 89.0934 46.9441C90.4642 46.6625 91.3371 46.1788 91.7122 45.493L91.7142 45.494ZM48.6491 31.8508C53.5561 41.6415 53.4524 50.3438 48.338 57.9578L47.934 58.55L45.4041 58.9724C44.8069 58.5965 44.1818 58.2438 43.5287 57.9144L43.1661 57.7365L42.1965 59.313L40.4655 59.3948L39.7404 58.0811H39.1859C38.0666 58.272 36.9867 58.6477 35.9904 59.1927C35.3536 58.9709 34.7658 58.6277 34.2594 58.1822C33.5592 57.5853 32.896 56.7735 32.2698 55.7468L32.2405 55.7094L31.8486 56.0055C30.5458 56.9918 29.6463 57.6011 29.1501 57.8335V57.8487H29.1349L28.3148 58.2064C26.571 58.9605 24.7571 59.5407 22.8995 59.9385C22.4059 59.3351 21.8772 58.7615 21.3159 58.2206L21.0069 57.9144L20.6595 58.1953C19.7936 58.8799 18.9753 59.6226 18.2103 60.4185L17.3297 60.3892C15.5838 60.1668 14.5604 59.5006 14.2594 58.3903L14.1857 57.9861C14.1563 57.7654 14.1489 57.5424 14.1635 57.3202V57.2969C14.2326 56.5929 14.5286 55.9304 15.0068 55.4093L25.0679 50.1616C26.267 49.8585 27.4472 49.4853 28.6027 49.044L28.6178 49.0288L28.64 49.0136C36.2597 45.3225 41.4408 39.9782 44.1831 32.9806C45.5243 33.2272 47.0136 32.8496 48.6511 31.8478L48.6491 31.8508ZM9.54601 28.4544C9.33297 28.498 9.12284 28.5547 8.91682 28.6242C8.17215 28.8661 7.82574 29.3248 7.87758 30.0005C7.90249 30.4 8.13815 30.59 8.58454 30.5705C9.03094 30.5509 9.47969 30.3906 9.9308 30.0895C10.3745 29.7735 11.0848 29.6327 12.0618 29.6671L11.7881 29.3417C11.565 29.148 11.3288 28.9701 11.0811 28.8091C10.852 28.6403 10.5809 28.5379 10.2974 28.513L9.55005 28.4534L9.54601 28.4544ZM11.5104 34.9451L11.4094 35.1522C11.3241 35.3523 11.2149 35.5413 11.0842 35.7151L10.7731 36.2203C10.7037 36.3759 10.6782 36.5475 10.6994 36.7165C10.7095 36.9186 10.8795 37.1308 11.2094 37.3532C12.0382 37.5162 12.6004 37.2467 12.896 36.5447C13.1916 35.8428 13.0569 35.194 12.492 34.5984C12.0196 34.1003 11.4573 33.6961 10.8347 33.407V33.4141L10.9832 33.7173C11.1789 34.1168 11.3519 34.527 11.5013 34.9461L11.5104 34.9451ZM17.6619 25.6674C17.4237 25.5861 17.1787 25.5266 16.9297 25.4895L16.3379 25.4522C16.1033 25.4954 15.88 25.586 15.6816 25.7184C15.4831 25.8507 15.3136 26.0222 15.1835 26.2222C14.927 26.6122 15.0159 26.8787 15.4502 27.0215C15.9315 27.1592 16.4441 27.1411 16.9146 26.97C17.4276 26.7975 18.1181 26.7234 18.986 26.7477C18.8494 26.5 18.6659 26.2813 18.4457 26.1039C18.2157 25.9082 17.9494 25.7598 17.6619 25.6674ZM18.7941 32.2106L17.9508 33.5728C17.7488 33.8982 17.7825 34.1966 18.0518 34.4681C18.4214 34.8582 18.8927 34.9814 19.4657 34.8379L19.7545 34.5196C20.0239 34.0851 20.1275 33.5718 20.0656 32.9796C20.0332 32.7042 19.9433 32.4387 19.8019 32.2002C19.6605 31.9617 19.4706 31.7556 19.2445 31.5952C18.8174 31.2853 18.3314 31.0662 17.8165 30.9515V30.9666H17.7649C17.8585 31.001 18.0164 31.1357 18.2386 31.3708C18.4574 31.6084 18.6532 31.8662 18.8234 32.1408L18.8012 32.2075L18.7941 32.2106ZM15.3683 42.3411L15.5905 42.4745C16.4233 42.8003 17.3509 42.7843 18.172 42.43C19.0086 42.0972 19.7505 41.5635 20.3322 40.8759C21.0917 39.9927 21.1163 39.2203 20.406 38.5587C20.3615 38.3317 20.1791 38.107 19.8586 37.8847L19.8434 37.8695C19.7107 37.6579 19.5489 37.466 19.3627 37.2996C19.1702 37.1366 18.946 37.0155 18.7042 36.9439C18.4482 36.8649 18.1796 36.8347 17.9124 36.855C16.8598 36.8565 15.8441 37.2436 15.0573 37.9433C14.6806 38.267 14.3794 38.6693 14.1749 39.1221C13.9704 39.5748 13.8676 40.0668 13.8736 40.5636C13.8837 41.1605 14.1157 41.528 14.5695 41.6661C14.7223 41.9228 14.9886 42.1474 15.3683 42.3401V42.3411ZM18.5416 45.5677C18.6436 45.7955 18.8016 45.9937 19.0008 46.1439C19.1999 46.2941 19.4339 46.3914 19.6808 46.4267C20.2478 46.5263 20.8264 46.5413 21.3977 46.4711C22.0219 46.3983 22.6162 46.1635 23.1217 45.7901C23.6603 45.4 23.8674 44.8129 23.7428 44.0287L22.9732 44.4632C22.6136 44.6409 22.2425 44.7941 21.8623 44.922C21.2986 45.1161 20.7195 45.2621 20.1313 45.3586L18.5406 45.5657" fill="#FDEEE8" fill-opacity="0.99"/>
<path d="M87.9268 39.2388C88.277 31.5999 85.1549 25.5967 78.5606 21.2292C78.8764 21.1207 79.2487 21.1207 79.6776 21.2292C83.8204 22.1225 86.9792 24.96 89.1539 29.7419C90.1208 33.2754 89.7114 36.4417 87.9258 39.2408L87.9268 39.2388ZM50.0125 30.0006C50.545 29.5714 51.154 29.5714 51.8394 30.0006C52.8804 31.1108 53.924 32.9193 54.9703 35.4261C56.0011 37.9228 56.5216 40.9651 56.5317 44.5532C56.5418 48.1412 55.2467 52.1756 52.6464 56.6563C51.8916 57.4506 51.1396 57.5493 50.3902 56.9524C54.671 50.1919 54.5451 41.9581 50.0125 32.251C49.7068 31.4069 49.7068 30.6567 50.0125 30.0006ZM51.3446 27.6097C55.6597 19.7538 64.4126 17.817 77.6032 21.7991C78.5064 22.3474 79.3658 22.965 80.1735 23.6464L80.0472 23.8161C79.5537 24.5612 79.3319 25.0496 79.3817 25.2814C79.9486 25.5232 80.6044 25.5182 81.3491 25.2662C81.4805 25.2254 81.609 25.1758 81.7338 25.1177C85.6154 29.2231 87.1344 34.6884 86.2907 41.5135C86.2707 41.5754 86.2655 41.6412 86.2756 41.7055C86.2507 42.6285 86.1965 43.5464 86.113 44.4592V44.4663C85.6592 49.2434 84.3462 53.5762 82.1742 57.4647L81.346 58.8633L78.5717 58.8411V60.1871L77.5214 60.2982C76.333 59.2028 74.7228 58.6032 72.6908 58.4995H72.6837C70.9035 58.4651 69.3698 59.0081 68.0824 60.1285C66.4349 59.9062 65.4633 59.6198 65.1677 59.2695L65.7525 57.8851C66.1221 56.8584 66.2332 56.0961 66.0857 55.5983C65.3786 56.45 64.5712 57.2131 63.6811 57.8709L62.4974 58.641L61.7571 58.8774C60.2098 58.6405 58.6334 58.6706 57.0962 58.9664L56.6922 59.0401V59.5504C55.9424 59.4988 55.202 59.3528 54.4885 59.1159L54.1775 58.9239L53.7735 58.6652C53.4483 58.3641 53.2362 58.1101 53.1372 57.9033L53.1221 57.874C56.3478 52.6927 57.9729 48.3056 57.9971 44.7129C58.0213 41.1201 57.417 37.9767 56.1842 35.2826C54.9168 32.5237 53.2898 29.945 51.3456 27.6137L51.3446 27.6097ZM79.0949 33.0322C77.2945 38.2532 74.1636 43.0364 69.7024 47.3817C69.1982 47.87 68.7571 48.4196 68.3894 49.0177C69.0627 48.9092 69.7333 48.5983 70.4013 48.085C74.9729 43.6286 78.0479 39.4463 79.6261 35.5383C79.8678 34.6059 79.6904 33.7695 79.0939 33.0291L79.0949 33.0322ZM71.7627 48.1012C72.1619 48.0762 72.5959 47.9061 73.0645 47.5908C76.1913 45.3003 78.7929 42.3149 80.8693 38.6345C81.348 37.624 81.348 36.6913 80.8693 35.8364L79.7746 38.1454C77.8893 41.753 75.4086 44.7954 72.3323 47.2725C72.0811 47.5011 71.8862 47.7847 71.7627 48.1012ZM84.5163 57.6496L83.7245 58.8845H83.4659L83.9396 57.6264C85.577 53.1356 86.6129 48.9955 87.0472 45.206C87.5368 45.6115 87.9094 46.1404 88.1268 46.738C87.2933 50.9572 86.5065 53.8319 85.7666 55.3618C85.3868 56.1413 84.9701 56.9035 84.5163 57.6486" fill="#EC2227" fill-opacity="0.99"/>
<path d="M10.2935 28.513C10.577 28.5378 10.8481 28.6403 11.0773 28.8091C11.3249 28.97 11.5612 29.148 11.7842 29.3417L12.0579 29.667C11.0816 29.6327 10.3713 29.7735 9.92692 30.0895C9.46841 30.3953 9.01966 30.5556 8.58067 30.5705C8.14168 30.5853 7.90602 30.3953 7.87371 30.0005C7.82455 29.3268 8.17231 28.8681 8.91698 28.6242C9.123 28.5546 9.33314 28.4979 9.54618 28.4544L10.2935 28.514V28.513ZM10.9894 33.7183L10.8409 33.4151V33.408C11.4635 33.6971 12.0258 34.1013 12.4982 34.5994C13.0705 35.1869 13.2052 35.8357 12.9022 36.5457C12.5992 37.2558 12.037 37.5253 11.2156 37.3541C10.885 37.1318 10.715 36.9196 10.7056 36.7175C10.6844 36.5485 10.7099 36.3769 10.7793 36.2213L11.0904 35.7161C11.2212 35.5423 11.3304 35.3533 11.4156 35.1532L11.5166 34.9461C11.3672 34.527 11.1942 34.1167 10.9985 33.7172L10.9894 33.7183ZM18.4559 26.108C18.6762 26.2853 18.8597 26.504 18.9962 26.7517C18.1284 26.7267 17.4379 26.8009 16.9248 26.974C16.4543 27.1452 15.9418 27.1632 15.4604 27.0255C15.0261 26.8827 14.9373 26.6163 15.1938 26.2262C15.3239 26.0262 15.4934 25.8548 15.6918 25.7224C15.8903 25.59 16.1136 25.4994 16.3482 25.4562L16.94 25.4936C17.1889 25.5306 17.434 25.5901 17.6722 25.6714C17.9596 25.7638 18.226 25.9122 18.4559 26.108ZM18.8256 32.1479C18.6554 31.8733 18.4596 31.6155 18.2408 31.3779C18.0186 31.1407 17.8607 31.006 17.7671 30.9737H17.8186V30.9585C18.3336 31.0733 18.8196 31.2923 19.2467 31.6022C19.4728 31.7626 19.6626 31.9688 19.8041 32.2072C19.9455 32.4457 20.0354 32.7112 20.0678 32.9866C20.1351 33.5788 20.0314 34.0922 19.7567 34.5267L19.4679 34.845C18.8956 34.9878 18.4243 34.8645 18.054 34.4751C17.7846 34.2057 17.751 33.9072 17.953 33.5798L18.7963 32.2176L18.8185 32.1509L18.8256 32.1479ZM19.8284 38.0878L18.1863 38.1767C17.2295 38.1424 16.4576 38.4118 15.8705 38.9851C15.2833 39.5584 14.9554 40.0974 14.8868 40.602C14.8127 41.1248 14.709 41.4801 14.5757 41.6681C14.1219 41.53 13.89 41.1625 13.8799 40.5656C13.8738 40.0688 13.9766 39.5768 14.1811 39.1241C14.3856 38.6713 14.6868 38.269 15.0635 37.9453C15.8503 37.2456 16.866 36.8585 17.9186 36.857C18.1858 36.8368 18.4544 36.8669 18.7104 36.9459C18.9522 37.0175 19.1764 37.1386 19.3689 37.3016C19.5551 37.468 19.717 37.6599 19.8496 37.8715L19.8648 37.8867C19.8802 37.9201 19.8849 37.9575 19.8782 37.9937C19.8715 38.0299 19.8538 38.0631 19.8274 38.0888L19.8284 38.0878ZM20.4122 38.5627C21.1225 39.2243 21.0979 39.9967 20.3385 40.8799C19.7568 41.5675 19.0148 42.1013 18.1782 42.4341C17.3571 42.7883 16.4295 42.8043 15.5968 42.4785L15.3746 42.3451C15.2778 42.258 15.2078 42.1452 15.1726 42.0198C16.1394 42.0541 17.0911 41.79 18.0277 41.2275C18.6195 40.8725 19.0437 40.4578 19.3002 39.9835C19.4791 39.6392 19.6816 39.3076 19.9062 38.9912C20.04 38.8117 20.2126 38.6649 20.4112 38.5617L20.4122 38.5627ZM20.1375 45.3646C20.7258 45.2682 21.3048 45.1221 21.8685 44.9281C22.2487 44.8002 22.6198 44.6469 22.9795 44.4693L23.749 44.0327C23.8723 44.8176 23.6652 45.4047 23.1279 45.7941C22.6224 46.1676 22.0281 46.4023 21.4039 46.4752C20.8326 46.5453 20.254 46.5303 19.687 46.4307C19.4401 46.3954 19.2062 46.2981 19.007 46.1479C18.8078 45.9977 18.6498 45.7995 18.5478 45.5718L20.1385 45.3646" fill="#0C0808" fill-opacity="0.99"/>
<path d="M19.903 38.9873C19.6784 39.3037 19.476 39.6353 19.297 39.9796C19.0405 40.4512 18.6163 40.8658 18.0245 41.2236C17.0873 41.7861 16.1356 42.0502 15.1694 42.0158C15.2046 42.1412 15.2746 42.2541 15.3714 42.3412C14.9916 42.1485 14.7253 41.9239 14.5725 41.6672C14.7072 41.4799 14.8109 41.1245 14.8836 40.6011C14.9563 40.0776 15.2842 39.5387 15.8673 38.9842C16.4544 38.4116 17.2263 38.1421 18.1831 38.1758L19.8252 38.0869C19.8516 38.0612 19.8694 38.028 19.8761 37.9918C19.8827 37.9556 19.878 37.9182 19.8626 37.8848C20.1831 38.1071 20.3656 38.3318 20.41 38.5588C20.2114 38.662 20.0388 38.8088 19.905 38.9883" fill="#FBFBFB" fill-opacity="0.99"/>
<path d="M89.3107 65.3246V67.3376L88.6593 68.4037L89.236 69.3435L89.1622 70.9502H84.8568C84.6842 69.4372 84.615 67.9142 84.6498 66.3917C84.2464 66.6909 83.9674 67.1284 83.8661 67.6205C83.7672 68.7299 83.7672 69.8459 83.8661 70.9553L79.9748 71.3029C79.5814 68.6344 79.3961 65.9392 79.4203 63.2419C79.4304 62.1856 79.4748 61.1296 79.5536 60.0739L79.5607 59.9183L80.7292 59.8172L83.1531 59.6838H83.1682L83.8641 59.6687C83.9873 61.1346 84.0465 62.4719 84.0418 63.6805C84.4216 63.4979 84.6609 63.1203 84.7599 62.5477C84.8589 61.9751 84.8925 61.0275 84.8609 59.7051L89.1663 59.9193C89.2551 61.6264 89.3046 63.4302 89.3147 65.3307L89.3107 65.3246ZM96.854 59.2544L97.2761 59.7131C97.8383 60.3868 98.3709 61.0875 98.8739 61.8151L98.992 61.9848C99.534 62.777 100.021 63.6056 100.449 64.4647C100.863 65.3034 101.248 66.1644 101.604 67.0476L101.877 67.6913L101.729 67.9651C100.652 69.7841 99.4778 71.0375 98.2073 71.7253L97.5488 70.8078C97.5925 69.9957 97.5379 69.1814 97.3862 68.3825C97.0338 68.2878 96.6714 68.2356 96.3066 68.2269L95.7764 67.0991L95.229 68.2541C94.7682 68.3446 94.3191 68.4863 93.8898 68.6765C93.826 69.3465 93.86 70.0223 93.9908 70.6825C93.7328 71.064 93.4098 71.3972 93.0364 71.6667C91.7239 70.8765 90.6204 69.7824 89.8187 68.4765C90.852 66.2279 92.1896 64.1323 93.7938 62.2486C94.723 61.1616 95.7471 60.1596 96.854 59.2544ZM94.4715 68.9555C95.4579 68.6988 96.247 68.6075 96.8388 68.6816C97.0191 69.3582 97.0586 70.0647 96.955 70.7572C96.2718 71.094 95.5263 71.2857 94.7654 71.3201C94.484 70.3096 94.3877 69.5224 94.4766 68.9585L94.4715 68.9555ZM20.9525 59.2574L21.7807 60.1457C22.5344 61.014 23.2055 61.9508 23.7854 62.9438C24.3476 63.9071 24.8157 64.9223 25.1832 65.9754V65.9875L25.1903 66.0027L25.2054 66.0401L25.3902 66.6171C25.4986 67.2134 25.5085 67.8234 25.4195 68.4229C24.6897 69.905 23.5787 70.9512 22.0867 71.5616L21.6504 71.0291C21.6218 70.076 21.5103 69.1272 21.3171 68.1935L20.4516 68.0824L19.8658 67.0991L19.2811 68.2986C18.8823 68.3524 18.492 68.457 18.1196 68.6099C18.0735 69.2232 18.0684 69.839 18.1045 70.4531C17.8758 70.9286 17.5389 71.3439 17.1208 71.6657C15.8093 70.8767 14.7078 69.7822 13.9102 68.4755C14.5146 67.1731 15.2169 65.9185 16.0109 64.7223C16.44 64.0725 16.9018 63.4448 17.3945 62.8418L17.5207 62.6861C18.1867 61.8672 18.906 61.0931 19.6739 60.369C20.0833 59.9843 20.5075 59.6118 20.9465 59.2513L20.9525 59.2574ZM26.7032 61.2502C26.7523 61.1154 27.2034 60.8096 28.0565 60.3326C28.9096 59.8556 30.2659 59.6781 32.1256 59.8001C32.9082 60.0505 33.6223 60.4787 34.2121 61.0511L34.2717 61.1178C34.7497 61.6324 35.1162 62.2403 35.3483 62.9034C35.4875 63.2961 35.5939 63.6997 35.6664 64.11V64.117L35.7553 64.8244C35.4591 66.1913 34.84 67.0722 33.898 67.4669L33.4021 67.6893L33.6243 68.148C33.9071 68.717 34.1184 69.3188 34.2535 69.9397C33.5802 71.4447 32.3498 72.2269 30.5622 72.2862C29.1711 72.1433 28.0073 71.699 27.0708 70.9533C26.9343 70.8468 26.8057 70.7306 26.686 70.6056L26.3012 70.2014C26.0548 68.5529 26.0497 66.5864 26.2861 64.302C26.3796 63.3642 26.5143 62.3722 26.69 61.326L26.7052 61.2522L26.7032 61.2502ZM30.3521 65.5459V67.2487L30.5541 67.2638C30.8153 67.2692 31.0685 67.1737 31.261 66.997C31.3571 66.9284 31.435 66.8372 31.4878 66.7315C31.5406 66.6259 31.5668 66.5089 31.564 66.3907C31.5636 66.2732 31.536 66.1573 31.4834 66.0521C31.4309 65.9469 31.3548 65.8553 31.261 65.7844C31.0625 65.6204 30.8115 65.5336 30.5541 65.5399L30.3521 65.5469V65.5459ZM36.6552 63.9483C36.5945 63.5825 36.5081 63.2216 36.3966 62.868C36.1697 62.1202 35.8034 61.4221 35.317 60.8106C36.3626 60.0311 37.6755 59.5649 39.2558 59.412L39.5072 59.3898L39.5224 59.412C40.0508 60.3859 40.6362 61.3276 41.2757 62.2324C42.0044 61.3415 42.6182 60.3623 43.1027 59.318C44.188 59.5599 45.0758 59.925 45.7659 60.4135L45.781 60.4286L45.8325 60.4508C46.2271 60.7419 46.6018 61.0403 46.9566 61.3462L46.5648 62.4264L45.9073 63.9665L45.8921 63.9958C44.4778 67.1734 42.5978 70.1222 40.3142 72.7449C38.7508 71.8813 37.4715 70.8623 36.4764 69.6881L39.1467 66.7202L38.666 66.4018C37.6452 65.7457 36.9746 64.9315 36.6542 63.9594V63.9442L36.6552 63.9483ZM9.20081 59.4979C11.3661 59.6111 12.8137 60.6991 13.5436 62.7619L13.7799 63.5764L13.8395 63.8351L13.9284 64.2717L13.8395 65.0558C13.7807 65.4433 13.6808 65.8233 13.5416 66.1896C13.2764 66.9113 12.7993 67.5358 12.1731 67.9813C12.4545 68.7412 12.4522 69.5358 12.166 70.3651C11.4617 71.5246 10.3814 72.0995 8.92509 72.0901C6.92271 71.8732 5.5246 71.1476 4.73079 69.9134C4.29133 67.2236 4.27123 64.4818 4.6712 61.7857L4.85602 61.519C5.72592 60.3212 7.16341 59.6502 9.16849 59.506H9.19778L9.20081 59.4979ZM8.59181 65.5459V67.2487L8.7837 67.2638C9.04561 67.2693 9.29966 67.1742 9.49369 66.9981C9.58809 66.9282 9.66428 66.8367 9.71579 66.7311C9.7673 66.6256 9.79262 66.5092 9.7896 66.3917C9.78952 66.2748 9.76283 66.1595 9.71155 66.0544C9.66028 65.9494 9.58578 65.8574 9.49369 65.7854C9.29469 65.6222 9.04398 65.5355 8.78673 65.5409L8.59484 65.548L8.59181 65.5459ZM9.44521 68.6493C9.27987 68.5102 9.06934 68.4365 8.85338 68.4421L8.67563 68.4573V69.9084L8.85338 69.9155C9.07192 69.9204 9.28393 69.8408 9.44521 69.6931C9.52876 69.6353 9.59679 69.5577 9.64329 69.4673C9.68979 69.3769 9.71333 69.2764 9.71184 69.1747C9.71177 69.0723 9.68759 68.9714 9.64127 68.8801C9.59495 68.7888 9.52778 68.7097 9.44521 68.6493ZM30.441 68.4573V69.9084L30.6106 69.9155C30.8311 69.9195 31.045 69.8401 31.2095 69.6931C31.2913 69.6341 31.3575 69.556 31.4025 69.4658C31.4476 69.3755 31.47 69.2756 31.4681 69.1747C31.4684 69.0731 31.4452 68.9728 31.4004 68.8817C31.3555 68.7905 31.2902 68.711 31.2095 68.6493C31.0412 68.5106 30.8286 68.437 30.6106 68.4421L30.441 68.4573ZM20.8465 68.716C21.0383 69.3789 21.1068 70.0715 21.0485 70.7592C20.3622 71.0955 19.6142 71.2871 18.8508 71.3221C18.5694 70.3116 18.4758 69.5244 18.5701 68.9605C19.576 68.788 20.3355 68.7065 20.8485 68.716H20.8465ZM66.2496 63.0014C66.5553 64.373 66.2099 65.7103 65.2134 67.0132C65.513 67.9674 65.9899 68.8564 66.6192 69.6335C65.7468 70.6059 64.6884 71.3935 63.5066 71.9497C62.9428 71.2397 62.4423 70.4816 62.0109 69.684C61.901 70.2387 61.7065 70.7731 61.4342 71.2686C60.2665 71.3441 59.094 71.2762 57.9428 71.0665C57.79 70.9627 57.6863 70.669 57.6317 70.1853V63.8189L57.6388 63.8038L57.6762 59.8728C59.1507 59.6411 60.7363 59.7027 62.433 60.0577C64.1297 60.4128 65.3726 61.2936 66.1617 62.7003L66.2435 62.9964L66.2496 63.0014ZM67.0131 63.056C67.7086 61.8272 68.5422 60.9177 69.5137 60.3276C70.4557 59.7544 71.5424 59.464 72.6446 59.4908C73.9764 59.5582 75.0984 59.8691 76.0107 60.4236C77.0516 61.0555 77.8236 62.0077 78.3265 63.2803L78.4962 63.7613L78.5699 63.9978C78.8761 64.9161 78.8761 65.909 78.5699 66.8273C77.7115 69.7834 75.6993 71.3625 72.5335 71.5646C69.9245 71.5943 68.0133 69.9313 66.8 66.5757C66.4943 65.2532 66.556 64.0962 66.9848 63.1045L67.0141 63.06L67.0131 63.056ZM47.2091 60.2467C48.7197 59.9281 50.2876 60.0149 51.7538 60.4983L51.8942 64.2292L53.0405 62.2385C53.4694 61.4536 53.8343 60.7331 54.1353 60.0769C55.0699 60.6572 55.9254 61.3562 56.6804 62.1566L56.8207 62.2971L57.0429 62.5558L56.7076 63.4612L56.6632 63.5875C56.1102 64.792 55.4748 65.9569 54.7615 67.0738C55.3089 67.9496 55.834 68.6331 56.337 69.1242C55.2274 70.481 54.1276 71.4703 53.0375 72.0921C52.5494 71.8227 52.1942 71.5363 51.972 71.2332C51.9065 70.8292 51.8099 70.4309 51.6832 70.0418L51.2044 70.7875C49.9156 71.0442 48.5896 71.0517 47.298 70.8098C46.8864 68.6669 46.7348 66.4822 46.8465 64.303L47.2091 60.2467ZM61.8533 66.701C61.8266 67.2223 61.895 67.7442 62.0553 68.241L62.1735 68.0783C62.4047 67.8383 62.6598 67.6226 62.935 67.4346C62.5949 66.8957 62.2374 66.5972 61.8624 66.5393L61.8553 66.702L61.8533 66.701ZM74.3322 68.8403C74.476 68.8424 74.6187 68.8146 74.7512 68.7586C74.8837 68.7026 75.0031 68.6196 75.1018 68.5149C75.2049 68.4149 75.2869 68.2952 75.3428 68.163C75.3988 68.0307 75.4277 67.8885 75.4277 67.7448C75.4277 67.6012 75.3988 67.459 75.3428 67.3267C75.2869 67.1944 75.2049 67.0748 75.1018 66.9748C74.9747 66.8484 74.8184 66.7553 74.6468 66.7037C74.4752 66.6521 74.2935 66.6436 74.1178 66.6789C73.9421 66.7143 73.7778 66.7924 73.6395 66.9064C73.5011 67.0204 73.393 67.1667 73.3246 67.3325C73.2563 67.4982 73.2298 67.6782 73.2475 67.8567C73.2652 68.0351 73.3265 68.2064 73.4261 68.3555C73.5257 68.5046 73.6605 68.6268 73.8185 68.7113C73.9766 68.7959 74.153 68.8401 74.3322 68.8403Z" fill="#FCEE23"/>
</svg>
