<svg width="56" height="38" viewBox="0 0 56 38" fill="none" xmlns="http://www.w3.org/2000/svg">
<rect x="0.5" y="0.5" width="55" height="37" rx="3.5" fill="white" stroke="#F3F3F3"/>
<path d="M33.1272 27.5279H23.1331V9.98682H33.1272V27.5279Z" fill="#FF5F00"/>
<path d="M23.7733 18.7559C23.7733 15.1976 25.4792 12.028 28.1358 9.98536C26.1931 8.49169 23.7414 7.60017 21.0768 7.60017C14.7687 7.60017 9.65527 12.5947 9.65527 18.7559C9.65527 24.9171 14.7687 29.9116 21.0768 29.9116C23.7414 29.9116 26.1931 29.0201 28.1358 27.5264C25.4792 25.4838 23.7733 22.3142 23.7733 18.7559Z" fill="#EB001B"/>
<path d="M46.606 18.7559C46.606 24.9171 41.4926 29.9116 35.1845 29.9116C32.5199 29.9116 30.0682 29.0201 28.1248 27.5264C30.7821 25.4838 32.488 22.3142 32.488 18.7559C32.488 15.1976 30.7821 12.028 28.1248 9.98536C30.0682 8.49169 32.5199 7.60017 35.1845 7.60017C41.4926 7.60017 46.606 12.5947 46.606 18.7559Z" fill="#F79E1B"/>
</svg>
