<svg width="30" height="30" viewBox="0 0 30 30" fill="none" xmlns="http://www.w3.org/2000/svg">
<g opacity="0.3" clip-path="url(#clip0)">
<path d="M16.4078 6.05654H19.9914C20.4767 6.05654 20.8702 5.66307 20.8702 5.17774C20.8702 4.69241 20.4767 4.29894 19.9914 4.29894H18.2848L20.6664 1.4425C21.1423 0.87169 20.7358 0.000976562 19.9914 0.000976562H16.7336C16.2483 0.000976562 15.8548 0.394444 15.8548 0.879775C15.8548 1.36511 16.2483 1.75857 16.7336 1.75857H18.1145L15.7329 4.61502C15.2569 5.18583 15.6634 6.05654 16.4078 6.05654Z" fill="#18192E"/>
<path d="M23.4342 8.83276H25.7818C26.2671 8.83276 26.6606 8.43929 26.6606 7.95396C26.6606 7.46863 26.2671 7.07516 25.7818 7.07516H25.3189L26.4549 5.72152C26.9335 5.15118 26.5274 4.27777 25.7818 4.27777H23.6476C23.1623 4.27777 22.7688 4.67124 22.7688 5.15657C22.7688 5.6419 23.1623 6.03537 23.6476 6.03537H23.897L22.761 7.38901C22.2825 7.95935 22.6885 8.83276 23.4342 8.83276Z" fill="#18192E"/>
<path d="M22.0322 10.8395C17.6711 10.8395 14.123 14.3875 14.123 18.7487C14.123 19.9298 14.3837 21.051 14.8499 22.0585C12.2709 21.7898 10.376 19.5116 10.5935 16.9178C10.7161 15.4562 11.4885 14.1521 12.7127 13.3401C13.3155 12.9403 13.2025 12.0212 12.5206 11.7794C6.76474 9.73881 0.545137 13.7078 0.0329148 19.8152C-0.398985 24.9655 3.47089 29.5349 8.62164 29.9668C12.2605 30.2722 15.7328 28.3816 17.5231 25.2427C18.8031 26.1342 20.3575 26.6578 22.0322 26.6578C26.4257 26.6578 30 23.1098 30 18.7487C30 14.3875 26.4257 10.8395 22.0322 10.8395ZM8.76852 28.2154C4.58696 27.8646 1.43348 24.1457 1.78442 19.962C2.14683 15.6405 6.09158 12.5078 10.3887 13.0672C8.3614 15.4243 8.23814 19.0178 10.3614 21.5298C11.796 23.227 13.899 24.009 15.9628 23.8139C16.0303 23.8946 16.0991 23.9741 16.1696 24.052C14.7944 26.7604 11.883 28.476 8.76852 28.2154ZM22.0322 24.9002C20.6114 24.9002 19.3017 24.4159 18.2591 23.6038C18.3629 23.2966 18.4518 22.9818 18.5242 22.6598C18.6829 21.9543 17.9654 21.3679 17.3052 21.666C17.121 21.7492 16.9317 21.8203 16.7387 21.879C16.194 20.9614 15.8806 19.891 15.8806 18.7487C15.8806 15.3567 18.6402 12.5971 22.0322 12.5971C25.4565 12.5971 28.2424 15.3567 28.2424 18.7487C28.2424 22.1406 25.4565 24.9002 22.0322 24.9002Z" fill="#18192E"/>
<path d="M24.3171 17.8699H22.911V15.4678C22.911 14.9825 22.5176 14.5891 22.0322 14.5891C21.5469 14.5891 21.1534 14.9825 21.1534 15.4678V18.7487C21.1534 19.234 21.5469 19.6275 22.0322 19.6275H24.3171C24.8024 19.6275 25.1959 19.234 25.1959 18.7487C25.1959 18.2634 24.8024 17.8699 24.3171 17.8699Z" fill="#18192E"/>
</g>
<defs>
<clipPath id="clip0">
<rect width="30" height="30" fill="white"/>
</clipPath>
</defs>
</svg>
