<svg width="30" height="30" viewBox="0 0 30 30" fill="none" xmlns="http://www.w3.org/2000/svg">
<path d="M22.0316 10.8369C17.6711 10.8369 14.1236 14.3844 14.1236 18.7448C14.1236 23.1053 17.6711 26.6528 22.0316 26.6528C26.4243 26.6528 29.9981 23.1053 29.9981 18.7448C29.9981 14.3844 26.4243 10.8369 22.0316 10.8369Z" fill="#736DD9"/>
<path d="M29.998 18.7448C29.998 14.3844 26.4243 10.8369 22.0315 10.8369V26.6528C26.4243 26.6528 29.998 23.1053 29.998 18.7448Z" fill="#554FB2"/>
<path d="M24.316 19.6235H22.0315C21.5462 19.6235 21.1528 19.2301 21.1528 18.7448V15.4644C21.1528 14.9792 21.5462 14.5858 22.0315 14.5858C22.5168 14.5858 22.9102 14.9792 22.9102 15.4644V17.8661H24.316C24.8013 17.8661 25.1947 18.2595 25.1947 18.7448C25.1947 19.2301 24.8013 19.6235 24.316 19.6235Z" fill="white"/>
<path d="M24.316 19.6235C24.8013 19.6235 25.1947 19.2301 25.1947 18.7448C25.1947 18.2595 24.8013 17.8661 24.316 17.8661H22.9102V15.4644C22.9102 14.9792 22.5168 14.5858 22.0315 14.5858V19.6235H24.316Z" fill="#D6F9FA"/>
<path d="M17.3053 21.6617C16.5714 21.9932 15.7564 22.1325 14.9482 22.0648C14.9482 22.0648 14.9482 22.0648 14.9481 22.0648C13.6788 21.9583 12.5269 21.3639 11.7047 20.3912C9.8686 18.2189 10.3238 14.9222 12.7135 13.3371C13.3162 12.9374 13.2032 12.0184 12.5215 11.7767C9.5138 10.7104 6.00817 11.217 3.34571 13.4499C-0.653205 16.8038 -1.11977 22.6868 2.23853 26.6542C4.10715 28.8619 6.73799 29.9936 9.39331 29.9936C13.7088 29.9932 17.5575 26.9534 18.5241 22.6553C18.6828 21.9499 17.9654 21.3637 17.3053 21.6617Z" fill="#FEF77D"/>
<path d="M17.3052 21.6617C16.5713 21.9932 15.7563 22.1324 14.9481 22.0647C14.9481 22.0647 14.9481 22.0647 14.948 22.0647C13.6787 21.9583 12.5269 21.3639 11.7046 20.3912C9.86855 18.2189 10.3238 14.9222 12.7135 13.337C13.3161 12.9374 13.2032 12.0184 12.5214 11.7766C11.5266 11.4239 10.4686 11.2418 9.37879 11.2427C9.37879 30.8972 9.3707 29.9936 9.39331 29.9936C13.7088 29.9932 17.5575 26.9534 18.5241 22.6554C18.6828 21.9499 17.9653 21.3637 17.3052 21.6617Z" fill="#F4DE48"/>
<path d="M19.9911 6.05463H16.4081C15.6651 6.05463 15.2565 5.18505 15.7332 4.61333L18.1145 1.75733H16.7338C16.2486 1.75733 15.8552 1.36392 15.8552 0.878663C15.8552 0.393406 16.2486 0 16.7338 0H19.9911C20.734 0 21.1427 0.869583 20.666 1.4413L18.2847 4.2973H19.9911C20.4764 4.2973 20.8698 4.69071 20.8698 5.17597C20.8698 5.66122 20.4764 6.05463 19.9911 6.05463Z" fill="#74DCE2"/>
<path d="M25.7805 8.83044H23.4333C22.6889 8.83044 22.281 7.95804 22.7603 7.38691L23.8962 6.03348H23.6468C23.1615 6.03348 22.7681 5.64007 22.7681 5.15482C22.7681 4.66956 23.1615 4.27615 23.6468 4.27615H25.7806C26.525 4.27615 26.9329 5.14855 26.4537 5.71968L25.3178 7.07311H25.7806C26.2659 7.07311 26.6593 7.46652 26.6593 7.95177C26.6593 8.43703 26.2659 8.83044 25.7805 8.83044Z" fill="#74DCE2"/>
</svg>
