<svg width="30" height="30" viewBox="0 0 30 30" fill="none" xmlns="http://www.w3.org/2000/svg">
<g opacity="0.3" clip-path="url(#clip0)">
<path d="M5.24792 16.387H20.2232V18.1446H5.24792V16.387Z" fill="#18192E"/>
<path d="M10.8664 14.1434C11.8971 15.1741 13.5743 15.1741 14.605 14.1434C15.6357 13.1127 15.6357 11.4355 14.605 10.4048C13.5743 9.37403 11.8971 9.37403 10.8664 10.4048C9.83564 11.4355 9.83564 13.1127 10.8664 14.1434ZM13.3622 11.6475C13.7077 11.993 13.7077 12.5552 13.3622 12.9006C13.0168 13.2461 12.4546 13.2461 12.1091 12.9006C11.7637 12.5552 11.7637 11.993 12.1091 11.6475C12.4546 11.302 13.0168 11.302 13.3622 11.6475Z" fill="#18192E"/>
<path d="M14.605 20.3882C13.5743 19.3575 11.8971 19.3575 10.8664 20.3882C9.83564 21.419 9.83564 23.0961 10.8664 24.1268C11.8971 25.1576 13.5743 25.1576 14.605 24.1268C15.6357 23.0961 15.6357 21.419 14.605 20.3882ZM12.1091 22.8841C11.7637 22.5386 11.7637 21.9764 12.1091 21.631C12.4546 21.2855 13.0168 21.2855 13.3622 21.631C13.7077 21.9764 13.7077 22.5386 13.3622 22.8841C13.0168 23.2296 12.4546 23.2296 12.1091 22.8841Z" fill="#18192E"/>
<path d="M27.6632 6.07698L29.2225 4.5177C30.2532 3.48696 30.2532 1.80981 29.2225 0.779073C28.1917 -0.251663 26.5146 -0.251663 25.4838 0.779073L23.9241 2.33883C22.0095 0.939711 19.2811 -0.176089 16.2561 0.0230983L0.00146484 16.2778V19.5017L10.4998 30H13.7237L29.9783 13.7454C30.138 11.058 29.3511 8.42517 27.6632 6.07698ZM26.7265 2.02183C27.072 1.67635 27.6342 1.67635 27.9797 2.02183C28.3251 2.3673 28.3251 2.92947 27.9797 3.27495L26.5534 4.70119C26.3631 4.49058 26.1661 4.28207 25.9606 4.07656C25.9552 4.07117 25.9495 4.06543 25.9441 4.06004C25.7434 3.85868 25.5287 3.65352 25.3006 3.44777L26.7265 2.02183ZM22.6614 3.60144L21.9541 4.30873C20.9233 5.33946 20.9233 7.01662 21.9541 8.04736L23.1968 6.8046C22.8513 6.45913 22.8513 5.89695 23.1968 5.55148L24.056 4.69234C24.2772 4.88942 24.485 5.08644 24.6782 5.27971C24.6906 5.29207 24.7027 5.30426 24.7151 5.31656C26.3403 6.94181 28.2356 9.57161 28.2397 12.9983L25.839 15.3989L14.6024 4.16244L17.003 1.76189C19.2538 1.76493 21.1587 2.58113 22.6614 3.60144ZM11.2278 28.2425L1.759 18.7737V17.0058L13.3596 5.4052L24.5963 16.6419L12.9957 28.2425H11.2278Z" fill="#18192E"/>
</g>
<defs>
<clipPath id="clip0">
<rect width="30" height="30" fill="white"/>
</clipPath>
</defs>
</svg>
