<svg width="30" height="30" viewBox="0 0 30 30" fill="none" xmlns="http://www.w3.org/2000/svg">
<path d="M29.9934 13.2645L26.5158 16.7421L18.9362 11.0638L13.2579 3.48414L16.7354 0.00662589C20.4122 -0.121108 23.5622 1.62029 25.9656 4.03433C26.1748 4.24234 26.3787 4.45679 26.5774 4.67593C26.7783 4.89858 27.4615 5.15874 27.4615 5.15874C27.4615 5.15874 27.519 5.81616 27.6877 6.0517C29.1525 8.09954 30.0889 10.5288 29.9934 13.2645Z" fill="#FEF77D"/>
<path d="M29.9933 13.2645L26.5158 16.742L18.9362 11.0638L25.9656 4.03433C26.1748 4.24234 26.3787 4.45679 26.5773 4.67593C26.7783 4.89858 27.4615 5.15874 27.4615 5.15874C27.4615 5.15874 27.5189 5.81615 27.6877 6.0517C29.1525 8.09953 30.0888 10.5288 29.9933 13.2645Z" fill="#F7BE48"/>
<path d="M26.5158 16.7421L13.2579 30H10.6066L0 19.3934V16.7421L13.2579 3.48416L26.5158 16.7421Z" fill="#FF6888"/>
<path d="M26.5159 16.742L13.258 29.9999H10.6066L5.30334 24.6967L19.8872 10.1134L26.5159 16.742Z" fill="#FF515E"/>
<path d="M5.24756 16.3852H20.2246V18.143H5.24756V16.3852Z" fill="#F0F4FA"/>
<path d="M20.2246 16.3852V18.143H11.8569L13.6153 16.3852H20.2246Z" fill="#D5E1F5"/>
<path d="M29.2253 4.51361L27.6872 6.05169C27.3444 5.57181 26.9718 5.11302 26.5774 4.67592L27.9825 3.27085C28.3282 2.92515 28.3282 2.36324 27.9825 2.01754C27.6368 1.67184 27.0749 1.67184 26.7292 2.01754L23.1989 5.54778C23.0314 5.71536 22.9394 5.93743 22.9394 6.17473C22.9394 6.41145 23.0314 6.63352 23.1989 6.80109L21.9562 8.04386C20.9249 7.0132 20.9249 5.33568 21.9562 4.30502L25.4864 0.774774C26.5171 -0.256468 28.1946 -0.256468 29.2253 0.774774C30.2565 1.80543 30.2565 3.48296 29.2253 4.51361Z" fill="#633461"/>
<path d="M29.2252 4.51365L27.6872 6.05173C27.3444 5.57185 26.9717 5.11306 26.5774 4.67595L27.9825 3.27087C28.3282 2.92517 28.3282 2.36326 27.9825 2.01755L29.2252 0.77478C30.2565 1.80544 30.2565 3.48298 29.2252 4.51365Z" fill="#462347"/>
<path d="M12.7368 14.9142C11.2789 14.9142 10.0928 13.728 10.0928 12.2701C10.0928 10.8122 11.2789 9.62607 12.7368 9.62607C14.1947 9.62607 15.3809 10.8122 15.3809 12.2701C15.3809 13.728 14.1947 14.9142 12.7368 14.9142ZM12.7368 11.3839C12.2481 11.3839 11.8506 11.7814 11.8506 12.2701C11.8506 12.7588 12.2481 13.1563 12.7368 13.1563C13.2255 13.1563 13.623 12.7588 13.623 12.2701C13.623 11.7814 13.2254 11.3839 12.7368 11.3839Z" fill="#F0F4FA"/>
<path d="M12.7368 24.9004C11.2789 24.9004 10.0928 23.7143 10.0928 22.2564C10.0928 20.7984 11.2789 19.6123 12.7368 19.6123C14.1947 19.6123 15.3809 20.7984 15.3809 22.2564C15.3809 23.7143 14.1947 24.9004 12.7368 24.9004ZM12.7368 21.3701C12.2481 21.3701 11.8506 21.7677 11.8506 22.2564C11.8506 22.745 12.2481 23.1426 12.7368 23.1426C13.2255 23.1426 13.623 22.745 13.623 22.2564C13.623 21.7677 13.2254 21.3701 12.7368 21.3701Z" fill="#D5E1F5"/>
</svg>
