<svg width="30" height="30" viewBox="0 0 30 30" fill="none" xmlns="http://www.w3.org/2000/svg">
<g opacity="0.3">
<path d="M19.7631 6.26541C19.8609 6.73656 20.3066 7.0474 20.7967 6.95565C21.2691 6.85715 21.5786 6.41131 21.487 5.92205C21.377 5.395 20.8511 5.10637 20.3702 5.25291C19.9171 5.39735 19.6812 5.83029 19.7631 6.26541Z" fill="#18192E"/>
<path d="M29.1227 6.56004L25.9762 6.12715C25.1372 2.58486 21.9554 0 18.2812 0C13.9196 0 10.3711 3.57475 10.3711 7.96875C10.3711 10.5038 11.5787 12.8545 13.5835 14.3341C10.8604 16.7875 6.48967 16.3373 4.34309 13.4266C4.03037 13.0025 3.41754 12.9478 3.03445 13.3072C1.07766 15.1427 0 17.4086 0 19.6875C0 25.3738 6.20326 30 13.8281 30C21.4207 30 27.5977 25.3738 27.5977 19.6875C27.5977 17.2244 26.4493 14.8986 24.342 13.0517C24.5871 12.7601 24.8099 12.4512 25.0102 12.1273C27.776 12.0928 30 10.1864 30 7.43895C30 6.95402 29.6074 6.56086 29.1227 6.56004ZM22.4232 25.6373C20.1333 27.3171 17.0808 28.2422 13.8281 28.2422C4.77158 28.2422 -1.56035 21.0905 3.59162 15.2535C6.91143 18.6833 12.6367 18.4597 15.6359 14.7113C15.9781 14.2835 15.8496 13.6489 15.3667 13.3886C13.3696 12.3115 12.1289 10.2348 12.1289 7.96875C12.1289 4.544 14.8888 1.75781 18.2812 1.75781C21.104 1.75781 23.5538 3.72439 24.2419 6.43418C23.2434 6.94881 22.5586 7.98973 22.5586 9.18832V9.75305C22.5586 10.4412 22.853 11.0616 23.322 11.4959C23.0698 11.8557 22.7793 12.1886 22.4524 12.4902C22.0483 12.863 22.0821 13.5125 22.5236 13.8411C26.9823 17.1599 26.9429 22.322 22.4232 25.6373ZM24.9345 10.3711C24.5937 10.3711 24.3164 10.0938 24.3164 9.75305V9.18832C24.3164 8.4675 24.8888 7.87793 25.6029 7.8501L28.1471 8.20014C27.772 9.62854 26.3457 10.3711 24.9345 10.3711Z" fill="#18192E"/>
<path d="M19.7886 17.3658C18.3452 16.5807 16.7044 16.8146 15.5065 17.9763C13.8588 19.5743 10.7276 19.9026 9.00779 19.956C8.43627 19.9738 8.0339 20.5245 8.18941 21.0738C8.75308 23.0658 11.1124 25.0824 14.5313 25.0824C16.2844 25.0824 17.9449 24.7003 19.207 24.0065C20.5868 23.248 21.4015 22.1788 21.5008 20.9958C21.68 18.8627 20.6686 17.8444 19.7886 17.3658ZM19.7492 20.8486C19.6488 22.0443 17.5282 23.3245 14.5313 23.3245C12.5311 23.3245 11.1819 22.4856 10.4585 21.621C12.4576 21.4184 15.0829 20.8358 16.7303 19.2382C17.3841 18.6041 18.1719 18.4875 18.9487 18.9099C19.3776 19.1433 19.8562 19.5744 19.7492 20.8486Z" fill="#18192E"/>
</g>
</svg>
