<svg width="30" height="30" viewBox="0 0 30 30" fill="none" xmlns="http://www.w3.org/2000/svg">
<path d="M29.2372 6.53475C25.4912 6.01931 25.7834 6.05596 25.697 6.05596C23.9827 6.05596 22.588 7.45063 22.588 9.16493V9.73184C22.588 11.0469 23.6579 12.1169 24.973 12.1169C27.777 12.1169 29.9993 10.1945 29.9993 7.40881C29.9993 6.96796 29.6739 6.5948 29.2372 6.53475Z" fill="#F7BE48"/>
<path d="M24.3775 13.0426C25.5674 11.6212 26.2348 9.81036 26.2348 7.94066C26.2348 3.56218 22.6726 0 18.2941 0C13.9157 0 10.3535 3.56218 10.3535 7.94066C10.3535 10.4858 11.5656 12.8454 13.5783 14.3304C10.8433 16.7942 6.45609 16.3405 4.30199 13.4195C3.9886 12.9946 3.37364 12.9383 2.98831 13.2997C-1.26547 17.2898 -1.06378 23.2775 4.1547 27.0728C9.52024 30.9751 18.1257 30.9763 23.493 27.0728C28.7599 23.2423 28.9842 17.079 24.3775 13.0426Z" fill="#FEF77D"/>
<path d="M24.3775 13.0426C25.5674 11.6212 26.2348 9.81037 26.2348 7.94067C26.2348 3.56218 22.6726 0 18.2941 0C17.1198 0 16.0042 0.256572 15.0002 0.716131V29.961C18.2 29.7621 21.1806 28.7547 23.493 27.0729C28.7599 23.2423 28.9842 17.079 24.3775 13.0426Z" fill="#F4DE48"/>
<path d="M19.8073 17.3739C18.3583 16.5858 16.7112 16.8206 15.5087 17.9868C13.8546 19.5909 10.7113 19.9205 8.98489 19.9741C8.41116 19.992 8.00725 20.5448 8.16336 21.0962C8.7292 23.0959 11.0976 25.1203 14.5297 25.1203C16.2895 25.1203 17.9565 24.7367 19.2234 24.0403C20.6086 23.2788 21.4264 22.2055 21.5261 21.0179C21.706 18.8766 20.6907 17.8544 19.8073 17.3739Z" fill="#F7BE48"/>
<path d="M19.8073 17.3739C18.3583 16.5858 16.7113 16.8206 15.5087 17.9868C15.3519 18.139 15.1814 18.2795 15.0002 18.4096V25.1099C16.5849 25.0478 18.0701 24.6743 19.2234 24.0402C20.6086 23.2788 21.4264 22.2055 21.5261 21.0178C21.706 18.8766 20.6907 17.8544 19.8073 17.3739Z" fill="#F99E49"/>
<path d="M20.6469 6.94072C20.1646 6.94072 19.7646 6.54715 19.7646 6.05842C19.7646 5.53798 20.2184 5.12819 20.7339 5.18083C21.2007 5.2193 21.5755 5.65368 21.5251 6.14547C21.477 6.60815 21.0898 6.94072 20.6469 6.94072Z" fill="#554FB2"/>
</svg>
