<svg width="40" height="40" viewBox="0 0 40 40" fill="none" xmlns="http://www.w3.org/2000/svg">
<path d="M20 35H25M5 10L10 11.6667L5 10ZM10 11.6667L5 26.6667C6.44284 27.7484 8.19753 28.3331 10.0008 28.3331C11.8041 28.3331 13.5588 27.7484 15.0017 26.6667L10 11.6667ZM10 11.6667L15 26.6667L10 11.6667ZM10 11.6667L20 8.33333L10 11.6667ZM30 11.6667L35 10L30 11.6667ZM30 11.6667L25 26.6667C26.4428 27.7484 28.1975 28.3331 30.0008 28.3331C31.8041 28.3331 33.5588 27.7484 35.0017 26.6667L30 11.6667ZM30 11.6667L35 26.6667L30 11.6667ZM30 11.6667L20 8.33333L30 11.6667ZM20 5V8.33333V5ZM20 35V8.33333V35ZM20 35H15H20Z" stroke="#18192E" stroke-width="2" stroke-linecap="round" stroke-linejoin="round"/>
</svg>
