<svg width="30" height="30" viewBox="0 0 30 30" fill="none" xmlns="http://www.w3.org/2000/svg">
<path d="M20.0972 25.7805C20.0972 26.2656 19.7034 26.6594 19.2183 26.6594H14.5309C14.0458 26.6594 13.6521 26.2656 13.6521 25.7805C13.6521 25.2954 14.0458 24.9016 14.5309 24.9016H19.2183C19.7034 24.9016 20.0972 25.2954 20.0972 25.7805Z" fill="#F7BE48"/>
<path d="M20.0972 25.7805C20.0972 26.2656 19.7035 26.6594 19.2183 26.6594H16.8746V24.9016H19.2183C19.7035 24.9016 20.0972 25.2954 20.0972 25.7805Z" fill="#F99E49"/>
<path d="M22.0968 22.4066L20.503 18.423C20.3228 17.9723 19.8113 17.7531 19.3606 17.9334C18.91 18.1137 18.6907 18.6252 18.8711 19.0759L20.4648 23.0596C20.6446 23.5089 21.1555 23.7299 21.6072 23.5491C22.0578 23.3688 22.277 22.8573 22.0968 22.4066Z" fill="#F99E49"/>
<path d="M14.3886 17.9334C13.938 17.7531 13.4265 17.9723 13.2462 18.423L11.6525 22.4066C11.4211 22.9849 11.8493 23.6122 12.4682 23.6122C12.817 23.6122 13.147 23.4032 13.2845 23.0596L14.8782 19.0759C15.0585 18.6252 14.8393 18.1137 14.3886 17.9334Z" fill="#F7BE48"/>
<path d="M22.4995 21.6205C20.2056 21.6205 18.3394 23.4867 18.3394 25.7805C18.3394 26.8913 18.7695 27.9436 19.5503 28.7438C21.1847 30.4185 23.8137 30.419 25.4486 28.7438C26.2294 27.9437 26.6595 26.8913 26.6595 25.7805C26.6595 23.4867 24.7933 21.6205 22.4995 21.6205Z" fill="#2B4478"/>
<path d="M24.8431 25.8227C24.8431 27.1201 23.7932 28.1992 22.4994 28.1992C21.2072 28.1992 20.1558 27.1214 20.1558 25.8227C20.1558 24.5301 21.2069 23.479 22.4994 23.479C23.792 23.479 24.8431 24.5301 24.8431 25.8227Z" fill="#83B3F1"/>
<path d="M15.4098 25.7805C15.4098 28.0877 13.5411 29.9991 11.2498 29.9991C8.96077 29.9991 7.08975 28.0898 7.08975 25.7805C7.08975 23.4866 8.95591 21.6205 11.2498 21.6205C13.5437 21.6205 15.4098 23.4866 15.4098 25.7805Z" fill="#554FB2"/>
<path d="M13.5935 25.8227C13.5935 27.1201 12.5435 28.1992 11.2498 28.1992C9.95756 28.1992 8.90613 27.1214 8.90613 25.8227C8.90613 24.5301 9.95727 23.479 11.2498 23.479C12.5423 23.479 13.5935 24.5301 13.5935 25.8227Z" fill="#98D3F3"/>
<path d="M4.68748 13.066C4.32363 13.066 3.98672 12.8393 3.85958 12.4824C3.85958 12.4819 3.85899 12.4813 3.85899 12.4807C3.85489 12.469 3.85079 12.4573 3.84728 12.4455L3.49748 11.3083L2.52368 8.14429C2.31509 7.46521 1.62312 6.97245 0.879003 6.97245C0.393861 6.97245 0.00012207 6.57871 0.00012207 6.09357C0.00012207 5.60843 0.393861 5.21469 0.879003 5.21469C2.39947 5.21469 3.767 6.20665 4.2041 7.62692L5.33668 11.3083L5.52769 11.9288C5.70113 12.4936 5.27751 13.066 4.68748 13.066Z" fill="#F7BE48"/>
<path d="M18.7496 0H17.3434C16.9646 0 16.6284 0.242688 16.5092 0.602268L12.7593 11.9105C12.571 12.4786 12.9944 13.066 13.5935 13.066H29.1204C29.6058 13.066 29.9993 12.6725 29.9993 12.1871C29.9992 5.37599 24.8284 0 18.7496 0Z" fill="#98D3F3"/>
<path d="M29.9993 12.1871C29.9993 12.2926 29.9805 12.3934 29.9465 12.4871C29.9459 12.4889 29.9453 12.4901 29.9448 12.4918L29.9412 12.5006C29.8153 12.8311 29.4954 13.066 29.1204 13.066H16.8746V0.135934C17.0117 0.0492173 17.1735 0 17.3434 0H18.7496C24.5643 0 29.5487 4.91939 29.9705 11.3083C29.9893 11.5983 29.9993 11.8913 29.9993 12.1871Z" fill="#83B3F1"/>
<path d="M29.9448 12.4918L28.238 17.1065C27.6966 18.6153 25.9997 19.6283 24.0146 19.6283H9.73459C7.74715 19.6283 6.04915 18.6129 5.50952 17.1013L3.85957 12.4824C3.85957 12.4819 3.85898 12.4813 3.85898 12.4807C3.85488 12.469 3.85078 12.4572 3.84726 12.4455L3.49747 11.3083H29.1204C29.7309 11.3083 30.1569 11.9176 29.9448 12.4918Z" fill="#ADF2F5"/>
<path d="M29.9993 12.1871C29.9993 12.2926 29.9805 12.3934 29.9465 12.4871C29.9459 12.4889 29.9453 12.4901 29.9448 12.4918L29.9412 12.5006L28.238 17.1065C27.6966 18.6153 25.9998 19.6283 24.0147 19.6283H16.8746V11.3083H29.9705C29.9893 11.5983 29.9993 11.8912 29.9993 12.1871Z" fill="#98D3F3"/>
</svg>
