<svg width="30" height="30" viewBox="0 0 30 30" fill="none" xmlns="http://www.w3.org/2000/svg">
<g opacity="0.3" clip-path="url(#clip0)">
<path d="M29.9709 12.4059C29.9895 12.334 29.9995 12.258 29.9995 12.1871C29.9995 5.35144 24.8058 0 18.7499 0H17.3437C16.9649 0 16.6287 0.242688 16.5095 0.602268L12.9592 11.3083H5.33687L4.20423 7.62716C3.76713 6.20671 2.39988 5.21469 0.879246 5.21469C0.39387 5.21469 0.000366211 5.60819 0.000366211 6.09357C0.000366211 6.57895 0.39387 6.97245 0.879246 6.97245C1.62348 6.97245 2.31528 7.46521 2.52416 8.14406C3.97947 12.8737 4.03243 12.9652 5.50965 17.1015C6.0494 18.6129 7.74746 19.6283 9.73496 19.6283H12.7642L11.9437 21.6794C9.38721 21.2483 7.09 23.2293 7.09 25.7805C7.09 28.0881 8.95861 29.9991 11.25 29.9991C13.264 29.9991 14.9211 28.532 15.3174 26.6594H18.4324C18.5972 27.4384 18.9796 28.1587 19.5506 28.7438C21.185 30.4185 23.814 30.419 25.4489 28.7438C26.2297 27.9437 26.6598 26.8913 26.6598 25.7805C26.6598 23.2289 24.3621 21.2484 21.8061 21.6794L20.9855 19.6283H24.0148C26.0002 19.6283 27.6967 18.615 28.2384 17.1064C30.0546 12.1953 29.9527 12.4769 29.9709 12.4059ZM17.9782 1.75776H18.7499C23.7144 1.75776 27.801 5.96707 28.2084 11.3083H14.8111L17.9782 1.75776ZM11.25 28.2414C9.94788 28.2414 8.84776 27.1144 8.84776 25.7805C8.84776 24.4559 9.92544 23.3782 11.25 23.3782C12.5746 23.3782 13.6523 24.4559 13.6523 25.7805C13.6523 27.1144 12.5522 28.2414 11.25 28.2414ZM24.902 25.7805C24.902 27.1144 23.8019 28.2414 22.4997 28.2414C21.1975 28.2414 20.0974 27.1144 20.0974 25.7805C20.0974 24.4559 21.1751 23.3782 22.4997 23.3782C23.8243 23.3782 24.902 24.4559 24.902 25.7805ZM20.1742 22.3328C19.3009 22.9237 18.6637 23.8378 18.434 24.9016H15.3158C15.086 23.8378 14.4489 22.9237 13.5756 22.3328L14.6574 19.6283H19.0923L20.1742 22.3328ZM26.5882 16.501C26.2433 17.4322 25.0229 17.8706 24.0148 17.8706C23.5566 17.8706 10.2456 17.8706 9.73502 17.8706C8.52738 17.8706 7.44647 17.2985 7.165 16.5103L5.93492 13.066H27.8586L26.5882 16.501Z" fill="#18192E"/>
</g>
<defs>
<clipPath id="clip0">
<rect width="30" height="30" fill="white"/>
</clipPath>
</defs>
</svg>
