<svg width="30" height="30" viewBox="0 0 30 30" fill="none" xmlns="http://www.w3.org/2000/svg">
<path d="M8.99726 15.2704C8.26075 14.9614 7.44804 14.9577 6.70871 15.26L3.20474 16.6928C1.67867 17.3169 0.944788 19.0661 1.56873 20.5922C2.19408 22.1215 3.93792 22.8539 5.46815 22.2282L8.97212 20.7954C9.7114 20.4932 10.2887 19.9211 10.5977 19.1846C11.2371 17.6606 10.5213 15.9099 8.99726 15.2704Z" fill="#FEF77D"/>
<path d="M26.7952 16.6928L23.2913 15.26C22.552 14.9578 21.7393 14.9615 21.0027 15.2704C19.4788 15.9098 18.7628 17.6605 19.4022 19.1845C19.7112 19.9211 20.2885 20.4931 21.0278 20.7954L24.5318 22.2282C26.0617 22.8537 27.8057 22.1218 28.4312 20.5922C29.0552 19.0661 28.3213 17.3169 26.7952 16.6928Z" fill="#F4DE48"/>
<path d="M23.849 22.5043C23.849 24.9234 23.573 26.6639 22.2005 27.8641C20.9066 28.9951 18.7535 29.478 15 29.478C11.2465 29.478 9.09345 28.9951 7.7995 27.8641C6.42703 26.6639 6.15101 24.9234 6.15101 22.5043C6.15101 17.6693 10.0303 11.3112 15 11.3112C19.958 11.3112 23.849 17.654 23.849 22.5043Z" fill="#F4DE48"/>
<path d="M23.849 22.5043C23.849 24.9234 23.573 26.6639 22.2005 27.8641C20.9066 28.9951 18.7535 29.478 15 29.478V11.3112C19.958 11.3112 23.849 17.654 23.849 22.5043Z" fill="#F7BE48"/>
<path d="M9.75639 21.6216C7.90719 20.0548 5.52768 20.6495 4.64231 22.9145C4.2546 23.9064 4.20279 25.0925 4.49645 26.2541C4.79017 27.4158 5.3994 28.4347 6.21193 29.1232C8.05762 30.6871 10.4389 30.0997 11.326 27.8303C12.1278 25.7791 11.4376 23.0462 9.75639 21.6216Z" fill="#FEF77D"/>
<path d="M25.3576 22.9145C24.4752 20.657 22.0989 20.0495 20.2435 21.6216C18.5635 23.0451 17.8716 25.7776 18.6739 27.8303C19.5601 30.0973 21.9402 30.6889 23.788 29.1232C25.4498 27.7151 26.1697 24.9922 25.3576 22.9145Z" fill="#F4DE48"/>
<path d="M8.90533 0.00088501C6.61601 0.00088501 4.74454 1.91004 4.74454 4.22027C4.74454 6.51451 6.61109 8.38106 8.90533 8.38106C11.1996 8.38106 13.0661 6.51451 13.0661 4.22027C13.0661 1.91227 11.1971 0.00088501 8.90533 0.00088501Z" fill="#F4DE48"/>
<path d="M24.0443 1.25643C22.4095 -0.418606 19.7802 -0.419016 18.145 1.25643C17.364 2.05671 16.9339 3.10927 16.9339 4.22026C16.9339 6.51449 18.8004 8.38105 21.0947 8.38105C23.3889 8.38105 25.2555 6.51449 25.2555 4.22026C25.2555 3.10927 24.8253 2.05671 24.0443 1.25643Z" fill="#F7BE48"/>
<path d="M24.0834 11.1354C24.0834 12.9644 23.0971 14.6627 21.3057 15.9162C17.8013 18.3705 12.2042 18.3744 8.69436 15.9162C6.90288 14.6627 5.9166 12.9644 5.9166 11.1354C5.9166 9.12883 6.6714 7.13576 7.98703 5.66717C9.12978 4.39256 11.2741 2.87241 15 2.87241C18.726 2.87241 20.8702 4.39256 22.013 5.66717C23.3286 7.13576 24.0834 9.12883 24.0834 11.1354Z" fill="#FEF77D"/>
<path d="M24.0834 11.1354C24.0834 12.9644 23.0971 14.6627 21.3056 15.9162C19.6097 17.1035 17.3699 17.7575 15 17.7575V2.87241C18.726 2.87241 20.8702 4.39256 22.013 5.66717C23.3286 7.13575 24.0834 9.12883 24.0834 11.1354Z" fill="#F4DE48"/>
<path d="M12.1871 9.31871C11.7055 9.31871 11.308 8.92525 11.308 8.43966C11.308 7.93703 11.7384 7.51561 12.2738 7.56472C12.6049 7.59906 12.9067 7.81197 13.028 8.18416C13.199 8.75799 12.7694 9.31871 12.1871 9.31871Z" fill="#554FB2"/>
<path d="M17.8129 9.31871C17.3314 9.31871 16.9339 8.92542 16.9339 8.43966C16.9339 7.93703 17.3643 7.51561 17.8997 7.56472C18.3948 7.61612 18.736 8.05693 18.6879 8.5264C18.64 8.98707 18.2546 9.31871 17.8129 9.31871Z" fill="#2B4478"/>
<path d="M16.5594 11.8744L15.6218 12.812C15.2805 13.1533 14.723 13.1568 14.3782 12.812L13.4406 11.8744C12.8888 11.3226 13.2794 10.3736 14.0624 10.3736H15.9376C16.7209 10.3736 17.1108 11.3229 16.5594 11.8744Z" fill="#554FB2"/>
<path d="M16.5594 11.8744L15.6218 12.812C15.4501 12.9837 15.225 13.0693 15 13.0693V10.3736H15.9376C16.7209 10.3736 17.1108 11.3229 16.5594 11.8744Z" fill="#2B4478"/>
</svg>
