<svg width="30" height="30" viewBox="0 0 30 30" fill="none" xmlns="http://www.w3.org/2000/svg">
<g opacity="0.3">
<path d="M26.7955 16.6922L23.2919 15.2595C22.99 15.1359 22.6747 15.0639 22.3524 15.0432C23.4771 13.9213 24.0834 12.5682 24.0834 11.1345C24.0834 9.95755 23.8235 8.78549 23.3434 7.72109C25.5623 6.29628 25.9203 3.17785 24.0444 1.25556C23.2542 0.445908 22.2067 0 21.0947 0C19.2265 0 17.6095 1.29711 17.1007 3.04963C15.7615 2.812 14.2409 2.81159 12.8993 3.04963C12.3905 1.29711 10.7735 0 8.90532 0C7.79333 0 6.74575 0.445908 5.95561 1.25556C4.07926 3.17815 4.43774 6.29634 6.65661 7.72109C6.17648 8.78549 5.91658 9.95755 5.91658 11.1345C5.91658 12.5682 6.52288 13.9213 7.64765 15.0432C7.32533 15.0639 7.01011 15.1359 6.70842 15.2593L3.2045 16.6922C1.67842 17.3164 0.9446 19.0654 1.56849 20.5908C2.11683 21.9327 3.51404 22.6563 4.88681 22.3986C4.24218 23.5455 4.17508 24.982 4.49646 26.2532C5.35639 29.6545 8.57926 31.0711 10.5138 29.105C11.6597 29.358 13.106 29.4771 15 29.4771C16.8941 29.4771 18.3403 29.358 19.4862 29.105C20.6981 30.3367 22.4553 30.2516 23.7881 29.1223C25.6247 27.5661 26.2704 24.4575 25.1132 22.3986C26.4849 22.6562 27.8829 21.9336 28.4314 20.5911C29.0554 19.0654 28.3215 17.3164 26.7955 16.6922ZM21.0947 1.75808C22.3971 1.75808 23.4974 2.88525 23.4974 4.2194C23.4974 5.02683 23.095 5.76311 22.4516 6.20334C21.5156 4.94848 20.254 4.04805 18.7982 3.5062C19.1018 2.4997 20.0271 1.75808 21.0947 1.75808ZM17.5138 4.93465C17.5573 4.95053 17.6026 4.96254 17.649 4.97145C19.4731 5.49085 20.6456 6.54329 21.3603 7.71523C21.4003 7.79692 22.3254 9.18159 22.3254 11.1346C22.3254 12.6442 21.2832 13.869 19.99 14.6777C16.8729 16.5531 12.6485 16.3259 10.0128 14.6793C8.73889 13.9047 7.67466 12.6403 7.67466 11.1345C7.67466 10.1784 7.91669 8.96048 8.56701 7.83753C8.59426 7.79921 8.61852 7.75836 8.63967 7.71517C9.35439 6.54323 10.5269 5.49079 12.351 4.97145C12.3975 4.96254 12.4427 4.95053 12.4862 4.93465C14.0133 4.52894 15.9693 4.52431 17.5138 4.93465ZM6.50261 4.2194C6.50261 2.88525 7.60293 1.75808 8.90532 1.75808C9.97295 1.75808 10.8982 2.4997 11.2018 3.5062C9.74633 4.04793 8.48461 4.94824 7.54837 6.20334C6.90497 5.76311 6.50261 5.02683 6.50261 4.2194ZM3.19583 19.9256C2.93879 19.2972 3.24124 18.5767 3.86999 18.3195C7.67753 16.7624 7.4457 16.8415 7.65749 16.8095C7.14009 17.8026 6.74182 18.8539 6.48286 19.913L4.80166 20.6002C4.18164 20.8546 3.45749 20.566 3.19583 19.9256ZM7.34842 27.781C6.25554 26.855 5.74522 24.9212 6.27974 23.5537C6.40445 23.2346 6.69857 22.6778 7.26685 22.5342C8.23326 22.2899 9.3786 23.3827 9.76743 24.9208C10.0232 25.9327 9.89934 26.9305 9.50946 27.5645C9.47928 27.6016 9.45261 27.642 9.42853 27.6845C8.88311 28.4355 8.06367 28.3871 7.34842 27.781ZM11.4421 27.4916C12.2678 24.7682 10.6575 21.2827 8.08693 20.7978C8.36149 19.4057 8.96756 17.8936 9.82158 16.5865C12.9166 18.1463 17.0788 18.1486 20.1784 16.5865C21.009 17.8577 21.6307 19.3646 21.9131 20.7978C19.3421 21.2827 17.7323 24.7684 18.5579 27.4916C16.6866 27.796 13.332 27.799 11.4421 27.4916ZM23.7991 25.8224C23.301 27.7925 21.5396 29.0174 20.5714 27.6844C20.5474 27.642 20.5207 27.6016 20.4906 27.5644C20.1007 26.9304 19.9768 25.9326 20.2326 24.9207C20.6011 23.463 21.7196 22.278 22.7332 22.5341C23.3014 22.6777 23.5955 23.2346 23.7202 23.5537C24.145 24.6405 23.7991 25.8282 23.7991 25.8224ZM26.804 19.9259C26.5436 20.5632 25.8217 20.8559 25.1972 20.5998L23.5172 19.913C23.2583 18.8542 22.86 17.8028 22.3422 16.809C22.5521 16.84 22.3451 16.7717 26.1299 18.3195C26.7587 18.5767 27.0612 19.2972 26.804 19.9259Z" fill="#18192E"/>
<path d="M12.4426 7.59784C11.9449 7.44951 11.4319 7.75226 11.325 8.26708C11.2343 8.7495 11.5365 9.20097 12.0154 9.30083C12.4988 9.39132 12.9494 9.08875 13.0491 8.61049C13.1301 8.17771 12.8992 7.74663 12.4426 7.59784Z" fill="#18192E"/>
<path d="M16.9509 8.61048C17.0496 9.0861 17.4988 9.39178 17.9846 9.30082C18.4603 9.20167 18.766 8.75324 18.675 8.26707C18.565 7.7397 18.0388 7.45132 17.558 7.59783C17.1048 7.74228 16.8689 8.1753 16.9509 8.61048Z" fill="#18192E"/>
<path d="M14.3784 12.8109C14.7217 13.1542 15.2783 13.1543 15.6216 12.8109L16.5592 11.8733C17.1111 11.3213 16.7201 10.3727 15.9377 10.3727H14.0624C13.2819 10.3727 12.8875 11.32 13.4408 11.8733L14.3784 12.8109Z" fill="#18192E"/>
</g>
</svg>
