<svg width="26" height="11" viewBox="0 0 26 11" fill="none" xmlns="http://www.w3.org/2000/svg">
<path d="M8.5963 10.282C7.92075 11.0727 6.83144 11.0727 6.1559 10.282L0.506658 3.68722C-0.168886 2.89661 -0.168886 1.62392 0.506658 0.842956C1.1822 0.0619895 2.27152 0.0619895 2.94706 0.842956L8.5963 7.42814C9.27184 8.21875 9.27184 9.49144 8.5963 10.282ZM14.2286 3.68722L8.57941 10.282C7.90386 11.0727 6.81455 11.0727 6.13901 10.282C5.46346 9.49144 5.46346 8.21875 6.13901 7.43778L11.7882 0.852598C12.4638 0.0619896 13.5531 0.0619896 14.2286 0.852598C14.9042 1.63356 14.9042 2.90625 14.2286 3.68722ZM19.861 10.282C19.1855 11.0727 18.0961 11.0727 17.4206 10.282L11.7714 3.69686C11.0958 2.90625 11.0958 1.63356 11.7714 0.852598C12.4469 0.0619896 13.5362 0.0619896 14.2118 0.852598L19.861 7.43778C20.5365 8.21875 20.5365 9.49144 19.861 10.282ZM25.4933 3.68722L19.8441 10.282C19.1686 11.0727 18.0792 11.0727 17.4037 10.282C16.7282 9.49144 16.7282 8.21875 17.4037 7.43778L23.0529 0.842956C23.7285 0.052348 24.8178 0.052348 25.4933 0.842956C26.1689 1.63356 26.1689 2.90625 25.4933 3.68722Z" fill="black"/>
</svg>
