<svg width="56" height="38" viewBox="0 0 56 38" fill="none" xmlns="http://www.w3.org/2000/svg">
<rect x="0.5" y="0.5" width="55" height="37" rx="3.5" fill="white" stroke="#F3F3F3"/>
<path d="M24.8636 26.0614H21.1353L23.4672 12.7607H27.1953L24.8636 26.0614Z" fill="#15195A"/>
<path d="M38.3793 13.0863C37.6439 12.8172 36.4775 12.52 35.0353 12.52C31.3534 12.52 28.7607 14.3311 28.7448 16.9204C28.7142 18.8307 30.6011 19.8918 32.0124 20.5287C33.4548 21.1796 33.9451 21.6045 33.9451 22.1847C33.9304 23.0757 32.7796 23.4864 31.7061 23.4864C30.2176 23.4864 29.42 23.2747 28.208 22.7789L27.717 22.5664L27.1953 25.5521C28.0697 25.9196 29.6808 26.2457 31.3534 26.26C35.2654 26.26 37.8123 24.477 37.8425 21.7177C37.8574 20.2036 36.861 19.0434 34.7129 18.0954C33.4089 17.4868 32.6103 17.0764 32.6103 16.4538C32.6256 15.8877 33.2858 15.3079 34.7578 15.3079C35.9698 15.2795 36.8604 15.5482 37.535 15.8172L37.8722 15.9584L38.3793 13.0863Z" fill="#15195A"/>
<path fill-rule="evenodd" clip-rule="evenodd" d="M45.0528 12.7607H47.9367L50.9445 26.0612H47.4924C47.4924 26.0612 47.1546 24.533 47.0475 24.066H42.2607C42.1222 24.4196 41.4782 26.0612 41.4782 26.0612H37.5662L43.1041 13.8643C43.4878 13.0011 44.1635 12.7607 45.0528 12.7607ZM44.823 17.628C44.823 17.628 43.6415 20.5854 43.3345 21.3495H46.4335C46.2801 20.6845 45.5741 17.5007 45.5741 17.5007L45.3135 16.3547C45.2038 16.6498 45.0451 17.0555 44.9381 17.3292C44.8656 17.5147 44.8168 17.6395 44.823 17.628Z" fill="#15195A"/>
<path fill-rule="evenodd" clip-rule="evenodd" d="M4.98105 12.7607H10.9796C11.7926 12.7888 12.4524 13.0293 12.6671 13.8788L13.9707 19.99C13.9708 19.9904 13.971 19.9907 13.9711 19.9911L14.3701 21.8305L18.0213 12.7607H21.9637L16.1034 26.0473H12.1608L8.83777 14.4902C7.69122 13.8719 6.38269 13.3746 4.91968 13.0295L4.98105 12.7607Z" fill="#15195A"/>
</svg>
